<?xml version="1.0" encoding="utf-8"?>
<!-- Generator: Adobe Illustrator 16.0.0, SVG Export Plug-In . SVG Version: 6.00 Build 0)  -->
<!DOCTYPE svg PUBLIC "-//W3C//DTD SVG 1.1//EN" "http://www.w3.org/Graphics/SVG/1.1/DTD/svg11.dtd">
<svg version="1.1" id="Layer_1" xmlns="http://www.w3.org/2000/svg" xmlns:xlink="http://www.w3.org/1999/xlink" x="0px" y="0px"
	 width="512px" height="512px" viewBox="0 0 512 512" enable-background="new 0 0 512 512" xml:space="preserve">
<g>
	<defs>
		<path id="XMLID_1_" d="M486.988,458.988c0,15.464-12.536,28-28,28H53.012c-15.464,0-28-12.536-28-28V53.012
			c0-15.464,12.536-28,28-28h405.977c15.464,0,28,12.536,28,28V458.988z"/>
	</defs>
	<use xlink:href="#XMLID_1_"  overflow="visible" fill="#ECEFF0"/>
	<clipPath id="XMLID_6_">
		<use xlink:href="#XMLID_1_"  overflow="visible"/>
	</clipPath>
	<g clip-path="url(#XMLID_6_)">
		
			<rect id="XMLID_18_" x="199.564" y="152.118" transform="matrix(0.7071 -0.7071 0.7071 0.7071 -157.9399 382.5177)" fill="#03AA92" width="366.409" height="459.582"/>
		<g>
			<defs>
				<path id="SVGID_1_" d="M291.452,316.583c21.658,21.656,15.312,83.27-7.032,105.612c-22.345,22.345-62.73,12.679-84.388-8.982
					c-21.659-21.657-6.255-52.06,16.091-74.406C238.468,316.463,269.8,294.93,291.452,316.583z"/>
			</defs>
			<use xlink:href="#SVGID_1_"  overflow="visible" fill="#2C2C2C"/>
			<clipPath id="SVGID_2_">
				<use xlink:href="#SVGID_1_"  overflow="visible"/>
			</clipPath>
			
				<rect x="284.236" y="266.793" transform="matrix(0.9132 -0.4075 0.4075 0.9132 -112.7283 160.153)" opacity="0.2" clip-path="url(#SVGID_2_)" fill="#FFFFFF" width="70.618" height="155.755"/>
		</g>
		<g>
			<defs>
				<path id="SVGID_3_" d="M411.263,196.771c21.656,21.658,30.404,68.177,8.061,90.521c-22.347,22.348-77.823,27.771-99.481,6.11
					c-21.657-21.658-6.257-52.058,16.091-74.403C358.278,196.651,389.609,175.119,411.263,196.771z"/>
			</defs>
			<use xlink:href="#SVGID_3_"  overflow="visible" fill="#2C2C2C"/>
			<clipPath id="SVGID_4_">
				<use xlink:href="#SVGID_3_"  overflow="visible"/>
			</clipPath>
			<polygon opacity="0.2" clip-path="url(#SVGID_4_)" fill="#FFFFFF" points="483.518,286.294 419.025,315.081 355.546,172.849 
				420.031,144.069 			"/>
		</g>
		<path fill="#2C2C2C" d="M318.726,256.554c0,0-27.255,23.168-35.659,31.572c-8.401,8.397-31.564,35.65-31.564,35.65l-2.802-2.798
			c0,0,23.164-27.253,31.567-35.655c8.401-8.401,35.656-31.571,35.656-31.571L318.726,256.554z"/>
		<path fill="none" d="M204.606,277.704c-0.003,0.002-62.51,29.442-44.674,101.449l-7.941-8.319c0,0-39.042-55.576,44.21-95.605
			L204.606,277.704z"/>
		<path fill="#2C2C2C" d="M290.992,205.936c0,0,30.669-60.603,100.93-41.065l-2.143-2.216c0,0-57.4-43.798-99.049,36.895
			L290.992,205.936z"/>
		<g>
			<g>
				<defs>
					<path id="XMLID_19_" d="M393.872,418.312c0,0,50.971,12.332,65.824,5.133c15.609-7.565,30.34-45.285,13.066-68.158
						c-17.268-22.871-37.343-42.006-37.343-42.006S453.155,367.431,393.872,418.312z"/>
				</defs>
				<use xlink:href="#XMLID_19_"  overflow="visible" fill="#078A71"/>
				<clipPath id="XMLID_7_">
					<use xlink:href="#XMLID_19_"  overflow="visible"/>
				</clipPath>
				<path clip-path="url(#XMLID_7_)" fill="#FFFFFF" d="M410.786,421.832c0,0,46.213-39.366,44.291-87.966L435.42,313.28
					c0,0,13.071,57.883-41.548,105.031L410.786,421.832z"/>
				
					<use xlink:href="#XMLID_19_"  overflow="visible" fill="none" stroke="#088B70" stroke-width="0.75" stroke-linejoin="round" stroke-miterlimit="10"/>
			</g>
		</g>
	</g>
</g>
</svg>
