<?xml version="1.0" encoding="utf-8"?>
<!-- Generator: Adobe Illustrator 16.0.0, SVG Export Plug-In . SVG Version: 6.00 Build 0)  -->
<!DOCTYPE svg PUBLIC "-//W3C//DTD SVG 1.1//EN" "http://www.w3.org/Graphics/SVG/1.1/DTD/svg11.dtd">
<svg version="1.1" id="Layer_1" xmlns="http://www.w3.org/2000/svg" xmlns:xlink="http://www.w3.org/1999/xlink" x="0px" y="0px"
	 width="246.91px" height="265.713px" viewBox="0 0 246.91 265.713" enable-background="new 0 0 246.91 265.713"
	 xml:space="preserve">
<g>
	
		<rect x="168.918" y="17.424" transform="matrix(0.6486 -0.7611 0.7611 0.6486 -2.8205 195.8468)" fill="#EE5282" width="83.554" height="167.109"/>
	<g>
		
			<ellipse transform="matrix(-0.6486 0.7611 -0.7611 -0.6486 348.5073 17.5581)" fill="#EBF0F0" stroke="#B84371" stroke-miterlimit="10" cx="170.2" cy="89.23" rx="10.564" ry="11.183"/>
		<path fill="#2E61AB" d="M163.72,93.216c-1.142,1.476-1.655,2.008-1.248,2.853c2.234,2.456,5.953,3.957,8.934,3.794
			c0.401-0.303,0.757-0.677,1.038-1.12c1.383-2.183,0.549-5.19-1.861-6.715C168.174,90.503,165.298,91.174,163.72,93.216z"/>
		<path fill="#C04675" d="M168.088,87.34c3.527-3.653,5.479-5.604,7.918-6.672c-3.962-3.023-10.097-2.652-14.167,1.456
			c-3.869,3.906-2.39,11.821,0.667,13.892C164.503,91.519,164.963,90.579,168.088,87.34z"/>
		<path fill="#30302F" d="M153.683,91.596c0,0,5.261-8.729,12.47-11.188c4.234-1.445,9.823-8.373,7.739-9.083
			c0,0,0.72,2.593-11.495,7.979C162.396,79.306,153.359,84.99,153.683,91.596z"/>
		<path fill="#30302F" d="M176.169,80.48c0,0-0.909,0.221-1.723,0.751c-1.529,0.993-6.984,5.629-8.948,8.787
			c0,0-4.286,1.606-7.05,1.365c0,0,4.298,0.892,3.877,1.592c0,0-3.338,0.403-5.44,0.243c0,0,2.483,2.518,4.769,2.058
			c0,0-3.397,1.576-5.799,0.586c0,0,4.424,3.267,6.481,0.545C162.333,96.403,165.597,87.704,176.169,80.48z"/>
	</g>
	<g>
		
			<ellipse transform="matrix(-0.6486 0.7611 -0.7611 -0.6486 371.6572 -43.4906)" fill="#EBF0F0" stroke="#B84371" stroke-miterlimit="10" cx="195.868" cy="64.052" rx="7.58" ry="10.938"/>
		<path fill="#2E61AB" d="M195.021,71.942c0,0,1.791,1.333,2.688-0.304c0.821-1.5,1.054-4.333-0.84-5.522
			c-1.895-1.187-4.405-0.999-5.48,0.718c-0.457,0.726-1.396,1.213-1.267,2.031C192.316,70.838,194.393,71.838,195.021,71.942z"/>
		<g>
			<path fill="#C04675" d="M198.06,60.206c0,0,0.951-1.022,0.728-3.381c-4.277-2.499-8.916-2.593-11.186,0.069
				c-2.454,2.88-1.287,7.983,2.519,11.972C190.448,67.297,192.005,64.402,198.06,60.206z"/>
		</g>
		<path fill="#30302F" d="M179.749,66.386c0,0,5.132-3.158,6.321-9.632c0,0,2.379-7.875,7.838-6.055c0,0-5.091,2.79-5.802,6.808
			C188.108,57.508,185.104,68.335,179.749,66.386z"/>
		<path fill="#30302F" d="M189.905,68.925c0,0-0.12-2.08,7.708-9.557c0,0,1.389-1.826,0.613-5.402c0,0,2.211,1.129,1.909,3.405
			c0,0,2.68-2.631,1.372-6.356c0,0,2.671,1.739,1.612,4.139c0,0,1.632-0.377,1.084-4.222c0,0,2.269,2.758-0.075,5.541
			C201.844,59.184,197.295,57.945,189.905,68.925z"/>
	</g>
	<g>
		<path fill="#B84371" d="M204.464,130.737c0,0-0.198-0.055-0.537-0.225c-0.326-0.173-0.771-0.465-1.233-0.909
			c-0.215-0.232-0.456-0.488-0.685-0.78c-0.199-0.312-0.411-0.644-0.606-1.004c-0.156-0.376-0.308-0.772-0.446-1.182
			c-0.098-0.42-0.155-0.855-0.223-1.29l-0.021-0.162l-0.003-0.021l-0.002-0.012l-0.002-0.081l0.001-0.035l0.002-0.073l0.008-0.296
			l0.027-0.58l0.016-0.287l0.064-0.323c0.048-0.211,0.096-0.421,0.142-0.627c0.052-0.202,0.097-0.404,0.155-0.594
			c0.07-0.181,0.148-0.349,0.224-0.516c0.151-0.331,0.313-0.633,0.463-0.905c0.138-0.278,0.348-0.493,0.5-0.693
			c0.155-0.202,0.308-0.366,0.429-0.501c0.248-0.266,0.401-0.405,0.401-0.405s-0.004,0.22-0.042,0.581
			c-0.021,0.175-0.04,0.391-0.083,0.625c-0.027,0.24-0.097,0.495-0.124,0.783c-0.021,0.288-0.046,0.598-0.091,0.911
			c-0.02,0.156-0.041,0.316-0.063,0.479c0.002,0.156-0.007,0.315-0.011,0.476c0.004,0.341-0.078,0.596-0.041,1.013l0.016,0.582
			l0.002,0.295v0.072v0.036c0.003,0.066-0.002-0.084-0.001-0.067v0.004l0.002,0.01l0.002,0.017l0.021,0.128
			c0.049,0.342,0.085,0.686,0.119,1.025c0.086,0.328,0.153,0.66,0.211,0.987c0.103,0.311,0.196,0.62,0.276,0.925
			c0.112,0.287,0.212,0.568,0.303,0.839c0.12,0.251,0.219,0.494,0.309,0.719c0.108,0.204,0.191,0.399,0.266,0.563
			C204.362,130.542,204.464,130.737,204.464,130.737z"/>
	</g>
	<g>
		<path fill="#B84371" d="M201.764,125.87c0,0,0.662-0.303,1.821-0.832c0.567-0.272,1.252-0.603,2.043-0.981
			c0.779-0.386,1.655-0.818,2.612-1.295c0.94-0.503,1.968-1.012,3.033-1.597c0.534-0.285,1.082-0.576,1.644-0.873
			c0.556-0.312,1.12-0.629,1.694-0.95c1.164-0.615,2.319-1.34,3.525-2.008c1.182-0.709,2.388-1.431,3.59-2.148
			c1.188-0.748,2.378-1.495,3.548-2.231c1.144-0.778,2.296-1.505,3.411-2.218c1.082-0.756,2.149-1.467,3.171-2.135
			c1.02-0.668,1.952-1.349,2.849-1.936c0.879-0.611,1.729-1.125,2.435-1.639c0.708-0.511,1.358-0.926,1.889-1.276
			c1.063-0.696,1.708-1.064,1.708-1.064s-0.396,0.615-1.16,1.642c-0.384,0.51-0.844,1.139-1.404,1.829
			c-0.54,0.716-1.214,1.454-1.965,2.247s-1.538,1.694-2.461,2.54c-0.922,0.851-1.906,1.738-2.943,2.638
			c-1.068,0.855-2.19,1.725-3.348,2.582c-1.174,0.837-2.412,1.621-3.636,2.428c-1.274,0.724-2.528,1.488-3.819,2.14
			c-1.295,0.641-2.561,1.287-3.844,1.791c-1.26,0.549-2.512,1.006-3.711,1.402c-1.187,0.419-2.356,0.7-3.415,0.984
			c-2.138,0.529-3.967,0.781-5.243,0.895C202.5,125.908,201.764,125.87,201.764,125.87z"/>
	</g>
</g>
</svg>
