<?xml version="1.0" encoding="utf-8"?>
<!-- Generator: Adobe Illustrator 16.0.0, SVG Export Plug-In . SVG Version: 6.00 Build 0)  -->
<!DOCTYPE svg PUBLIC "-//W3C//DTD SVG 1.1//EN" "http://www.w3.org/Graphics/SVG/1.1/DTD/svg11.dtd">
<svg version="1.1" id="Google_Play" xmlns="http://www.w3.org/2000/svg" xmlns:xlink="http://www.w3.org/1999/xlink" x="0px"
	 y="0px" width="229.5px" height="238.5px" viewBox="0 0 229.5 238.5" enable-background="new 0 0 229.5 238.5"
	 xml:space="preserve">
<g>
	<path d="M222.484,72.05c0,6.53-4.797,10.59-11.321,10.59H19.349c-6.528,0-11.821-5.297-11.821-11.827V20.856
		c0-6.529,5.293-11.824,11.821-11.824h191.814c6.524,0,11.321,5.295,11.321,11.824V72.05z"/>
	<g>
		<g>
			<path fill="#FFFFFF" d="M154.43,61.867l-1.615,1.522c-0.371,0.205-0.741,0.443-1.111,0.612c-1.121,0.509-2.262,0.637-3.273,0.637
				c-1.078,0-2.769-0.069-4.49-1.316c-2.396-1.688-3.442-4.587-3.442-7.114c0-5.232,4.259-7.798,7.731-7.798
				c1.215,0,2.463,0.304,3.477,0.945c1.686,1.114,2.122,2.563,2.363,3.34l-7.935,3.205l-2.598,0.202
				c0.841,4.289,3.741,6.784,6.948,6.784c1.604,0,2.791-0.521,3.884-1.062C154.366,61.825,154.585,61.711,154.43,61.867z
				 M149.643,53.334c0.646-0.234,0.979-0.437,0.979-0.906c0-1.348-1.524-2.904-3.345-2.904c-1.351,0-3.879,1.05-3.879,4.695
				c0,0.569,0.065,1.175,0.102,1.781L149.643,53.334z"/>
			<path fill="#FFFFFF" d="M137.842,61.605c0,1.312,0.234,1.516,1.344,1.618c0.578,0.068,1.153,0.099,1.726,0.166l-1.248,0.743
				h-5.947c0.78-1.012,0.914-1.112,0.914-1.787v-0.753l-0.013-20.063h-2.626l2.526-1.218h4.825
				c-1.046,0.605-1.358,0.975-1.493,2.155L137.842,61.605z"/>
			<path fill="#FFFFFF" d="M128.619,50.066c0.773,0.637,2.393,1.988,2.393,4.553c0,2.499-1.41,3.677-2.83,4.792
				c-0.437,0.438-0.945,0.915-0.945,1.651c0,0.746,0.511,1.151,0.877,1.453l1.22,0.941c1.481,1.251,2.833,2.398,2.833,4.728
				c0,3.175-3.072,6.375-8.877,6.375c-4.891,0-7.254-2.328-7.254-4.825c0-1.216,0.604-2.937,2.602-4.115
				c2.092-1.279,4.928-1.45,6.443-1.55c-0.475-0.612-1.016-1.253-1.016-2.299c0-0.572,0.172-0.913,0.338-1.315
				c-0.368,0.035-0.74,0.071-1.079,0.071c-3.578,0-5.603-2.67-5.603-5.302c0-1.552,0.707-3.273,2.161-4.521
				c1.925-1.584,4.218-1.857,6.041-1.857h6.954l-2.162,1.221L128.619,50.066L128.619,50.066z M126.229,65.047
				c-0.275-0.036-0.441-0.036-0.775-0.036c-0.307,0-2.129,0.066-3.541,0.54c-0.747,0.273-2.906,1.08-2.906,3.478
				c0,2.392,2.331,4.116,5.938,4.116c3.238,0,4.959-1.553,4.959-3.644C129.9,67.78,128.788,66.872,126.229,65.047z M127.198,58.635
				c0.78-0.778,0.848-1.854,0.848-2.466c0-2.427-1.446-6.207-4.252-6.207c-0.875,0-1.823,0.439-2.36,1.118
				c-0.57,0.703-0.742,1.615-0.742,2.492c0,2.26,1.317,6.008,4.219,6.008C125.754,59.58,126.664,59.169,127.198,58.635z"/>
			<path fill="#FFFFFF" d="M107.697,64.569c-5.364,0-8.234-4.178-8.234-7.959c0-4.419,3.608-8.2,8.74-8.2
				c4.961,0,8.068,3.884,8.068,7.962C116.271,60.354,113.2,64.569,107.697,64.569z M111.917,61.839
				c0.816-1.08,1.014-2.428,1.014-3.742c0-2.972-1.416-8.64-5.601-8.64c-1.113,0-2.234,0.435-3.042,1.146
				c-1.318,1.181-1.553,2.664-1.553,4.12c0,3.334,1.647,8.833,5.737,8.833C109.793,63.556,111.14,62.917,111.917,61.839z"/>
			<path fill="#FFFFFF" d="M89.738,64.569c-5.365,0-8.23-4.178-8.23-7.959c0-4.419,3.609-8.2,8.739-8.2
				c4.958,0,8.062,3.884,8.062,7.962C98.309,60.354,95.242,64.569,89.738,64.569z M93.959,61.839c0.81-1.08,1.012-2.428,1.012-3.742
				c0-2.972-1.42-8.64-5.601-8.64c-1.117,0-2.226,0.435-3.036,1.146c-1.32,1.181-1.554,2.664-1.554,4.12
				c0,3.334,1.654,8.833,5.737,8.833C91.835,63.556,93.18,62.917,93.959,61.839z"/>
			<path fill="#FFFFFF" d="M79.363,63.398l-4.524,1.035c-1.833,0.289-3.479,0.544-5.222,0.544c-8.727,0-12.051-6.424-12.051-11.45
				c0-6.14,4.711-11.831,12.778-11.831c1.707,0,3.35,0.251,4.846,0.658c2.371,0.667,3.479,1.487,4.173,1.969l-2.628,2.496
				l-1.108,0.248l0.79-1.26c-1.07-1.045-3.037-2.974-6.77-2.974c-4.991,0-8.757,3.794-8.757,9.333c0,5.949,4.3,11.545,11.194,11.545
				c2.026,0,3.069-0.407,4.016-0.787v-5.1l-4.776,0.257l2.532-1.36h6.703L79.74,57.51c-0.222,0.188-0.251,0.252-0.313,0.504
				c-0.033,0.288-0.063,1.204-0.063,1.526L79.363,63.398L79.363,63.398z"/>
		</g>
		<g>
			<path fill="#FFFFFF" d="M164.156,62.011v8.596h-1.707V48.735h1.707v2.49c1.111-1.609,3.144-2.886,5.504-2.886
				c4.232,0,7.084,3.211,7.084,8.294c0,5.049-2.852,8.327-7.084,8.327C167.432,64.961,165.438,63.813,164.156,62.011z
				 M174.91,56.634c0-3.831-1.997-6.753-5.538-6.753c-2.199,0-4.302,1.729-5.216,3.235v7.001c0.914,1.51,3.017,3.301,5.216,3.301
				C172.913,63.418,174.91,60.471,174.91,56.634z"/>
			<path fill="#FFFFFF" d="M179.075,64.567V42.696h1.706v21.871H179.075z"/>
			<path fill="#FFFFFF" d="M199.936,69.192c0.364,0.162,0.987,0.263,1.383,0.263c1.045,0,1.771-0.427,2.426-1.936l1.244-2.82
				l-6.725-15.964h1.903l5.769,13.834l5.713-13.834h1.932l-8.201,19.313c-0.852,1.99-2.188,2.947-4.027,2.947
				c-0.554,0-1.279-0.099-1.707-0.229L199.936,69.192z"/>
			<path fill="#FFFFFF" d="M194.949,64.52c-0.114-0.549-0.2-1.032-0.264-1.437c-0.054-0.403-0.082-0.815-0.082-1.234
				c-0.586,0.859-1.414,1.574-2.475,2.138c-1.061,0.566-2.064,0.845-3.447,0.845c-1.662,0-2.953-0.409-3.875-1.239
				c-0.918-0.829-1.381-1.952-1.381-3.373c0-1.419,0.67-2.571,2.004-3.452c1.334-0.885,3.059-1.324,5.191-1.324h3.98v-1.968
				c0-1.133-0.388-2.023-1.158-2.67c-0.772-0.646-1.858-0.974-3.268-0.974c-1.287,0-2.332,0.299-3.127,0.881
				c-0.787,0.594-1.186,1.33-1.186,2.217h-1.746l-0.036-0.085c-0.063-1.195,0.483-2.245,1.647-3.15
				c1.155-0.905,2.674-1.36,4.541-1.36c1.859,0,3.367,0.448,4.502,1.342c1.135,0.885,1.703,2.164,1.703,3.836v7.811
				c0,0.561,0.025,1.103,0.098,1.631c0.072,0.529,0.188,1.057,0.34,1.567h-1.965V64.52H194.949z M188.893,63.276
				c1.449,0,2.491-0.324,3.559-0.965c1.058-0.638,1.775-1.469,2.154-2.475v-3.04h-4c-1.527,0-2.793,0.338-3.789,1.021
				c-0.996,0.68-1.502,1.503-1.502,2.46c0,0.902,0.319,1.625,0.957,2.172C186.908,63.002,187.779,63.276,188.893,63.276z"/>
		</g>
	</g>
	<g>
		<polygon fill="none" points="35.276,55.742 40.752,50.266 40.75,50.266 35.276,55.742 17.799,38.267 17.798,38.267 35.276,55.745 
			17.771,73.251 17.771,73.251 35.276,55.745 40.776,61.245 40.779,61.245 		"/>
		
			<linearGradient id="SVGID_1_" gradientUnits="userSpaceOnUse" x1="799.5781" y1="-311.7271" x2="776.501" y2="-326.1697" gradientTransform="matrix(0.7071 0.7071 -0.7071 0.7071 -754.2122 -290.621)">
			<stop  offset="0" style="stop-color:#D6FFA1"/>
			<stop  offset="0.3264" style="stop-color:#93E2A7"/>
			<stop  offset="1" style="stop-color:#00A3B5"/>
		</linearGradient>
		<path fill="url(#SVGID_1_)" d="M40.75,50.266L19.414,38.534c-0.604-0.331-1.163-0.408-1.615-0.268l17.478,17.476L40.75,50.266z"/>
		
			<linearGradient id="SVGID_2_" gradientUnits="userSpaceOnUse" x1="786.1641" y1="-324.063" x2="816.0789" y2="-316.2429" gradientTransform="matrix(0.7071 0.7071 -0.7071 0.7071 -754.2122 -290.621)">
			<stop  offset="0" style="stop-color:#FF177B"/>
			<stop  offset="0.6721" style="stop-color:#FFA976"/>
			<stop  offset="1" style="stop-color:#FFEC73"/>
		</linearGradient>
		<path fill="url(#SVGID_2_)" d="M40.779,61.245l7.283-4.005c1.477-0.815,1.477-2.142,0-2.954l-7.311-4.021l-5.476,5.477
			L40.779,61.245z"/>
		
			<linearGradient id="SVGID_3_" gradientUnits="userSpaceOnUse" x1="802.8613" y1="-300.7754" x2="770.4178" y2="-319.8633" gradientTransform="matrix(0.7071 0.7071 -0.7071 0.7071 -754.2122 -290.621)">
			<stop  offset="0" style="stop-color:#63FFD4"/>
			<stop  offset="0.4854" style="stop-color:#32A0BA"/>
			<stop  offset="0.8349" style="stop-color:#1262A9"/>
			<stop  offset="1" style="stop-color:#064AA2"/>
		</linearGradient>
		<path fill="url(#SVGID_3_)" d="M17.798,38.267c-0.649,0.203-1.069,0.86-1.069,1.854l0.004,31.284c0,0.982,0.407,1.63,1.038,1.846
			l17.506-17.506L17.798,38.267z"/>
		
			<linearGradient id="SVGID_4_" gradientUnits="userSpaceOnUse" x1="814.6436" y1="-315.9307" x2="794.6647" y2="-289.6097" gradientTransform="matrix(0.7071 0.7071 -0.7071 0.7071 -754.2122 -290.621)">
			<stop  offset="0" style="stop-color:#FF4521"/>
			<stop  offset="0.3411" style="stop-color:#D43E65"/>
			<stop  offset="0.7935" style="stop-color:#9F36B9"/>
			<stop  offset="1" style="stop-color:#8A33DB"/>
		</linearGradient>
		<path fill="url(#SVGID_4_)" d="M17.771,73.251c0.454,0.154,1.024,0.082,1.643-0.258l21.363-11.748l-5.5-5.5L17.771,73.251z"/>
	</g>
	<g>
		<path fill="#FFFFFF" d="M63.535,20.725c-1.006,0-1.797,0.356-2.373,1.069c-0.576,0.713-0.864,1.697-0.864,2.952
			c0,1.313,0.277,2.307,0.832,2.981c0.554,0.674,1.356,1.011,2.406,1.011c0.454,0,0.894-0.045,1.318-0.136
			c0.425-0.09,0.867-0.206,1.326-0.348v1.501c-0.84,0.317-1.792,0.476-2.856,0.476c-1.567,0-2.771-0.475-3.611-1.425
			c-0.84-0.949-1.26-2.308-1.26-4.076c0-1.113,0.204-2.087,0.612-2.922c0.407-0.835,0.997-1.475,1.769-1.919
			c0.772-0.444,1.677-0.667,2.717-0.667c1.094,0,2.104,0.229,3.032,0.688l-0.63,1.458c-0.361-0.171-0.744-0.321-1.146-0.45
			C64.403,20.79,63.979,20.725,63.535,20.725z"/>
		<path fill="#FFFFFF" d="M75.488,26.02c0,1.323-0.339,2.356-1.018,3.098c-0.679,0.742-1.624,1.113-2.834,1.113
			c-0.757,0-1.426-0.171-2.007-0.513c-0.581-0.342-1.028-0.833-1.34-1.472c-0.312-0.639-0.469-1.382-0.469-2.227
			c0-1.313,0.337-2.339,1.011-3.076c0.674-0.737,1.624-1.106,2.849-1.106c1.172,0,2.1,0.377,2.783,1.132
			C75.146,23.724,75.488,24.741,75.488,26.02z M69.592,26.02c0,1.87,0.691,2.805,2.073,2.805c1.367,0,2.051-0.935,2.051-2.805
			c0-1.851-0.688-2.776-2.065-2.776c-0.723,0-1.247,0.239-1.571,0.718C69.754,24.44,69.592,25.126,69.592,26.02z"/>
		<path fill="#FFFFFF" d="M84.292,30.085h-1.729V25.09c0-0.62-0.117-1.083-0.352-1.388c-0.235-0.305-0.601-0.458-1.099-0.458
			c-0.664,0-1.151,0.216-1.461,0.648c-0.311,0.432-0.465,1.151-0.465,2.157v4.036h-1.721v-8.101h1.348l0.242,1.062h0.088
			c0.225-0.386,0.55-0.684,0.978-0.894c0.427-0.21,0.897-0.315,1.41-0.315c1.245,0,2.07,0.425,2.476,1.274h0.117
			c0.239-0.4,0.576-0.713,1.011-0.938c0.435-0.225,0.933-0.337,1.494-0.337c0.967,0,1.671,0.244,2.113,0.732
			c0.442,0.488,0.663,1.233,0.663,2.234v5.281h-1.721V25.09c0-0.62-0.119-1.083-0.355-1.388c-0.237-0.305-0.604-0.458-1.103-0.458
			c-0.669,0-1.159,0.209-1.469,0.626c-0.31,0.418-0.465,1.059-0.465,1.923V30.085L84.292,30.085z"/>
		<path fill="#FFFFFF" d="M91.704,19.838c0-0.308,0.084-0.544,0.253-0.71c0.168-0.166,0.409-0.249,0.721-0.249
			c0.303,0,0.539,0.083,0.707,0.249c0.169,0.166,0.253,0.403,0.253,0.71c0,0.293-0.084,0.524-0.253,0.692
			c-0.168,0.169-0.404,0.253-0.707,0.253c-0.313,0-0.553-0.084-0.721-0.253C91.788,20.362,91.704,20.131,91.704,19.838z
			 M93.528,30.085h-1.721v-8.101h1.721V30.085z"/>
		<path fill="#FFFFFF" d="M103.115,30.085h-1.729v-4.98c0-0.625-0.126-1.091-0.377-1.399s-0.65-0.461-1.197-0.461
			c-0.728,0-1.26,0.215-1.597,0.645c-0.337,0.43-0.505,1.15-0.505,2.161v4.036h-1.721v-8.101h1.348l0.242,1.062h0.088
			c0.244-0.386,0.591-0.684,1.04-0.894c0.449-0.21,0.947-0.315,1.494-0.315c1.943,0,2.915,0.989,2.915,2.966L103.115,30.085
			L103.115,30.085z"/>
		<path fill="#FFFFFF" d="M112.351,21.984v0.945l-1.384,0.256c0.127,0.171,0.232,0.381,0.315,0.63s0.125,0.513,0.125,0.791
			c0,0.835-0.288,1.492-0.864,1.97s-1.37,0.718-2.38,0.718c-0.259,0-0.493-0.02-0.703-0.059c-0.371,0.229-0.557,0.498-0.557,0.806
			c0,0.186,0.086,0.325,0.26,0.417c0.174,0.092,0.492,0.139,0.956,0.139h1.414c0.894,0,1.572,0.19,2.036,0.571
			c0.464,0.381,0.696,0.93,0.696,1.648c0,0.918-0.378,1.626-1.135,2.124s-1.851,0.747-3.281,0.747c-1.104,0-1.946-0.195-2.527-0.586
			c-0.581-0.391-0.872-0.947-0.872-1.67c0-0.498,0.158-0.917,0.472-1.256c0.315-0.339,0.756-0.575,1.322-0.707
			c-0.229-0.098-0.419-0.255-0.567-0.473c-0.149-0.217-0.224-0.445-0.224-0.685c0-0.303,0.085-0.559,0.256-0.769
			s0.425-0.417,0.762-0.623c-0.42-0.181-0.761-0.475-1.022-0.883c-0.261-0.407-0.392-0.885-0.392-1.432
			c0-0.879,0.277-1.56,0.831-2.043c0.554-0.483,1.344-0.725,2.37-0.725c0.229,0,0.47,0.016,0.721,0.048
			c0.251,0.032,0.441,0.064,0.568,0.099h2.804V21.984z M105.986,31.345c0,0.371,0.167,0.657,0.501,0.857
			c0.334,0.2,0.805,0.3,1.41,0.3c0.938,0,1.636-0.134,2.095-0.403s0.688-0.625,0.688-1.069c0-0.353-0.126-0.603-0.377-0.75
			c-0.252-0.149-0.719-0.224-1.403-0.224h-1.304c-0.493,0-0.885,0.116-1.175,0.348C106.131,30.635,105.986,30.949,105.986,31.345z
			 M106.726,24.606c0,0.508,0.13,0.898,0.392,1.172c0.262,0.274,0.636,0.41,1.125,0.41c0.996,0,1.494-0.532,1.494-1.597
			c0-0.527-0.124-0.934-0.37-1.22c-0.247-0.285-0.622-0.428-1.125-0.428c-0.498,0-0.875,0.142-1.131,0.425
			C106.854,23.652,106.726,24.064,106.726,24.606z"/>
		<path fill="#FFFFFF" d="M124.105,27.177c0,0.952-0.344,1.699-1.032,2.241c-0.689,0.542-1.638,0.813-2.849,0.813
			s-2.203-0.188-2.975-0.564v-1.655c0.488,0.229,1.007,0.41,1.557,0.542c0.549,0.132,1.062,0.198,1.534,0.198
			c0.693,0,1.205-0.132,1.534-0.396c0.33-0.264,0.495-0.618,0.495-1.062c0-0.4-0.151-0.74-0.454-1.018
			c-0.303-0.278-0.928-0.608-1.875-0.989c-0.977-0.396-1.665-0.847-2.064-1.355c-0.4-0.508-0.602-1.118-0.602-1.831
			c0-0.894,0.316-1.597,0.952-2.109c0.635-0.512,1.487-0.769,2.556-0.769c1.025,0,2.047,0.225,3.063,0.674l-0.557,1.428
			c-0.953-0.4-1.803-0.601-2.55-0.601c-0.565,0-0.996,0.124-1.289,0.37c-0.293,0.246-0.438,0.572-0.438,0.979
			c0,0.278,0.059,0.517,0.176,0.714c0.117,0.198,0.311,0.385,0.579,0.561c0.269,0.176,0.752,0.408,1.45,0.696
			c0.785,0.327,1.361,0.632,1.729,0.916s0.635,0.603,0.807,0.959C124.021,26.274,124.105,26.694,124.105,27.177z"/>
		<path fill="#FFFFFF" d="M133.182,26.02c0,1.323-0.34,2.356-1.019,3.098c-0.679,0.742-1.624,1.113-2.834,1.113
			c-0.757,0-1.427-0.171-2.007-0.513c-0.581-0.342-1.028-0.833-1.34-1.472c-0.313-0.639-0.469-1.382-0.469-2.227
			c0-1.313,0.336-2.339,1.01-3.076c0.675-0.737,1.625-1.106,2.85-1.106c1.172,0,2.1,0.377,2.783,1.132
			C132.839,23.724,133.182,24.741,133.182,26.02z M127.285,26.02c0,1.87,0.691,2.805,2.072,2.805c1.367,0,2.052-0.935,2.052-2.805
			c0-1.851-0.688-2.776-2.065-2.776c-0.723,0-1.246,0.239-1.57,0.718C127.447,24.44,127.285,25.126,127.285,26.02z"/>
		<path fill="#FFFFFF" d="M142.344,26.02c0,1.323-0.339,2.356-1.018,3.098c-0.68,0.742-1.624,1.113-2.834,1.113
			c-0.758,0-1.426-0.171-2.008-0.513c-0.58-0.342-1.027-0.833-1.34-1.472c-0.312-0.639-0.469-1.382-0.469-2.227
			c0-1.313,0.338-2.339,1.012-3.076c0.674-0.737,1.623-1.106,2.849-1.106c1.172,0,2.101,0.377,2.782,1.132
			C142.002,23.724,142.344,24.741,142.344,26.02z M136.448,26.02c0,1.87,0.69,2.805,2.073,2.805c1.367,0,2.051-0.935,2.051-2.805
			c0-1.851-0.688-2.776-2.065-2.776c-0.723,0-1.247,0.239-1.571,0.718C136.609,24.44,136.448,25.126,136.448,26.02z"/>
		<path fill="#FFFFFF" d="M151.448,30.085h-1.729v-4.98c0-0.625-0.126-1.091-0.377-1.399s-0.65-0.461-1.197-0.461
			c-0.728,0-1.26,0.215-1.597,0.645c-0.337,0.43-0.505,1.15-0.505,2.161v4.036h-1.721v-8.101h1.348l0.242,1.062H146
			c0.244-0.386,0.591-0.684,1.04-0.894c0.448-0.21,0.946-0.315,1.494-0.315c1.942,0,2.915,0.989,2.915,2.966L151.448,30.085
			L151.448,30.085z"/>
		<path fill="#FFFFFF" d="M160.757,28.84c0.42,0,0.841-0.066,1.261-0.198v1.296c-0.19,0.083-0.437,0.152-0.736,0.209
			c-0.301,0.056-0.611,0.084-0.934,0.084c-1.632,0-2.447-0.859-2.447-2.578v-4.365h-1.105v-0.762l1.188-0.63l0.586-1.714h1.062
			v1.802h2.308v1.304h-2.308v4.336c0,0.415,0.104,0.722,0.312,0.919C160.146,28.741,160.42,28.84,160.757,28.84z"/>
		<path fill="#FFFFFF" d="M170.82,26.02c0,1.323-0.34,2.356-1.019,3.098c-0.679,0.742-1.624,1.113-2.834,1.113
			c-0.757,0-1.426-0.171-2.007-0.513c-0.581-0.342-1.027-0.833-1.34-1.472c-0.313-0.639-0.469-1.382-0.469-2.227
			c0-1.313,0.336-2.339,1.011-3.076c0.674-0.737,1.624-1.106,2.849-1.106c1.172,0,2.1,0.377,2.783,1.132
			C170.479,23.724,170.82,24.741,170.82,26.02z M164.924,26.02c0,1.87,0.691,2.805,2.073,2.805c1.366,0,2.051-0.935,2.051-2.805
			c0-1.851-0.688-2.776-2.065-2.776c-0.723,0-1.246,0.239-1.57,0.718C165.086,24.44,164.924,25.126,164.924,26.02z"/>
	</g>
</g>
<g>
	<path d="M222.484,219.05c0,6.53-4.797,10.591-11.321,10.591H19.349c-6.528,0-11.821-5.298-11.821-11.828v-49.955
		c0-6.528,5.293-11.823,11.821-11.823h191.814c6.524,0,11.321,5.295,11.321,11.823V219.05z"/>
	<g>
		<g>
			<g>
				<path fill="#FFFFFF" d="M50.135,191.914c-0.051-5.738,4.697-8.528,4.915-8.658c-2.69-3.922-6.858-4.458-8.324-4.5
					c-3.501-0.367-6.897,2.094-8.682,2.094c-1.818,0-4.565-2.059-7.525-1.998c-3.81,0.06-7.374,2.266-9.327,5.689
					c-4.034,6.982-1.026,17.244,2.838,22.891c1.934,2.767,4.192,5.852,7.149,5.74c2.892-0.117,3.973-1.844,7.463-1.844
					c3.459,0,4.474,1.844,7.488,1.773c3.105-0.05,5.06-2.775,6.925-5.564c2.233-3.17,3.13-6.29,3.166-6.451
					C56.149,201.063,50.193,198.788,50.135,191.914z"/>
				<path fill="#FFFFFF" d="M44.439,175.043c1.555-1.945,2.619-4.592,2.324-7.279c-2.251,0.104-5.067,1.561-6.688,3.461
					c-1.435,1.678-2.716,4.424-2.385,7.012C40.219,178.422,42.814,176.957,44.439,175.043z"/>
			</g>
		</g>
		<g>
			<path fill="#FFFFFF" d="M91.995,212.775h-4.043l-2.214-6.957h-7.697l-2.11,6.957h-3.935l7.625-23.689h4.708L91.995,212.775z
				 M85.07,202.898l-2.002-6.188c-0.211-0.632-0.609-2.121-1.194-4.464h-0.071c-0.233,1.009-0.608,2.497-1.124,4.464l-1.967,6.188
				H85.07z"/>
			<path fill="#FFFFFF" d="M111.604,204.023c0,2.906-0.784,5.201-2.355,6.889c-1.405,1.5-3.151,2.25-5.236,2.25
				c-2.25,0-3.866-0.809-4.851-2.426h-0.071v8.998h-3.795v-18.418c0-1.827-0.048-3.7-0.141-5.621h3.338l0.212,2.707h0.071
				c1.266-2.041,3.187-3.061,5.764-3.061c2.016,0,3.697,0.797,5.043,2.389C110.933,199.327,111.604,201.425,111.604,204.023z
				 M107.739,204.163c0-1.661-0.375-3.032-1.125-4.113c-0.82-1.123-1.922-1.686-3.303-1.686c-0.936,0-1.787,0.313-2.547,0.932
				c-0.762,0.622-1.26,1.437-1.494,2.443c-0.117,0.47-0.176,0.854-0.176,1.157v2.85c0,1.24,0.382,2.289,1.143,3.146
				c0.763,0.854,1.752,1.281,2.97,1.281c1.43,0,2.542-0.552,3.337-1.648C107.341,207.421,107.739,205.968,107.739,204.163z"/>
			<path fill="#FFFFFF" d="M131.252,204.023c0,2.906-0.787,5.201-2.357,6.889c-1.406,1.5-3.15,2.25-5.234,2.25
				c-2.25,0-3.867-0.809-4.85-2.426h-0.068v8.998h-3.795v-18.418c0-1.827-0.049-3.7-0.143-5.621h3.334l0.213,2.707h0.074
				c1.262-2.041,3.186-3.061,5.76-3.061c2.016,0,3.695,0.797,5.045,2.389C130.576,199.327,131.252,201.425,131.252,204.023z
				 M127.385,204.163c0-1.661-0.377-3.032-1.127-4.113c-0.82-1.123-1.918-1.686-3.303-1.686c-0.938,0-1.787,0.313-2.547,0.932
				c-0.762,0.622-1.26,1.437-1.492,2.443c-0.115,0.47-0.176,0.854-0.176,1.157v2.85c0,1.24,0.381,2.289,1.139,3.146
				c0.762,0.854,1.752,1.281,2.973,1.281c1.428,0,2.541-0.552,3.338-1.648C126.984,207.421,127.385,205.968,127.385,204.163z"/>
			<path fill="#FFFFFF" d="M153.217,206.132c0,2.017-0.699,3.656-2.104,4.921c-1.545,1.381-3.693,2.073-6.453,2.073
				c-2.549,0-4.592-0.492-6.141-1.476l0.881-3.164c1.664,1.01,3.492,1.516,5.484,1.516c1.43,0,2.539-0.322,3.342-0.972
				c0.797-0.646,1.191-1.509,1.191-2.587c0-0.961-0.328-1.771-0.982-2.43c-0.652-0.656-1.746-1.268-3.271-1.828
				c-4.146-1.55-6.219-3.813-6.219-6.793c0-1.946,0.727-3.545,2.18-4.787c1.451-1.244,3.385-1.866,5.801-1.866
				c2.154,0,3.945,0.376,5.373,1.126l-0.943,3.094c-1.334-0.729-2.848-1.09-4.537-1.09c-1.334,0-2.377,0.327-3.125,0.984
				c-0.629,0.584-0.945,1.299-0.945,2.146c0,0.935,0.357,1.709,1.084,2.317c0.633,0.562,1.781,1.173,3.449,1.83
				c2.037,0.817,3.533,1.777,4.496,2.877C152.734,203.122,153.217,204.494,153.217,206.132z"/>
			<path fill="#FFFFFF" d="M165.764,198.541h-4.182v8.296c0,2.106,0.736,3.162,2.213,3.162c0.678,0,1.242-0.06,1.686-0.178
				l0.105,2.884c-0.748,0.277-1.732,0.42-2.953,0.42c-1.498,0-2.67-0.458-3.514-1.372c-0.842-0.914-1.266-2.446-1.266-4.604v-8.608
				h-2.492v-2.849h2.492v-3.129l3.729-1.121v4.25h4.182V198.541L165.764,198.541z"/>
			<path fill="#FFFFFF" d="M184.637,204.093c0,2.626-0.75,4.782-2.25,6.47c-1.57,1.732-3.656,2.602-6.256,2.602
				c-2.506,0-4.502-0.831-5.99-2.493c-1.49-1.665-2.23-3.763-2.23-6.292c0-2.646,0.764-4.814,2.301-6.501
				c1.531-1.688,3.602-2.528,6.199-2.528c2.506,0,4.521,0.83,6.047,2.493C183.91,199.456,184.637,201.538,184.637,204.093z
				 M180.697,204.215c0-1.574-0.332-2.925-1.014-4.051c-0.797-1.365-1.938-2.043-3.408-2.043c-1.525,0-2.688,0.682-3.479,2.043
				c-0.687,1.129-1.021,2.501-1.021,4.123c0,1.577,0.334,2.929,1.021,4.053c0.82,1.362,1.963,2.043,3.445,2.043
				c1.448,0,2.586-0.693,3.405-2.078C180.348,207.157,180.697,205.792,180.697,204.215z"/>
			<path fill="#FFFFFF" d="M196.971,199.032c-0.373-0.069-0.771-0.105-1.193-0.105c-1.336,0-2.367,0.503-3.096,1.515
				c-0.633,0.891-0.949,2.015-0.949,3.371v8.963h-3.793l0.035-11.701c0-1.969-0.045-3.764-0.143-5.375h3.307l0.139,3.267h0.104
				c0.404-1.123,1.033-2.026,1.9-2.706c0.844-0.609,1.758-0.914,2.741-0.914c0.351,0,0.668,0.023,0.947,0.069V199.032
				L196.971,199.032z"/>
			<path fill="#FFFFFF" d="M213.945,203.426c0,0.682-0.047,1.254-0.139,1.723H202.42c0.045,1.688,0.596,2.979,1.65,3.869
				c0.961,0.795,2.201,1.19,3.727,1.19c1.684,0,3.225-0.269,4.607-0.806l0.594,2.635c-1.615,0.704-3.525,1.055-5.725,1.055
				c-2.648,0-4.729-0.779-6.244-2.336c-1.51-1.558-2.264-3.65-2.264-6.273c0-2.573,0.701-4.719,2.109-6.431
				c1.477-1.827,3.465-2.739,5.975-2.739c2.461,0,4.32,0.912,5.59,2.739C213.441,199.502,213.945,201.296,213.945,203.426z
				 M210.326,202.443c0.025-1.127-0.225-2.1-0.738-2.918c-0.656-1.06-1.664-1.584-3.023-1.584c-1.24,0-2.25,0.516-3.021,1.547
				c-0.629,0.82-1.004,1.808-1.123,2.951h7.906L210.326,202.443L210.326,202.443z"/>
		</g>
	</g>
</g>
<g>
	<path fill="#FFFFFF" d="M77.965,171.248c-1.006,0-1.797,0.357-2.373,1.07c-0.576,0.713-0.864,1.695-0.864,2.951
		c0,1.313,0.277,2.307,0.832,2.979c0.554,0.674,1.356,1.012,2.406,1.012c0.454,0,0.894-0.045,1.318-0.137
		c0.425-0.09,0.867-0.205,1.326-0.349v1.502c-0.84,0.317-1.792,0.478-2.856,0.478c-1.567,0-2.771-0.475-3.611-1.426
		c-0.84-0.949-1.26-2.308-1.26-4.075c0-1.113,0.204-2.087,0.612-2.923c0.407-0.834,0.997-1.476,1.769-1.918
		c0.771-0.445,1.677-0.667,2.717-0.667c1.094,0,2.104,0.229,3.032,0.688l-0.63,1.457c-0.361-0.17-0.744-0.32-1.146-0.449
		C78.833,171.313,78.41,171.248,77.965,171.248z"/>
	<path fill="#FFFFFF" d="M89.918,176.544c0,1.323-0.339,2.356-1.018,3.099c-0.679,0.743-1.624,1.113-2.834,1.113
		c-0.757,0-1.426-0.172-2.007-0.514s-1.028-0.832-1.34-1.473c-0.312-0.64-0.469-1.381-0.469-2.227c0-1.313,0.337-2.339,1.011-3.076
		c0.674-0.736,1.624-1.105,2.849-1.105c1.172,0,2.1,0.377,2.783,1.133C89.577,174.248,89.918,175.266,89.918,176.544z
		 M84.022,176.544c0,1.87,0.691,2.806,2.073,2.806c1.367,0,2.051-0.936,2.051-2.806c0-1.851-0.688-2.776-2.065-2.776
		c-0.723,0-1.247,0.24-1.571,0.719C84.185,174.965,84.022,175.65,84.022,176.544z"/>
	<path fill="#FFFFFF" d="M98.722,180.609h-1.729v-4.996c0-0.619-0.117-1.082-0.352-1.387c-0.234-0.307-0.601-0.459-1.099-0.459
		c-0.664,0-1.151,0.217-1.461,0.647c-0.311,0.433-0.465,1.151-0.465,2.157v4.035h-1.721v-8.102h1.348l0.242,1.063h0.088
		c0.225-0.385,0.55-0.684,0.978-0.894c0.427-0.21,0.897-0.315,1.41-0.315c1.245,0,2.07,0.427,2.476,1.275h0.117
		c0.239-0.4,0.576-0.713,1.011-0.938s0.933-0.338,1.494-0.338c0.967,0,1.671,0.244,2.113,0.731c0.442,0.488,0.663,1.233,0.663,2.234
		v5.28h-1.721v-4.996c0-0.618-0.119-1.082-0.355-1.387c-0.237-0.306-0.604-0.459-1.103-0.459c-0.669,0-1.159,0.209-1.469,0.627
		s-0.465,1.06-0.465,1.922V180.609L98.722,180.609z"/>
	<path fill="#FFFFFF" d="M106.134,170.361c0-0.307,0.084-0.543,0.253-0.709c0.168-0.166,0.409-0.25,0.721-0.25
		c0.303,0,0.539,0.084,0.707,0.25c0.169,0.166,0.253,0.401,0.253,0.709c0,0.294-0.084,0.524-0.253,0.693
		c-0.168,0.168-0.404,0.252-0.707,0.252c-0.313,0-0.553-0.084-0.721-0.252C106.218,170.887,106.134,170.655,106.134,170.361z
		 M107.958,180.609h-1.721v-8.103h1.721V180.609z"/>
	<path fill="#FFFFFF" d="M117.545,180.609h-1.729v-4.98c0-0.625-0.127-1.092-0.377-1.398c-0.251-0.308-0.65-0.463-1.197-0.463
		c-0.728,0-1.26,0.215-1.597,0.646c-0.337,0.43-0.505,1.149-0.505,2.161v4.035h-1.721v-8.102h1.348l0.242,1.063h0.088
		c0.244-0.385,0.591-0.684,1.04-0.894c0.449-0.21,0.947-0.315,1.494-0.315c1.943,0,2.915,0.99,2.915,2.968L117.545,180.609
		L117.545,180.609z"/>
	<path fill="#FFFFFF" d="M126.781,172.508v0.945l-1.385,0.256c0.127,0.172,0.232,0.381,0.315,0.631
		c0.083,0.248,0.125,0.512,0.125,0.791c0,0.834-0.288,1.491-0.864,1.971c-0.576,0.479-1.369,0.717-2.38,0.717
		c-0.259,0-0.493-0.02-0.702-0.059c-0.371,0.229-0.558,0.498-0.558,0.807c0,0.186,0.086,0.324,0.26,0.416
		c0.173,0.095,0.492,0.141,0.956,0.141h1.414c0.895,0,1.572,0.189,2.036,0.57c0.464,0.382,0.696,0.931,0.696,1.648
		c0,0.918-0.379,1.625-1.135,2.123c-0.758,0.498-1.852,0.748-3.281,0.748c-1.104,0-1.946-0.195-2.527-0.586s-0.872-0.947-0.872-1.67
		c0-0.498,0.158-0.918,0.472-1.256c0.315-0.34,0.756-0.576,1.322-0.707c-0.229-0.098-0.419-0.256-0.566-0.473
		c-0.149-0.217-0.225-0.445-0.225-0.687c0-0.303,0.085-0.56,0.256-0.769c0.172-0.211,0.426-0.418,0.762-0.623
		c-0.42-0.182-0.76-0.475-1.021-0.883c-0.261-0.408-0.393-0.885-0.393-1.432c0-0.879,0.277-1.561,0.832-2.044
		c0.554-0.483,1.344-0.726,2.369-0.726c0.229,0,0.471,0.017,0.722,0.049c0.251,0.031,0.44,0.064,0.567,0.098h2.805V172.508z
		 M120.417,181.869c0,0.371,0.167,0.656,0.501,0.855c0.334,0.2,0.805,0.301,1.41,0.301c0.938,0,1.636-0.135,2.095-0.402
		s0.688-0.625,0.688-1.068c0-0.353-0.127-0.604-0.377-0.752c-0.252-0.147-0.719-0.223-1.403-0.223h-1.304
		c-0.493,0-0.885,0.115-1.176,0.348C120.563,181.159,120.417,181.473,120.417,181.869z M121.156,175.131
		c0,0.508,0.13,0.898,0.392,1.172c0.263,0.274,0.636,0.41,1.125,0.41c0.996,0,1.494-0.533,1.494-1.598
		c0-0.527-0.124-0.934-0.37-1.219c-0.247-0.285-0.622-0.43-1.125-0.43c-0.498,0-0.875,0.143-1.131,0.426
		C121.284,174.176,121.156,174.588,121.156,175.131z"/>
	<path fill="#FFFFFF" d="M138.537,177.701c0,0.951-0.344,1.699-1.033,2.24c-0.689,0.543-1.638,0.813-2.85,0.813
		c-1.211,0-2.201-0.188-2.973-0.563v-1.655c0.487,0.229,1.006,0.41,1.557,0.542c0.549,0.132,1.061,0.197,1.533,0.197
		c0.693,0,1.205-0.131,1.535-0.396c0.33-0.264,0.494-0.618,0.494-1.063c0-0.399-0.15-0.739-0.453-1.018
		c-0.304-0.279-0.929-0.607-1.875-0.988c-0.978-0.396-1.666-0.848-2.065-1.354c-0.4-0.507-0.601-1.119-0.601-1.832
		c0-0.894,0.316-1.597,0.951-2.108c0.635-0.513,1.487-0.77,2.557-0.77c1.024,0,2.045,0.225,3.062,0.674l-0.558,1.43
		c-0.951-0.4-1.801-0.603-2.549-0.603c-0.565,0-0.996,0.124-1.289,0.371c-0.293,0.246-0.438,0.571-0.438,0.978
		c0,0.278,0.06,0.518,0.176,0.715c0.117,0.196,0.31,0.385,0.579,0.561s0.752,0.406,1.45,0.695c0.786,0.326,1.362,0.633,1.729,0.916
		c0.366,0.283,0.635,0.603,0.806,0.959C138.453,176.797,138.537,177.218,138.537,177.701z"/>
	<path fill="#FFFFFF" d="M147.611,176.544c0,1.323-0.34,2.356-1.019,3.099c-0.679,0.743-1.624,1.113-2.834,1.113
		c-0.757,0-1.426-0.172-2.007-0.514s-1.027-0.832-1.34-1.473c-0.313-0.64-0.469-1.381-0.469-2.227c0-1.313,0.336-2.339,1.011-3.076
		c0.674-0.736,1.624-1.105,2.849-1.105c1.172,0,2.1,0.377,2.783,1.133C147.27,174.248,147.611,175.266,147.611,176.544z
		 M141.715,176.544c0,1.87,0.691,2.806,2.073,2.806c1.366,0,2.051-0.936,2.051-2.806c0-1.851-0.688-2.776-2.065-2.776
		c-0.723,0-1.246,0.24-1.57,0.719C141.877,174.965,141.715,175.65,141.715,176.544z"/>
	<path fill="#FFFFFF" d="M156.773,176.544c0,1.323-0.338,2.356-1.018,3.099c-0.679,0.743-1.624,1.113-2.834,1.113
		c-0.757,0-1.426-0.172-2.007-0.514s-1.028-0.832-1.34-1.473c-0.312-0.64-0.47-1.381-0.47-2.227c0-1.313,0.338-2.339,1.012-3.076
		c0.674-0.736,1.624-1.105,2.849-1.105c1.173,0,2.101,0.377,2.783,1.133C156.432,174.248,156.773,175.266,156.773,176.544z
		 M150.878,176.544c0,1.87,0.69,2.806,2.073,2.806c1.367,0,2.051-0.936,2.051-2.806c0-1.851-0.688-2.776-2.064-2.776
		c-0.724,0-1.248,0.24-1.571,0.719C151.04,174.965,150.878,175.65,150.878,176.544z"/>
	<path fill="#FFFFFF" d="M165.878,180.609h-1.729v-4.98c0-0.625-0.125-1.092-0.377-1.398c-0.25-0.308-0.649-0.463-1.196-0.463
		c-0.728,0-1.261,0.215-1.597,0.646c-0.338,0.43-0.506,1.149-0.506,2.161v4.035h-1.721v-8.102h1.348l0.242,1.063h0.088
		c0.244-0.385,0.592-0.684,1.041-0.894c0.448-0.21,0.946-0.315,1.493-0.315c1.943,0,2.915,0.99,2.915,2.968L165.878,180.609
		L165.878,180.609z"/>
	<path fill="#FFFFFF" d="M175.188,179.363c0.42,0,0.84-0.065,1.26-0.197v1.297c-0.19,0.082-0.436,0.152-0.736,0.209
		c-0.3,0.055-0.611,0.084-0.934,0.084c-1.631,0-2.446-0.859-2.446-2.578v-4.365h-1.106v-0.762l1.188-0.631l0.586-1.713h1.063v1.801
		h2.307v1.305h-2.307v4.336c0,0.414,0.104,0.722,0.312,0.918C174.578,179.266,174.85,179.363,175.188,179.363z"/>
	<path fill="#FFFFFF" d="M185.25,176.544c0,1.323-0.339,2.356-1.018,3.099c-0.68,0.743-1.625,1.113-2.834,1.113
		c-0.758,0-1.426-0.172-2.008-0.514c-0.58-0.342-1.027-0.832-1.34-1.473c-0.312-0.64-0.469-1.381-0.469-2.227
		c0-1.313,0.337-2.339,1.011-3.076c0.675-0.736,1.624-1.105,2.849-1.105c1.172,0,2.101,0.377,2.783,1.133
		C184.909,174.248,185.25,175.266,185.25,176.544z M179.354,176.544c0,1.87,0.691,2.806,2.073,2.806
		c1.367,0,2.052-0.936,2.052-2.806c0-1.851-0.688-2.776-2.065-2.776c-0.724,0-1.247,0.24-1.571,0.719
		S179.354,175.65,179.354,176.544z"/>
</g>
</svg>
