<?xml version="1.0" encoding="utf-8"?>
<!-- Generator: Adobe Illustrator 16.0.0, SVG Export Plug-In . SVG Version: 6.00 Build 0)  -->
<!DOCTYPE svg PUBLIC "-//W3C//DTD SVG 1.1//EN" "http://www.w3.org/Graphics/SVG/1.1/DTD/svg11.dtd">
<svg version="1.1" id="Google_Play" xmlns="http://www.w3.org/2000/svg" xmlns:xlink="http://www.w3.org/1999/xlink" x="0px"
	 y="0px" width="229.5px" height="238.5px" viewBox="0 0 229.5 238.5" enable-background="new 0 0 229.5 238.5"
	 xml:space="preserve">
<g>
	<path stroke="#FFFFFF" stroke-width="1.5" stroke-miterlimit="10" d="M221.985,71.05c0,6.53-4.797,10.59-11.322,10.59H18.849
		c-6.528,0-11.821-5.297-11.821-11.827V19.856c0-6.529,5.293-11.824,11.821-11.824h191.814c6.525,0,11.322,5.295,11.322,11.824
		V71.05z"/>
	<g>
		<g>
			<path fill="#FFFFFF" d="M153.929,60.867l-1.614,1.522c-0.372,0.205-0.743,0.443-1.113,0.612
				c-1.121,0.509-2.261,0.637-3.274,0.637c-1.078,0-2.768-0.069-4.491-1.316c-2.396-1.688-3.442-4.587-3.442-7.114
				c0-5.232,4.259-7.798,7.732-7.798c1.215,0,2.462,0.304,3.476,0.945c1.686,1.114,2.122,2.563,2.364,3.34l-7.934,3.205
				l-2.598,0.202c0.841,4.289,3.743,6.784,6.95,6.784c1.602,0,2.791-0.522,3.882-1.062
				C153.866,60.825,154.085,60.711,153.929,60.867z M149.143,52.334c0.645-0.234,0.979-0.437,0.979-0.906
				c0-1.348-1.525-2.904-3.345-2.904c-1.349,0-3.879,1.05-3.879,4.695c0,0.569,0.067,1.175,0.102,1.781L149.143,52.334z"/>
			<path fill="#FFFFFF" d="M137.342,60.605c0,1.312,0.234,1.516,1.343,1.618c0.578,0.068,1.154,0.099,1.725,0.166l-1.248,0.743
				h-5.947c0.78-1.012,0.914-1.112,0.914-1.787v-0.753l-0.013-20.063h-2.626l2.527-1.218h4.826
				c-1.046,0.605-1.358,0.975-1.493,2.155L137.342,60.605z"/>
			<path fill="#FFFFFF" d="M128.119,49.066c0.774,0.637,2.392,1.988,2.392,4.553c0,2.499-1.409,3.677-2.83,4.792
				c-0.436,0.438-0.945,0.915-0.945,1.651c0,0.746,0.51,1.151,0.877,1.453l1.219,0.941c1.482,1.251,2.833,2.398,2.833,4.728
				c0,3.175-3.072,6.375-8.877,6.375c-4.89,0-7.254-2.328-7.254-4.825c0-1.216,0.604-2.937,2.601-4.115
				c2.092-1.279,4.927-1.45,6.444-1.55c-0.474-0.612-1.015-1.253-1.015-2.299c0-0.572,0.172-0.913,0.338-1.315
				c-0.369,0.035-0.741,0.071-1.079,0.071c-3.579,0-5.603-2.67-5.603-5.302c0-1.552,0.708-3.273,2.162-4.521
				c1.924-1.584,4.218-1.857,6.041-1.857h6.954l-2.162,1.221H128.119z M125.728,64.047c-0.276-0.036-0.442-0.036-0.776-0.036
				c-0.306,0-2.129,0.066-3.541,0.54c-0.747,0.273-2.906,1.08-2.906,3.478c0,2.392,2.331,4.116,5.938,4.116
				c3.239,0,4.96-1.553,4.96-3.644C129.401,66.78,128.288,65.872,125.728,64.047z M126.698,57.635
				c0.78-0.778,0.848-1.854,0.848-2.466c0-2.427-1.447-6.207-4.252-6.207c-0.875,0-1.823,0.439-2.361,1.118
				c-0.57,0.703-0.741,1.615-0.741,2.492c0,2.26,1.317,6.008,4.217,6.008C125.254,58.58,126.164,58.169,126.698,57.635z"/>
			<path fill="#FFFFFF" d="M107.197,63.569c-5.364,0-8.234-4.178-8.234-7.959c0-4.419,3.608-8.2,8.74-8.2
				c4.961,0,8.068,3.884,8.068,7.962C115.771,59.354,112.7,63.569,107.197,63.569z M111.417,60.839
				c0.816-1.08,1.014-2.428,1.014-3.742c0-2.972-1.416-8.64-5.601-8.64c-1.113,0-2.234,0.435-3.042,1.146
				c-1.318,1.181-1.553,2.664-1.553,4.12c0,3.334,1.647,8.833,5.737,8.833C109.293,62.556,110.64,61.917,111.417,60.839z"/>
			<path fill="#FFFFFF" d="M89.238,63.569c-5.365,0-8.23-4.178-8.23-7.959c0-4.419,3.609-8.2,8.739-8.2
				c4.958,0,8.062,3.884,8.062,7.962C97.809,59.354,94.742,63.569,89.238,63.569z M93.459,60.839c0.81-1.08,1.012-2.428,1.012-3.742
				c0-2.972-1.42-8.64-5.601-8.64c-1.117,0-2.226,0.435-3.036,1.146c-1.32,1.181-1.554,2.664-1.554,4.12
				c0,3.334,1.654,8.833,5.737,8.833C91.335,62.556,92.68,61.917,93.459,60.839z"/>
			<path fill="#FFFFFF" d="M78.863,62.398l-4.524,1.035c-1.833,0.289-3.479,0.544-5.222,0.544c-8.727,0-12.051-6.424-12.051-11.45
				c0-6.14,4.711-11.831,12.778-11.831c1.707,0,3.35,0.251,4.846,0.658c2.371,0.667,3.479,1.487,4.173,1.969l-2.628,2.496
				l-1.108,0.248l0.79-1.26c-1.07-1.045-3.037-2.974-6.77-2.974c-4.991,0-8.757,3.794-8.757,9.333c0,5.949,4.3,11.545,11.194,11.545
				c2.026,0,3.069-0.407,4.016-0.787v-5.1l-4.776,0.257l2.532-1.36h6.703l-0.819,0.789c-0.222,0.188-0.251,0.252-0.313,0.504
				c-0.033,0.288-0.063,1.204-0.063,1.526V62.398z"/>
		</g>
		<g>
			<path fill="#FFFFFF" d="M163.656,61.011v8.596h-1.707V47.735h1.707v2.49c1.111-1.609,3.144-2.886,5.504-2.886
				c4.232,0,7.084,3.211,7.084,8.294c0,5.049-2.852,8.327-7.084,8.327C166.932,63.961,164.937,62.813,163.656,61.011z
				 M174.41,55.634c0-3.831-1.997-6.753-5.538-6.753c-2.199,0-4.302,1.729-5.216,3.235v7.001c0.914,1.51,3.017,3.301,5.216,3.301
				C172.413,62.418,174.41,59.471,174.41,55.634z"/>
			<path fill="#FFFFFF" d="M178.575,63.567V41.696h1.706v21.871H178.575z"/>
			<path fill="#FFFFFF" d="M199.436,68.192c0.364,0.162,0.987,0.263,1.383,0.263c1.044,0,1.771-0.427,2.424-1.936l1.245-2.82
				l-6.725-15.964h1.904l5.769,13.834l5.712-13.834h1.931l-8.201,19.313c-0.851,1.99-2.189,2.947-4.029,2.947
				c-0.552,0-1.279-0.099-1.706-0.229L199.436,68.192z"/>
			<path fill="#FFFFFF" d="M194.449,63.52c-0.114-0.549-0.2-1.032-0.263-1.437c-0.053-0.403-0.082-0.815-0.082-1.234
				c-0.586,0.859-1.415,1.574-2.474,2.138c-1.06,0.566-2.066,0.845-3.448,0.845c-1.663,0-2.953-0.409-3.875-1.239
				c-0.918-0.829-1.38-1.952-1.38-3.373c0-1.419,0.669-2.571,2.003-3.452c1.334-0.885,3.059-1.324,5.192-1.324h3.981v-1.968
				c0-1.133-0.387-2.023-1.157-2.67c-0.774-0.646-1.86-0.974-3.269-0.974c-1.287,0-2.331,0.299-3.126,0.881
				c-0.788,0.594-1.185,1.33-1.185,2.217h-1.747l-0.036-0.085c-0.063-1.195,0.484-2.245,1.647-3.15
				c1.157-0.905,2.675-1.36,4.542-1.36c1.86,0,3.366,0.448,4.502,1.342c1.134,0.885,1.703,2.164,1.703,3.836v7.811
				c0,0.561,0.026,1.103,0.097,1.631c0.072,0.529,0.187,1.057,0.34,1.567H194.449z M188.392,62.276c1.45,0,2.492-0.324,3.558-0.965
				c1.058-0.638,1.777-1.469,2.155-2.475v-3.04h-4c-1.528,0-2.793,0.338-3.788,1.021c-0.997,0.68-1.503,1.503-1.503,2.46
				c0,0.902,0.32,1.625,0.957,2.172C186.408,62.002,187.28,62.276,188.392,62.276z"/>
		</g>
	</g>
	<g>
		<polygon fill="none" points="34.776,54.742 40.252,49.266 40.25,49.266 34.776,54.742 17.299,37.267 17.298,37.267 34.776,54.745 
			17.271,72.251 17.271,72.251 34.776,54.745 40.276,60.245 40.279,60.245 		"/>
		
			<linearGradient id="SVGID_1_" gradientUnits="userSpaceOnUse" x1="519.5732" y1="-432.998" x2="496.4961" y2="-447.4407" gradientTransform="matrix(0.7071 0.7071 -0.7071 0.7071 -642.4706 -7.8795)">
			<stop  offset="0" style="stop-color:#D6FFA1"/>
			<stop  offset="0.3264" style="stop-color:#93E2A7"/>
			<stop  offset="1" style="stop-color:#00A3B5"/>
		</linearGradient>
		<path fill="url(#SVGID_1_)" d="M40.25,49.266L18.914,37.534c-0.604-0.331-1.163-0.408-1.615-0.268l17.478,17.476L40.25,49.266z"/>
		
			<linearGradient id="SVGID_2_" gradientUnits="userSpaceOnUse" x1="506.1553" y1="-445.335" x2="536.0762" y2="-437.5133" gradientTransform="matrix(0.7071 0.7071 -0.7071 0.7071 -642.4706 -7.8795)">
			<stop  offset="0" style="stop-color:#FF177B"/>
			<stop  offset="0.6721" style="stop-color:#FFA976"/>
			<stop  offset="1" style="stop-color:#FFEC73"/>
		</linearGradient>
		<path fill="url(#SVGID_2_)" d="M40.279,60.245l7.283-4.005c1.477-0.815,1.477-2.142,0-2.954l-7.311-4.021l-5.476,5.477
			L40.279,60.245z"/>
		
			<linearGradient id="SVGID_3_" gradientUnits="userSpaceOnUse" x1="522.8574" y1="-422.0444" x2="490.413" y2="-441.1328" gradientTransform="matrix(0.7071 0.7071 -0.7071 0.7071 -642.4706 -7.8795)">
			<stop  offset="0" style="stop-color:#63FFD4"/>
			<stop  offset="0.4854" style="stop-color:#32A0BA"/>
			<stop  offset="0.8349" style="stop-color:#1262A9"/>
			<stop  offset="1" style="stop-color:#064AA2"/>
		</linearGradient>
		<path fill="url(#SVGID_3_)" d="M17.298,37.267c-0.649,0.203-1.069,0.86-1.069,1.854l0.004,31.284c0,0.982,0.407,1.63,1.038,1.846
			l17.506-17.506L17.298,37.267z"/>
		
			<linearGradient id="SVGID_4_" gradientUnits="userSpaceOnUse" x1="534.6367" y1="-437.1992" x2="514.66" y2="-410.8809" gradientTransform="matrix(0.7071 0.7071 -0.7071 0.7071 -642.4706 -7.8795)">
			<stop  offset="0" style="stop-color:#FF4521"/>
			<stop  offset="0.3411" style="stop-color:#D43E65"/>
			<stop  offset="0.7935" style="stop-color:#9F36B9"/>
			<stop  offset="1" style="stop-color:#8A33DB"/>
		</linearGradient>
		<path fill="url(#SVGID_4_)" d="M17.271,72.251c0.454,0.154,1.024,0.082,1.643-0.258l21.363-11.748l-5.5-5.5L17.271,72.251z"/>
	</g>
	<g>
		<g>
			<path fill="#FFFFFF" d="M57.024,23.755c0-3.361,2.497-5.522,5.603-5.522c2.081,0,3.441,0.992,4.29,2.209l-1.521,0.881
				c-0.576-0.801-1.585-1.425-2.77-1.425c-2.112,0-3.682,1.601-3.682,3.857c0,2.225,1.569,3.857,3.682,3.857
				c1.089,0,2.049-0.496,2.529-0.96v-1.649h-3.201v-1.648h5.058v3.985c-1.04,1.169-2.545,1.953-4.386,1.953
				C59.521,29.293,57.024,27.101,57.024,23.755z"/>
			<path fill="#FFFFFF" d="M69.329,29.085V18.408h7.314v1.649h-5.442v2.753h5.331v1.648h-5.331v2.978h5.442v1.648H69.329z"/>
			<path fill="#FFFFFF" d="M81.826,29.085v-9.027h-3.233v-1.649h8.339v1.649h-3.232v9.027H81.826z"/>
			<path fill="#FFFFFF" d="M93.441,29.085V18.408h1.872v10.677H93.441z"/>
			<path fill="#FFFFFF" d="M100.529,29.085v-9.027h-3.233v-1.649h8.339v1.649h-3.232v9.027H100.529z"/>
			<path fill="#FFFFFF" d="M111.68,23.755c0-3.186,2.257-5.522,5.459-5.522c3.185,0,5.458,2.337,5.458,5.522
				s-2.273,5.522-5.458,5.522C113.937,29.277,111.68,26.94,111.68,23.755z M120.676,23.755c0-2.209-1.393-3.857-3.537-3.857
				c-2.161,0-3.538,1.648-3.538,3.857c0,2.192,1.377,3.857,3.538,3.857C119.283,27.612,120.676,25.947,120.676,23.755z"/>
			<path fill="#FFFFFF" d="M132.227,29.085l-5.57-7.635v7.635h-1.872V18.408h1.921l5.458,7.396v-7.396h1.873v10.677H132.227z"/>
		</g>
	</g>
</g>
<g>
	<path stroke="#FFFFFF" stroke-width="1.5" stroke-miterlimit="10" d="M221.985,218.05c0,6.53-4.797,10.59-11.322,10.59H18.849
		c-6.528,0-11.821-5.297-11.821-11.827v-49.956c0-6.529,5.293-11.824,11.821-11.824h191.814c6.525,0,11.322,5.295,11.322,11.824
		V218.05z"/>
	<g>
		<g>
			<g>
				<path fill="#FFFFFF" d="M49.635,190.914c-0.051-5.738,4.697-8.528,4.915-8.658c-2.69-3.922-6.858-4.458-8.324-4.5
					c-3.501-0.367-6.897,2.094-8.682,2.094c-1.818,0-4.565-2.059-7.525-1.999c-3.81,0.059-7.374,2.265-9.327,5.69
					c-4.034,6.982-1.026,17.244,2.838,22.89c1.934,2.766,4.192,5.851,7.149,5.741c2.892-0.118,3.973-1.844,7.463-1.844
					c3.459,0,4.474,1.844,7.488,1.773c3.105-0.048,5.06-2.775,6.925-5.564c2.233-3.17,3.13-6.29,3.166-6.451
					C55.649,200.062,49.693,197.788,49.635,190.914z"/>
				<path fill="#FFFFFF" d="M43.939,174.043c1.555-1.945,2.619-4.592,2.324-7.279c-2.251,0.102-5.067,1.559-6.688,3.461
					c-1.435,1.677-2.716,4.424-2.385,7.011C39.719,177.422,42.314,175.957,43.939,174.043z"/>
			</g>
		</g>
		<g>
			<path fill="#FFFFFF" d="M91.495,211.775h-4.043l-2.214-6.957h-7.697l-2.11,6.957h-3.935l7.625-23.689h4.708L91.495,211.775z
				 M84.57,201.898l-2.002-6.186c-0.211-0.632-0.609-2.121-1.194-4.464h-0.071c-0.233,1.009-0.608,2.497-1.124,4.464l-1.967,6.186
				H84.57z"/>
			<path fill="#FFFFFF" d="M111.104,203.024c0,2.905-0.784,5.201-2.355,6.888c-1.405,1.5-3.151,2.25-5.236,2.25
				c-2.25,0-3.866-0.809-4.851-2.425h-0.071v8.998h-3.795v-18.419c0-1.827-0.048-3.7-0.141-5.621h3.338l0.212,2.707h0.071
				c1.266-2.041,3.187-3.059,5.764-3.059c2.016,0,3.697,0.796,5.043,2.388C110.433,198.327,111.104,200.425,111.104,203.024z
				 M107.239,203.163c0-1.661-0.375-3.032-1.125-4.113c-0.82-1.123-1.922-1.686-3.303-1.686c-0.936,0-1.787,0.313-2.547,0.932
				c-0.762,0.622-1.26,1.437-1.494,2.443c-0.117,0.47-0.176,0.854-0.176,1.157v2.85c0,1.24,0.382,2.289,1.143,3.146
				c0.763,0.855,1.752,1.283,2.97,1.283c1.43,0,2.542-0.552,3.337-1.65C106.841,206.421,107.239,204.968,107.239,203.163z"/>
			<path fill="#FFFFFF" d="M130.752,203.024c0,2.905-0.787,5.201-2.357,6.888c-1.406,1.5-3.152,2.25-5.236,2.25
				c-2.25,0-3.867-0.809-4.848-2.425h-0.07v8.998h-3.795v-18.419c0-1.827-0.049-3.7-0.143-5.621h3.336l0.213,2.707h0.074
				c1.262-2.041,3.186-3.059,5.76-3.059c2.014,0,3.695,0.796,5.045,2.388C130.076,198.327,130.752,200.425,130.752,203.024z
				 M126.885,203.163c0-1.661-0.377-3.032-1.127-4.113c-0.82-1.123-1.918-1.686-3.303-1.686c-0.938,0-1.787,0.313-2.547,0.932
				c-0.762,0.622-1.26,1.437-1.492,2.443c-0.115,0.47-0.176,0.854-0.176,1.157v2.85c0,1.24,0.381,2.289,1.139,3.146
				c0.762,0.854,1.752,1.283,2.973,1.283c1.428,0,2.541-0.552,3.338-1.65C126.484,206.421,126.885,204.968,126.885,203.163z"/>
			<path fill="#FFFFFF" d="M152.717,205.132c0,2.017-0.699,3.656-2.104,4.921c-1.545,1.381-3.693,2.073-6.453,2.073
				c-2.549,0-4.592-0.492-6.141-1.476l0.881-3.164c1.664,1.01,3.492,1.516,5.486,1.516c1.428,0,2.539-0.323,3.34-0.972
				c0.797-0.644,1.193-1.509,1.193-2.586c0-0.961-0.328-1.771-0.984-2.43c-0.652-0.656-1.746-1.267-3.27-1.829
				c-4.146-1.548-6.217-3.813-6.217-6.793c0-1.946,0.725-3.545,2.178-4.787c1.451-1.244,3.385-1.866,5.801-1.866
				c2.154,0,3.945,0.376,5.373,1.126l-0.945,3.094c-1.334-0.728-2.846-1.09-4.537-1.09c-1.334,0-2.377,0.327-3.125,0.984
				c-0.629,0.584-0.945,1.299-0.945,2.146c0,0.935,0.357,1.709,1.084,2.318c0.633,0.561,1.781,1.172,3.449,1.829
				c2.037,0.819,3.533,1.779,4.496,2.877C152.234,202.122,152.717,203.494,152.717,205.132z"/>
			<path fill="#FFFFFF" d="M165.264,197.541h-4.182v8.296c0,2.107,0.736,3.162,2.213,3.162c0.678,0,1.242-0.06,1.686-0.178
				l0.105,2.884c-0.748,0.278-1.732,0.42-2.953,0.42c-1.498,0-2.67-0.458-3.514-1.372c-0.842-0.914-1.266-2.447-1.266-4.605v-8.609
				h-2.492v-2.848h2.492v-3.128l3.729-1.122v4.25h4.182V197.541z"/>
			<path fill="#FFFFFF" d="M184.137,203.093c0,2.626-0.75,4.782-2.25,6.469c-1.57,1.733-3.656,2.601-6.256,2.601
				c-2.506,0-4.502-0.831-5.99-2.493c-1.49-1.665-2.232-3.763-2.232-6.292c0-2.647,0.764-4.815,2.301-6.501
				c1.531-1.688,3.6-2.53,6.199-2.53c2.506,0,4.523,0.832,6.047,2.495C183.41,198.456,184.137,200.538,184.137,203.093z
				 M180.197,203.215c0-1.574-0.332-2.925-1.014-4.051c-0.797-1.365-1.938-2.043-3.408-2.043c-1.525,0-2.686,0.682-3.479,2.043
				c-0.686,1.129-1.02,2.501-1.02,4.123c0,1.577,0.334,2.929,1.02,4.053c0.82,1.362,1.963,2.043,3.445,2.043
				c1.449,0,2.586-0.694,3.406-2.079C179.848,206.157,180.197,204.792,180.197,203.215z"/>
			<path fill="#FFFFFF" d="M196.471,198.032c-0.373-0.069-0.773-0.105-1.193-0.105c-1.336,0-2.369,0.503-3.096,1.514
				c-0.633,0.89-0.949,2.014-0.949,3.372v8.963h-3.793l0.035-11.703c0-1.967-0.045-3.762-0.143-5.375h3.307l0.139,3.267h0.104
				c0.404-1.123,1.033-2.028,1.9-2.706c0.844-0.611,1.758-0.914,2.742-0.914c0.35,0,0.668,0.023,0.947,0.069V198.032z"/>
			<path fill="#FFFFFF" d="M213.445,202.426c0,0.681-0.047,1.254-0.139,1.723H201.92c0.045,1.688,0.596,2.979,1.65,3.869
				c0.961,0.794,2.201,1.19,3.727,1.19c1.684,0,3.225-0.268,4.607-0.806l0.594,2.635c-1.615,0.704-3.525,1.055-5.725,1.055
				c-2.648,0-4.729-0.779-6.244-2.336c-1.51-1.558-2.264-3.65-2.264-6.273c0-2.575,0.703-4.72,2.111-6.431
				c1.475-1.827,3.465-2.739,5.973-2.739c2.461,0,4.322,0.912,5.59,2.739C212.941,198.502,213.445,200.296,213.445,202.426z
				 M209.826,201.443c0.025-1.127-0.225-2.098-0.738-2.918c-0.656-1.058-1.664-1.583-3.023-1.583c-1.242,0-2.25,0.515-3.021,1.546
				c-0.629,0.821-1.004,1.808-1.123,2.952h7.906V201.443z"/>
		</g>
		<g>
			<g>
				<path fill="#FFFFFF" d="M83.315,173.514c0,2.094-0.628,3.674-1.882,4.732c-1.163,0.977-2.814,1.467-4.955,1.467
					c-1.061,0-1.968-0.047-2.729-0.14v-11.446c0.992-0.16,2.06-0.244,3.213-0.244c2.039,0,3.574,0.443,4.61,1.331
					C82.734,170.216,83.315,171.648,83.315,173.514z M81.349,173.564c0-1.357-0.359-2.399-1.079-3.125
					c-0.719-0.725-1.769-1.088-3.153-1.088c-0.587,0-1.087,0.041-1.501,0.122v8.702c0.229,0.036,0.648,0.052,1.26,0.052
					c1.428,0,2.53-0.397,3.306-1.19C80.958,176.242,81.349,175.086,81.349,173.564z"/>
				<path fill="#FFFFFF" d="M93.745,175.344c0,1.289-0.368,2.348-1.105,3.178c-0.773,0.852-1.796,1.278-3.075,1.278
					c-1.231,0-2.212-0.409-2.944-1.226c-0.729-0.818-1.095-1.85-1.095-3.091c0-1.3,0.376-2.366,1.13-3.194
					c0.755-0.829,1.77-1.242,3.049-1.242c1.231,0,2.221,0.406,2.97,1.225C93.387,173.064,93.745,174.092,93.745,175.344z
					 M91.81,175.402c0-0.773-0.167-1.436-0.5-1.99c-0.392-0.669-0.948-1.002-1.672-1.002c-0.75,0-1.321,0.333-1.712,1.002
					c-0.334,0.555-0.5,1.23-0.5,2.025c0,0.775,0.167,1.44,0.5,1.993c0.404,0.669,0.967,1.005,1.692,1.005
					c0.713,0,1.272-0.343,1.673-1.021C91.638,176.848,91.81,176.178,91.81,175.402z"/>
				<path fill="#FFFFFF" d="M107.729,171.218l-2.625,8.392h-1.709l-1.087-3.646c-0.276-0.909-0.5-1.813-0.675-2.71h-0.034
					c-0.162,0.922-0.386,1.825-0.674,2.71l-1.155,3.646H98.04l-2.468-8.392h1.917l0.948,3.987c0.23,0.945,0.418,1.844,0.57,2.694
					h0.033c0.139-0.7,0.369-1.595,0.693-2.677l1.191-4.004h1.52l1.142,3.92c0.275,0.957,0.5,1.877,0.672,2.764h0.052
					c0.126-0.863,0.316-1.783,0.569-2.764l1.018-3.92L107.729,171.218L107.729,171.218z"/>
				<path fill="#FFFFFF" d="M117.4,179.609h-1.867v-4.809c0-1.48-0.563-2.221-1.689-2.221c-0.553,0-1.001,0.205-1.349,0.611
					c-0.345,0.407-0.518,0.889-0.518,1.438v4.978h-1.867v-5.991c0-0.736-0.021-1.535-0.067-2.402h1.642l0.086,1.313h0.052
					c0.215-0.408,0.539-0.745,0.967-1.014c0.504-0.313,1.07-0.472,1.689-0.472c0.783,0,1.436,0.253,1.953,0.76
					c0.643,0.623,0.967,1.55,0.967,2.782V179.609z"/>
				<path fill="#FFFFFF" d="M122.543,179.609h-1.863v-12.24h1.863V179.609z"/>
				<path fill="#FFFFFF" d="M133.525,175.344c0,1.289-0.369,2.348-1.105,3.178c-0.771,0.852-1.797,1.278-3.074,1.278
					c-1.234,0-2.213-0.409-2.945-1.226c-0.729-0.818-1.096-1.85-1.096-3.091c0-1.3,0.377-2.366,1.131-3.194
					c0.758-0.829,1.771-1.242,3.045-1.242c1.236,0,2.223,0.406,2.977,1.225C133.168,173.064,133.525,174.092,133.525,175.344z
					 M131.59,175.402c0-0.773-0.166-1.436-0.502-1.99c-0.389-0.669-0.947-1.002-1.668-1.002c-0.754,0-1.32,0.333-1.715,1.002
					c-0.334,0.555-0.498,1.23-0.498,2.025c0,0.775,0.168,1.44,0.498,1.993c0.406,0.669,0.971,1.005,1.693,1.005
					c0.713,0,1.271-0.343,1.674-1.021C131.42,176.848,131.59,176.178,131.59,175.402z"/>
				<path fill="#FFFFFF" d="M142.553,179.609h-1.674l-0.141-0.966h-0.047c-0.576,0.77-1.393,1.156-2.455,1.156
					c-0.789,0-1.432-0.256-1.912-0.761c-0.439-0.459-0.658-1.03-0.658-1.71c0-1.024,0.428-1.804,1.287-2.347
					c0.859-0.541,2.064-0.807,3.619-0.793v-0.158c0-1.104-0.58-1.655-1.746-1.655c-0.826,0-1.557,0.208-2.188,0.619l-0.377-1.223
					c0.777-0.485,1.74-0.726,2.879-0.726c2.193,0,3.291,1.158,3.291,3.472v3.089C142.432,178.447,142.475,179.115,142.553,179.609z
					 M140.617,176.725v-1.294c-2.059-0.034-3.086,0.528-3.086,1.692c0,0.438,0.117,0.765,0.357,0.982
					c0.24,0.221,0.545,0.33,0.91,0.33c0.41,0,0.793-0.131,1.141-0.391c0.352-0.259,0.566-0.587,0.646-0.992
					C140.607,176.961,140.617,176.852,140.617,176.725z"/>
				<path fill="#FFFFFF" d="M153.154,179.609H151.5l-0.088-1.348h-0.051c-0.529,1.024-1.43,1.538-2.697,1.538
					c-1.012,0-1.852-0.397-2.52-1.19c-0.668-0.795-1-1.825-1-3.092c0-1.357,0.359-2.458,1.088-3.297
					c0.703-0.785,1.564-1.176,2.59-1.176c1.127,0,1.916,0.379,2.363,1.139h0.037v-4.814h1.865v9.979
					C153.088,178.165,153.109,178.918,153.154,179.609z M151.223,176.07v-1.4c0-0.24-0.02-0.437-0.053-0.586
					c-0.105-0.448-0.332-0.825-0.676-1.131c-0.348-0.305-0.764-0.456-1.248-0.456c-0.695,0-1.24,0.274-1.641,0.827
					c-0.396,0.555-0.6,1.262-0.6,2.124c0,0.831,0.191,1.502,0.574,2.02c0.404,0.554,0.949,0.829,1.633,0.829
					c0.609,0,1.102-0.23,1.475-0.689C151.045,177.18,151.223,176.668,151.223,176.07z"/>
				<path fill="#FFFFFF" d="M169.107,175.344c0,1.289-0.369,2.348-1.105,3.178c-0.771,0.852-1.795,1.278-3.074,1.278
					c-1.23,0-2.209-0.409-2.943-1.226c-0.73-0.818-1.096-1.85-1.096-3.091c0-1.3,0.375-2.366,1.131-3.194
					c0.754-0.829,1.77-1.242,3.047-1.242c1.232,0,2.223,0.406,2.971,1.225C168.75,173.064,169.107,174.092,169.107,175.344z
					 M167.176,175.402c0-0.773-0.168-1.436-0.502-1.99c-0.391-0.669-0.949-1.002-1.676-1.002c-0.746,0-1.313,0.333-1.709,1.002
					c-0.336,0.555-0.498,1.23-0.498,2.025c0,0.775,0.168,1.44,0.498,1.993c0.406,0.669,0.965,1.005,1.691,1.005
					c0.715,0,1.273-0.343,1.676-1.021C167.002,176.848,167.176,176.178,167.176,175.402z"/>
				<path fill="#FFFFFF" d="M179.137,179.609h-1.861v-4.809c0-1.48-0.564-2.221-1.693-2.221c-0.553,0-1,0.205-1.346,0.611
					c-0.344,0.407-0.52,0.889-0.52,1.438v4.978h-1.867v-5.991c0-0.736-0.02-1.535-0.064-2.402h1.637l0.088,1.313h0.051
					c0.219-0.408,0.543-0.745,0.967-1.014c0.508-0.313,1.07-0.472,1.695-0.472c0.781,0,1.43,0.253,1.949,0.76
					c0.645,0.623,0.965,1.55,0.965,2.782V179.609z"/>
				<path fill="#FFFFFF" d="M191.691,172.615h-2.053v4.077c0,1.036,0.363,1.554,1.086,1.554c0.336,0,0.613-0.029,0.832-0.088
					l0.049,1.415c-0.369,0.14-0.854,0.209-1.447,0.209c-0.736,0-1.311-0.224-1.729-0.673c-0.412-0.448-0.621-1.203-0.621-2.264
					v-4.23h-1.227v-1.397h1.227v-1.538l1.828-0.551v2.086h2.055V172.615L191.691,172.615z"/>
				<path fill="#FFFFFF" d="M201.57,179.609h-1.867v-4.771c0-1.504-0.564-2.258-1.689-2.258c-0.865,0-1.459,0.438-1.781,1.309
					c-0.057,0.184-0.088,0.408-0.088,0.672v5.046h-1.861v-12.237h1.861v5.055h0.035c0.588-0.92,1.43-1.379,2.52-1.379
					c0.773,0,1.412,0.252,1.92,0.761c0.635,0.632,0.951,1.569,0.951,2.813V179.609z"/>
				<path fill="#FFFFFF" d="M211.756,175.018c0,0.334-0.025,0.614-0.07,0.844h-5.594c0.023,0.831,0.291,1.461,0.811,1.899
					c0.471,0.392,1.084,0.587,1.832,0.587c0.826,0,1.58-0.131,2.258-0.396l0.293,1.298c-0.791,0.343-1.73,0.517-2.814,0.517
					c-1.297,0-2.324-0.381-3.064-1.148c-0.744-0.767-1.113-1.791-1.113-3.082c0-1.266,0.346-2.319,1.037-3.158
					c0.725-0.896,1.699-1.346,2.934-1.346c1.205,0,2.125,0.449,2.744,1.346C211.508,173.088,211.756,173.971,211.756,175.018z
					 M209.975,174.533c0.014-0.553-0.109-1.029-0.361-1.432c-0.322-0.518-0.818-0.778-1.486-0.778c-0.605,0-1.104,0.253-1.482,0.761
					c-0.311,0.404-0.494,0.887-0.553,1.449H209.975z"/>
			</g>
		</g>
	</g>
</g>
</svg>
