<?xml version="1.0" encoding="utf-8"?>
<!-- Generator: Adobe Illustrator 16.0.0, SVG Export Plug-In . SVG Version: 6.00 Build 0)  -->
<!DOCTYPE svg PUBLIC "-//W3C//DTD SVG 1.1//EN" "http://www.w3.org/Graphics/SVG/1.1/DTD/svg11.dtd">
<svg version="1.1" id="Google_Play" xmlns="http://www.w3.org/2000/svg" xmlns:xlink="http://www.w3.org/1999/xlink" x="0px"
	 y="0px" width="229.5px" height="238.5px" viewBox="-249.5 0 229.5 238.5" enable-background="new -249.5 0 229.5 238.5"
	 xml:space="preserve">
<g>
	<path stroke="#FFFFFF" stroke-width="1.5" stroke-miterlimit="10" d="M-27.516,71.05c0,6.53-4.797,10.59-11.321,10.59h-191.814
		c-6.528,0-11.821-5.297-11.821-11.827V19.856c0-6.529,5.293-11.824,11.821-11.824h191.814c6.524,0,11.321,5.295,11.321,11.824
		V71.05z"/>
	<g>
		<g>
			<path fill="#FFFFFF" d="M-95.57,60.867l-1.615,1.522c-0.371,0.205-0.742,0.443-1.112,0.612c-1.121,0.509-2.261,0.637-3.274,0.637
				c-1.078,0-2.768-0.069-4.49-1.316c-2.396-1.688-3.442-4.587-3.442-7.114c0-5.232,4.259-7.798,7.731-7.798
				c1.215,0,2.463,0.304,3.477,0.945c1.686,1.114,2.122,2.563,2.363,3.34l-7.934,3.205l-2.598,0.202
				c0.841,4.289,3.742,6.784,6.949,6.784c1.603,0,2.791-0.521,3.883-1.062C-95.634,60.825-95.415,60.711-95.57,60.867z
				 M-100.357,52.334c0.646-0.234,0.979-0.437,0.979-0.906c0-1.348-1.524-2.904-3.345-2.904c-1.35,0-3.879,1.05-3.879,4.695
				c0,0.569,0.066,1.175,0.102,1.781L-100.357,52.334z"/>
			<path fill="#FFFFFF" d="M-112.158,60.605c0,1.312,0.234,1.516,1.344,1.618c0.578,0.068,1.153,0.099,1.725,0.166l-1.248,0.743
				h-5.947c0.78-1.012,0.914-1.112,0.914-1.787v-0.753l-0.013-20.063h-2.626l2.527-1.218h4.825
				c-1.046,0.605-1.358,0.975-1.493,2.155L-112.158,60.605z"/>
			<path fill="#FFFFFF" d="M-121.381,49.066c0.773,0.637,2.393,1.988,2.393,4.553c0,2.499-1.41,3.677-2.83,4.792
				c-0.437,0.438-0.945,0.915-0.945,1.651c0,0.746,0.51,1.151,0.877,1.453l1.219,0.941c1.482,1.251,2.833,2.398,2.833,4.728
				c0,3.175-3.072,6.375-8.877,6.375c-4.89,0-7.254-2.328-7.254-4.825c0-1.216,0.604-2.937,2.601-4.115
				c2.092-1.279,4.928-1.45,6.444-1.55c-0.474-0.612-1.015-1.253-1.015-2.299c0-0.572,0.172-0.913,0.338-1.315
				c-0.369,0.035-0.741,0.071-1.08,0.071c-3.578,0-5.602-2.67-5.602-5.302c0-1.552,0.707-3.273,2.161-4.521
				c1.925-1.584,4.218-1.857,6.041-1.857h6.954l-2.162,1.221L-121.381,49.066L-121.381,49.066z M-123.771,64.047
				c-0.276-0.036-0.442-0.036-0.776-0.036c-0.306,0-2.129,0.066-3.541,0.54c-0.747,0.273-2.906,1.08-2.906,3.478
				c0,2.392,2.331,4.116,5.938,4.116c3.238,0,4.959-1.553,4.959-3.644C-120.1,66.78-121.212,65.872-123.771,64.047z
				 M-122.802,57.635c0.78-0.778,0.848-1.854,0.848-2.466c0-2.427-1.446-6.207-4.252-6.207c-0.875,0-1.823,0.439-2.36,1.118
				c-0.57,0.703-0.742,1.615-0.742,2.492c0,2.26,1.317,6.008,4.218,6.008C-124.246,58.58-123.336,58.169-122.802,57.635z"/>
			<path fill="#FFFFFF" d="M-142.303,63.569c-5.364,0-8.234-4.178-8.234-7.959c0-4.419,3.608-8.2,8.74-8.2
				c4.961,0,8.068,3.884,8.068,7.962C-133.729,59.354-136.8,63.569-142.303,63.569z M-138.083,60.839
				c0.816-1.08,1.014-2.428,1.014-3.742c0-2.972-1.416-8.64-5.601-8.64c-1.113,0-2.234,0.435-3.042,1.146
				c-1.318,1.181-1.553,2.664-1.553,4.12c0,3.334,1.647,8.833,5.737,8.833C-140.207,62.556-138.86,61.917-138.083,60.839z"/>
			<path fill="#FFFFFF" d="M-160.262,63.569c-5.365,0-8.23-4.178-8.23-7.959c0-4.419,3.609-8.2,8.739-8.2
				c4.958,0,8.062,3.884,8.062,7.962C-151.691,59.354-154.758,63.569-160.262,63.569z M-156.041,60.839
				c0.81-1.08,1.012-2.428,1.012-3.742c0-2.972-1.42-8.64-5.601-8.64c-1.117,0-2.226,0.435-3.036,1.146
				c-1.32,1.181-1.554,2.664-1.554,4.12c0,3.334,1.654,8.833,5.737,8.833C-158.165,62.556-156.82,61.917-156.041,60.839z"/>
			<path fill="#FFFFFF" d="M-170.637,62.398l-4.524,1.035c-1.833,0.289-3.479,0.544-5.222,0.544c-8.727,0-12.051-6.424-12.051-11.45
				c0-6.14,4.711-11.831,12.778-11.831c1.707,0,3.35,0.251,4.846,0.658c2.371,0.667,3.479,1.487,4.173,1.969l-2.628,2.496
				l-1.108,0.248l0.79-1.26c-1.07-1.045-3.037-2.974-6.77-2.974c-4.991,0-8.757,3.794-8.757,9.333c0,5.949,4.3,11.545,11.194,11.545
				c2.026,0,3.069-0.407,4.016-0.787v-5.1l-4.776,0.257l2.532-1.36h6.703l-0.819,0.789c-0.222,0.188-0.251,0.252-0.313,0.504
				c-0.033,0.288-0.063,1.204-0.063,1.526L-170.637,62.398L-170.637,62.398z"/>
		</g>
		<g>
			<path fill="#FFFFFF" d="M-85.844,61.011v8.596h-1.707V47.735h1.707v2.49c1.111-1.609,3.144-2.886,5.504-2.886
				c4.232,0,7.084,3.211,7.084,8.294c0,5.049-2.852,8.327-7.084,8.327C-82.568,63.961-84.563,62.813-85.844,61.011z M-75.09,55.634
				c0-3.831-1.997-6.753-5.538-6.753c-2.199,0-4.302,1.729-5.216,3.235v7.001c0.914,1.51,3.017,3.301,5.216,3.301
				C-77.087,62.418-75.09,59.471-75.09,55.634z"/>
			<path fill="#FFFFFF" d="M-70.925,63.567V41.696h1.706v21.871H-70.925z"/>
			<path fill="#FFFFFF" d="M-50.064,68.192c0.364,0.162,0.987,0.263,1.383,0.263c1.045,0,1.771-0.427,2.425-1.936l1.245-2.82
				l-6.725-15.964h1.903l5.769,13.834l5.713-13.834h1.931l-8.201,19.313c-0.851,1.99-2.188,2.947-4.028,2.947
				c-0.553,0-1.279-0.099-1.707-0.229L-50.064,68.192z"/>
			<path fill="#FFFFFF" d="M-55.051,63.52c-0.114-0.549-0.2-1.032-0.264-1.437c-0.053-0.403-0.082-0.815-0.082-1.234
				c-0.586,0.859-1.414,1.574-2.474,2.138c-1.06,0.566-2.065,0.845-3.448,0.845c-1.662,0-2.953-0.409-3.875-1.239
				c-0.918-0.829-1.38-1.952-1.38-3.373c0-1.419,0.669-2.571,2.003-3.452c1.334-0.885,3.06-1.324,5.192-1.324h3.981v-1.968
				c0-1.133-0.388-2.023-1.158-2.67c-0.773-0.646-1.859-0.974-3.268-0.974c-1.287,0-2.332,0.299-3.127,0.881
				c-0.787,0.594-1.185,1.33-1.185,2.217h-1.747l-0.036-0.085c-0.063-1.195,0.483-2.245,1.647-3.15
				c1.156-0.905,2.675-1.36,4.541-1.36c1.86,0,3.367,0.448,4.502,1.342c1.135,0.885,1.703,2.164,1.703,3.836v7.811
				c0,0.561,0.026,1.103,0.098,1.631c0.072,0.529,0.188,1.057,0.34,1.567h-1.965V63.52z M-61.107,62.276
				c1.449,0,2.491-0.324,3.558-0.965c1.058-0.638,1.776-1.469,2.155-2.475v-3.04h-4c-1.528,0-2.793,0.338-3.789,1.021
				c-0.996,0.68-1.502,1.503-1.502,2.46c0,0.902,0.319,1.625,0.957,2.172C-63.092,62.002-62.221,62.276-61.107,62.276z"/>
		</g>
	</g>
	<g>
		<polygon fill="none" points="-214.724,54.742 -209.248,49.266 -209.25,49.266 -214.724,54.742 -232.201,37.267 -232.202,37.267 
			-214.724,54.745 -232.229,72.251 -232.229,72.251 -214.724,54.745 -209.224,60.245 -209.221,60.245 		"/>
		
			<linearGradient id="SVGID_1_" gradientUnits="userSpaceOnUse" x1="482.6211" y1="711.8662" x2="459.544" y2="726.3089" gradientTransform="matrix(0.7071 0.7071 0.7071 -0.7071 -1063.0282 215.4367)">
			<stop  offset="0" style="stop-color:#D6FFA1"/>
			<stop  offset="0.3264" style="stop-color:#93E2A7"/>
			<stop  offset="1" style="stop-color:#00A3B5"/>
		</linearGradient>
		<path fill="url(#SVGID_1_)" d="M-209.25,49.266l-21.336-11.732c-0.604-0.331-1.163-0.408-1.615-0.268l17.478,17.476
			L-209.25,49.266z"/>
		
			<linearGradient id="SVGID_2_" gradientUnits="userSpaceOnUse" x1="469.2051" y1="724.2021" x2="499.1229" y2="716.3812" gradientTransform="matrix(0.7071 0.7071 0.7071 -0.7071 -1063.0282 215.4367)">
			<stop  offset="0" style="stop-color:#FF177B"/>
			<stop  offset="0.6721" style="stop-color:#FFA976"/>
			<stop  offset="1" style="stop-color:#FFEC73"/>
		</linearGradient>
		<path fill="url(#SVGID_2_)" d="M-209.221,60.245l7.283-4.005c1.477-0.815,1.477-2.142,0-2.954l-7.311-4.021l-5.476,5.477
			L-209.221,60.245z"/>
		
			<linearGradient id="SVGID_3_" gradientUnits="userSpaceOnUse" x1="485.9043" y1="700.9131" x2="453.4599" y2="720.0015" gradientTransform="matrix(0.7071 0.7071 0.7071 -0.7071 -1063.0282 215.4367)">
			<stop  offset="0" style="stop-color:#63FFD4"/>
			<stop  offset="0.4854" style="stop-color:#32A0BA"/>
			<stop  offset="0.8349" style="stop-color:#1262A9"/>
			<stop  offset="1" style="stop-color:#064AA2"/>
		</linearGradient>
		<path fill="url(#SVGID_3_)" d="M-232.202,37.267c-0.649,0.203-1.069,0.86-1.069,1.854l0.004,31.284
			c0,0.982,0.407,1.63,1.038,1.846l17.506-17.506L-232.202,37.267z"/>
		
			<linearGradient id="SVGID_4_" gradientUnits="userSpaceOnUse" x1="497.6846" y1="716.0684" x2="477.7062" y2="689.748" gradientTransform="matrix(0.7071 0.7071 0.7071 -0.7071 -1063.0282 215.4367)">
			<stop  offset="0" style="stop-color:#FF4521"/>
			<stop  offset="0.3411" style="stop-color:#D43E65"/>
			<stop  offset="0.7935" style="stop-color:#9F36B9"/>
			<stop  offset="1" style="stop-color:#8A33DB"/>
		</linearGradient>
		<path fill="url(#SVGID_4_)" d="M-232.229,72.251c0.454,0.154,1.024,0.082,1.643-0.258l21.363-11.748l-5.5-5.5L-232.229,72.251z"/>
	</g>
	<g>
		<path fill="#FFFFFF" d="M-186.465,19.725c-1.006,0-1.797,0.356-2.373,1.069s-0.864,1.697-0.864,2.952
			c0,1.313,0.277,2.307,0.832,2.981c0.554,0.674,1.356,1.011,2.406,1.011c0.454,0,0.894-0.045,1.318-0.136
			c0.425-0.09,0.867-0.206,1.326-0.348v1.501c-0.84,0.317-1.792,0.476-2.856,0.476c-1.567,0-2.771-0.475-3.611-1.425
			c-0.84-0.949-1.26-2.308-1.26-4.076c0-1.113,0.204-2.087,0.612-2.922c0.407-0.835,0.997-1.475,1.769-1.919
			s1.677-0.667,2.717-0.667c1.094,0,2.104,0.229,3.032,0.688l-0.63,1.458c-0.361-0.171-0.744-0.321-1.146-0.45
			C-185.597,19.79-186.021,19.725-186.465,19.725z"/>
		<path fill="#FFFFFF" d="M-174.512,25.02c0,1.323-0.339,2.356-1.018,3.098s-1.624,1.113-2.834,1.113
			c-0.757,0-1.426-0.171-2.007-0.513s-1.028-0.833-1.34-1.472s-0.469-1.382-0.469-2.227c0-1.313,0.337-2.339,1.011-3.076
			s1.624-1.106,2.849-1.106c1.172,0,2.1,0.377,2.783,1.132C-174.854,22.724-174.512,23.741-174.512,25.02z M-180.408,25.02
			c0,1.87,0.691,2.805,2.073,2.805c1.367,0,2.051-0.935,2.051-2.805c0-1.851-0.688-2.776-2.065-2.776
			c-0.723,0-1.247,0.239-1.571,0.718C-180.246,23.44-180.408,24.126-180.408,25.02z"/>
		<path fill="#FFFFFF" d="M-165.708,29.085h-1.729V24.09c0-0.62-0.117-1.083-0.352-1.388s-0.601-0.458-1.099-0.458
			c-0.664,0-1.151,0.216-1.461,0.648c-0.311,0.432-0.465,1.151-0.465,2.157v4.036h-1.721v-8.101h1.348l0.242,1.062h0.088
			c0.225-0.386,0.55-0.684,0.978-0.894c0.427-0.21,0.897-0.315,1.41-0.315c1.245,0,2.07,0.425,2.476,1.274h0.117
			c0.239-0.4,0.576-0.713,1.011-0.938s0.933-0.337,1.494-0.337c0.967,0,1.671,0.244,2.113,0.732s0.663,1.233,0.663,2.234v5.281
			h-1.721V24.09c0-0.62-0.119-1.083-0.355-1.388c-0.237-0.305-0.604-0.458-1.103-0.458c-0.669,0-1.159,0.209-1.469,0.626
			c-0.31,0.418-0.465,1.059-0.465,1.923V29.085z"/>
		<path fill="#FFFFFF" d="M-158.296,18.838c0-0.308,0.084-0.544,0.253-0.71c0.168-0.166,0.409-0.249,0.721-0.249
			c0.303,0,0.539,0.083,0.707,0.249c0.169,0.166,0.253,0.403,0.253,0.71c0,0.293-0.084,0.524-0.253,0.692
			c-0.168,0.169-0.404,0.253-0.707,0.253c-0.313,0-0.553-0.084-0.721-0.253C-158.212,19.362-158.296,19.131-158.296,18.838z
			 M-156.472,29.085h-1.721v-8.101h1.721V29.085z"/>
		<path fill="#FFFFFF" d="M-146.885,29.085h-1.729v-4.98c0-0.625-0.126-1.091-0.377-1.399s-0.65-0.461-1.197-0.461
			c-0.728,0-1.26,0.215-1.597,0.645s-0.505,1.15-0.505,2.161v4.036h-1.721v-8.101h1.348l0.242,1.062h0.088
			c0.244-0.386,0.591-0.684,1.04-0.894s0.947-0.315,1.494-0.315c1.943,0,2.915,0.989,2.915,2.966V29.085z"/>
		<path fill="#FFFFFF" d="M-137.649,20.984v0.945l-1.384,0.256c0.127,0.171,0.232,0.381,0.315,0.63s0.125,0.513,0.125,0.791
			c0,0.835-0.288,1.492-0.864,1.97s-1.37,0.718-2.38,0.718c-0.259,0-0.493-0.02-0.703-0.059c-0.371,0.229-0.557,0.498-0.557,0.806
			c0,0.186,0.086,0.325,0.26,0.417s0.492,0.139,0.956,0.139h1.414c0.894,0,1.572,0.19,2.036,0.571s0.696,0.93,0.696,1.648
			c0,0.918-0.378,1.626-1.135,2.124s-1.851,0.747-3.281,0.747c-1.104,0-1.946-0.195-2.527-0.586s-0.872-0.947-0.872-1.67
			c0-0.498,0.158-0.917,0.472-1.256c0.315-0.339,0.756-0.575,1.322-0.707c-0.229-0.098-0.419-0.255-0.567-0.473
			c-0.149-0.217-0.224-0.445-0.224-0.685c0-0.303,0.085-0.559,0.256-0.769s0.425-0.417,0.762-0.623
			c-0.42-0.181-0.761-0.475-1.022-0.883c-0.261-0.407-0.392-0.885-0.392-1.432c0-0.879,0.277-1.56,0.831-2.043
			s1.344-0.725,2.37-0.725c0.229,0,0.47,0.016,0.721,0.048s0.441,0.064,0.568,0.099H-137.649z M-144.014,30.345
			c0,0.371,0.167,0.657,0.501,0.857s0.805,0.3,1.41,0.3c0.938,0,1.636-0.134,2.095-0.403s0.688-0.625,0.688-1.069
			c0-0.352-0.126-0.602-0.377-0.75c-0.252-0.149-0.719-0.224-1.403-0.224h-1.304c-0.493,0-0.885,0.116-1.175,0.348
			C-143.869,29.635-144.014,29.949-144.014,30.345z M-143.274,23.606c0,0.508,0.13,0.898,0.392,1.172s0.636,0.41,1.125,0.41
			c0.996,0,1.494-0.532,1.494-1.597c0-0.527-0.124-0.934-0.37-1.22c-0.247-0.285-0.622-0.428-1.125-0.428
			c-0.498,0-0.875,0.142-1.131,0.425C-143.146,22.652-143.274,23.064-143.274,23.606z"/>
		<path fill="#FFFFFF" d="M-125.894,26.177c0,0.952-0.344,1.699-1.033,2.241s-1.638,0.813-2.849,0.813s-2.202-0.188-2.974-0.564
			v-1.655c0.488,0.229,1.007,0.41,1.557,0.542c0.549,0.132,1.061,0.198,1.534,0.198c0.693,0,1.205-0.132,1.534-0.396
			c0.33-0.264,0.495-0.618,0.495-1.062c0-0.4-0.151-0.74-0.454-1.018s-0.928-0.608-1.875-0.989
			c-0.977-0.396-1.665-0.847-2.065-1.355s-0.601-1.118-0.601-1.831c0-0.894,0.317-1.597,0.952-2.109s1.487-0.769,2.556-0.769
			c1.025,0,2.046,0.225,3.062,0.674l-0.557,1.428c-0.952-0.4-1.802-0.601-2.549-0.601c-0.566,0-0.996,0.124-1.289,0.37
			s-0.439,0.572-0.439,0.978c0,0.278,0.059,0.517,0.176,0.714c0.117,0.198,0.31,0.385,0.579,0.561s0.752,0.408,1.45,0.696
			c0.786,0.327,1.362,0.632,1.729,0.916s0.635,0.603,0.806,0.959S-125.894,25.694-125.894,26.177z"/>
		<path fill="#FFFFFF" d="M-116.819,25.02c0,1.323-0.339,2.356-1.018,3.098s-1.624,1.113-2.834,1.113
			c-0.757,0-1.426-0.171-2.007-0.513s-1.028-0.833-1.34-1.472s-0.469-1.382-0.469-2.227c0-1.313,0.337-2.339,1.011-3.076
			s1.624-1.106,2.849-1.106c1.172,0,2.1,0.377,2.783,1.132C-117.161,22.724-116.819,23.741-116.819,25.02z M-122.715,25.02
			c0,1.87,0.691,2.805,2.073,2.805c1.367,0,2.051-0.935,2.051-2.805c0-1.851-0.688-2.776-2.065-2.776
			c-0.723,0-1.247,0.239-1.571,0.718C-122.553,23.44-122.715,24.126-122.715,25.02z"/>
		<path fill="#FFFFFF" d="M-107.656,25.02c0,1.323-0.339,2.356-1.018,3.098s-1.624,1.113-2.834,1.113
			c-0.757,0-1.426-0.171-2.007-0.513s-1.028-0.833-1.34-1.472s-0.469-1.382-0.469-2.227c0-1.313,0.337-2.339,1.011-3.076
			s1.624-1.106,2.849-1.106c1.172,0,2.1,0.377,2.783,1.132C-107.998,22.724-107.656,23.741-107.656,25.02z M-113.552,25.02
			c0,1.87,0.691,2.805,2.073,2.805c1.367,0,2.051-0.935,2.051-2.805c0-1.851-0.688-2.776-2.065-2.776
			c-0.723,0-1.247,0.239-1.571,0.718C-113.39,23.44-113.552,24.126-113.552,25.02z"/>
		<path fill="#FFFFFF" d="M-98.552,29.085h-1.729v-4.98c0-0.625-0.126-1.091-0.377-1.399s-0.65-0.461-1.197-0.461
			c-0.728,0-1.26,0.215-1.597,0.645s-0.505,1.15-0.505,2.161v4.036h-1.721v-8.101h1.348l0.242,1.062h0.088
			c0.244-0.386,0.591-0.684,1.04-0.894s0.947-0.315,1.494-0.315c1.943,0,2.915,0.989,2.915,2.966V29.085z"/>
		<path fill="#FFFFFF" d="M-89.243,27.84c0.42,0,0.84-0.066,1.26-0.198v1.296c-0.19,0.083-0.436,0.152-0.736,0.209
			c-0.3,0.056-0.611,0.084-0.934,0.084c-1.631,0-2.446-0.859-2.446-2.578v-4.365h-1.106v-0.762l1.187-0.63l0.586-1.714h1.062v1.802
			h2.307v1.304h-2.307v4.336c0,0.415,0.104,0.722,0.312,0.919C-89.853,27.741-89.58,27.84-89.243,27.84z"/>
		<path fill="#FFFFFF" d="M-79.18,25.02c0,1.323-0.339,2.356-1.018,3.098s-1.624,1.113-2.834,1.113
			c-0.757,0-1.426-0.171-2.007-0.513s-1.028-0.833-1.34-1.472s-0.469-1.382-0.469-2.227c0-1.313,0.337-2.339,1.011-3.076
			s1.624-1.106,2.849-1.106c1.172,0,2.1,0.377,2.783,1.132C-79.521,22.724-79.18,23.741-79.18,25.02z M-85.076,25.02
			c0,1.87,0.691,2.805,2.073,2.805c1.367,0,2.051-0.935,2.051-2.805c0-1.851-0.688-2.776-2.065-2.776
			c-0.723,0-1.247,0.239-1.571,0.718C-84.914,23.44-85.076,24.126-85.076,25.02z"/>
	</g>
</g>
<g>
	<path stroke="#FFFFFF" stroke-width="1.5" stroke-miterlimit="10" d="M-27.516,218.05c0,6.53-4.797,10.591-11.321,10.591h-191.814
		c-6.528,0-11.821-5.298-11.821-11.828v-49.955c0-6.529,5.293-11.824,11.821-11.824h191.814c6.524,0,11.321,5.295,11.321,11.824
		V218.05z"/>
	<g>
		<g>
			<g>
				<path fill="#FFFFFF" d="M-199.865,190.914c-0.051-5.738,4.697-8.528,4.915-8.658c-2.69-3.922-6.858-4.458-8.324-4.5
					c-3.501-0.367-6.897,2.094-8.682,2.094c-1.818,0-4.565-2.059-7.525-1.998c-3.81,0.059-7.374,2.265-9.327,5.689
					c-4.034,6.982-1.026,17.244,2.838,22.891c1.934,2.766,4.192,5.851,7.149,5.74c2.892-0.117,3.973-1.844,7.463-1.844
					c3.459,0,4.474,1.844,7.488,1.773c3.105-0.049,5.06-2.775,6.925-5.564c2.233-3.17,3.13-6.29,3.166-6.451
					C-193.851,200.063-199.807,197.788-199.865,190.914z"/>
				<path fill="#FFFFFF" d="M-205.561,174.043c1.555-1.945,2.619-4.592,2.324-7.279c-2.251,0.103-5.067,1.56-6.688,3.461
					c-1.435,1.678-2.716,4.424-2.385,7.012C-209.781,177.422-207.186,175.957-205.561,174.043z"/>
			</g>
		</g>
		<g>
			<path fill="#FFFFFF" d="M-158.005,211.775h-4.043l-2.214-6.957h-7.697l-2.11,6.957h-3.935l7.625-23.689h4.708L-158.005,211.775z
				 M-164.93,201.898l-2.002-6.187c-0.211-0.632-0.609-2.121-1.194-4.464h-0.071c-0.233,1.009-0.608,2.497-1.124,4.464l-1.967,6.187
				H-164.93z"/>
			<path fill="#FFFFFF" d="M-138.396,203.023c0,2.906-0.784,5.201-2.355,6.889c-1.405,1.5-3.151,2.25-5.236,2.25
				c-2.25,0-3.866-0.809-4.851-2.426h-0.071v8.998h-3.795v-18.418c0-1.827-0.048-3.7-0.141-5.621h3.338l0.212,2.707h0.071
				c1.266-2.041,3.187-3.06,5.764-3.06c2.016,0,3.697,0.796,5.043,2.388C-139.067,198.327-138.396,200.425-138.396,203.023z
				 M-142.261,203.163c0-1.661-0.375-3.032-1.125-4.113c-0.82-1.123-1.922-1.686-3.303-1.686c-0.936,0-1.787,0.313-2.547,0.932
				c-0.762,0.622-1.26,1.437-1.494,2.443c-0.117,0.47-0.176,0.854-0.176,1.157v2.85c0,1.24,0.382,2.289,1.143,3.146
				c0.763,0.854,1.752,1.282,2.97,1.282c1.43,0,2.542-0.552,3.337-1.649C-142.659,206.421-142.261,204.968-142.261,203.163z"/>
			<path fill="#FFFFFF" d="M-118.748,203.023c0,2.906-0.787,5.201-2.357,6.889c-1.406,1.5-3.151,2.25-5.235,2.25
				c-2.25,0-3.867-0.809-4.849-2.426h-0.069v8.998h-3.795v-18.418c0-1.827-0.049-3.7-0.143-5.621h3.335l0.213,2.707h0.074
				c1.262-2.041,3.186-3.06,5.76-3.06c2.015,0,3.695,0.796,5.045,2.388C-119.424,198.327-118.748,200.425-118.748,203.023z
				 M-122.615,203.163c0-1.661-0.377-3.032-1.127-4.113c-0.82-1.123-1.918-1.686-3.303-1.686c-0.938,0-1.787,0.313-2.547,0.932
				c-0.762,0.622-1.26,1.437-1.492,2.443c-0.115,0.47-0.176,0.854-0.176,1.157v2.85c0,1.24,0.381,2.289,1.139,3.146
				c0.762,0.854,1.752,1.282,2.973,1.282c1.428,0,2.541-0.552,3.338-1.649C-123.016,206.421-122.615,204.968-122.615,203.163z"/>
			<path fill="#FFFFFF" d="M-96.783,205.132c0,2.017-0.699,3.656-2.104,4.921c-1.545,1.381-3.693,2.073-6.453,2.073
				c-2.549,0-4.592-0.492-6.141-1.476l0.881-3.164c1.664,1.01,3.492,1.516,5.485,1.516c1.429,0,2.539-0.322,3.341-0.972
				c0.797-0.645,1.192-1.509,1.192-2.587c0-0.961-0.328-1.771-0.983-2.43c-0.652-0.656-1.746-1.267-3.271-1.828
				c-4.146-1.549-6.218-3.813-6.218-6.793c0-1.946,0.726-3.545,2.179-4.787c1.451-1.244,3.385-1.866,5.801-1.866
				c2.154,0,3.945,0.376,5.373,1.126l-0.944,3.094c-1.334-0.729-2.847-1.09-4.537-1.09c-1.334,0-2.377,0.327-3.125,0.984
				c-0.629,0.584-0.945,1.299-0.945,2.146c0,0.935,0.357,1.709,1.084,2.317c0.633,0.562,1.781,1.173,3.449,1.83
				c2.037,0.818,3.533,1.778,4.496,2.877C-97.266,202.122-96.783,203.494-96.783,205.132z"/>
			<path fill="#FFFFFF" d="M-84.236,197.541h-4.182v8.296c0,2.106,0.736,3.162,2.213,3.162c0.678,0,1.242-0.06,1.686-0.178
				l0.105,2.884c-0.748,0.277-1.732,0.42-2.953,0.42c-1.498,0-2.67-0.458-3.514-1.372c-0.842-0.914-1.266-2.446-1.266-4.604v-8.609
				h-2.492v-2.848h2.492v-3.129l3.729-1.121v4.25h4.182V197.541L-84.236,197.541z"/>
			<path fill="#FFFFFF" d="M-65.363,203.093c0,2.626-0.75,4.782-2.25,6.47c-1.57,1.732-3.656,2.601-6.256,2.601
				c-2.506,0-4.502-0.831-5.99-2.493c-1.49-1.665-2.231-3.763-2.231-6.292c0-2.647,0.764-4.815,2.301-6.501
				c1.531-1.688,3.601-2.529,6.199-2.529c2.506,0,4.522,0.831,6.047,2.494C-66.09,198.456-65.363,200.538-65.363,203.093z
				 M-69.303,203.215c0-1.574-0.332-2.925-1.014-4.051c-0.797-1.365-1.938-2.043-3.408-2.043c-1.525,0-2.687,0.682-3.479,2.043
				c-0.687,1.129-1.021,2.501-1.021,4.123c0,1.577,0.334,2.929,1.021,4.053c0.82,1.362,1.963,2.043,3.445,2.043
				c1.448,0,2.586-0.693,3.405-2.078C-69.652,206.157-69.303,204.792-69.303,203.215z"/>
			<path fill="#FFFFFF" d="M-53.029,198.032c-0.373-0.069-0.772-0.105-1.193-0.105c-1.336,0-2.368,0.503-3.096,1.515
				c-0.633,0.89-0.949,2.014-0.949,3.371v8.963h-3.793l0.035-11.702c0-1.968-0.045-3.763-0.143-5.375h3.307l0.139,3.267h0.104
				c0.404-1.123,1.033-2.027,1.9-2.706c0.844-0.61,1.758-0.914,2.741-0.914c0.351,0,0.668,0.023,0.947,0.069V198.032
				L-53.029,198.032z"/>
			<path fill="#FFFFFF" d="M-36.055,202.426c0,0.682-0.047,1.254-0.139,1.723H-47.58c0.045,1.688,0.596,2.979,1.65,3.869
				c0.961,0.795,2.201,1.19,3.727,1.19c1.684,0,3.225-0.269,4.607-0.806l0.594,2.635c-1.615,0.704-3.525,1.055-5.725,1.055
				c-2.648,0-4.729-0.779-6.244-2.336c-1.51-1.558-2.264-3.65-2.264-6.273c0-2.574,0.702-4.719,2.11-6.431
				c1.476-1.827,3.465-2.739,5.974-2.739c2.461,0,4.321,0.912,5.59,2.739C-36.559,198.502-36.055,200.296-36.055,202.426z
				 M-39.674,201.443c0.025-1.127-0.225-2.099-0.738-2.918c-0.656-1.059-1.664-1.584-3.023-1.584c-1.241,0-2.25,0.516-3.021,1.547
				c-0.629,0.82-1.004,1.808-1.123,2.951h7.906L-39.674,201.443L-39.674,201.443z"/>
		</g>
	</g>
</g>
<g>
	<path fill="#FFFFFF" d="M-172.035,170.248c-1.006,0-1.797,0.357-2.373,1.07s-0.864,1.696-0.864,2.951
		c0,1.313,0.277,2.307,0.832,2.98c0.554,0.674,1.356,1.012,2.406,1.012c0.454,0,0.894-0.045,1.318-0.137
		c0.425-0.09,0.867-0.205,1.326-0.348v1.502c-0.84,0.317-1.792,0.477-2.856,0.477c-1.567,0-2.771-0.475-3.611-1.426
		c-0.84-0.949-1.26-2.308-1.26-4.075c0-1.113,0.204-2.087,0.612-2.923c0.407-0.834,0.997-1.475,1.769-1.918
		c0.771-0.445,1.677-0.667,2.717-0.667c1.094,0,2.104,0.229,3.032,0.688l-0.63,1.457c-0.361-0.17-0.744-0.32-1.146-0.449
		C-171.167,170.313-171.59,170.248-172.035,170.248z"/>
	<path fill="#FFFFFF" d="M-160.082,175.544c0,1.323-0.339,2.356-1.018,3.099s-1.624,1.113-2.834,1.113
		c-0.757,0-1.426-0.172-2.007-0.514s-1.028-0.832-1.34-1.472s-0.469-1.382-0.469-2.227c0-1.313,0.337-2.339,1.011-3.076
		s1.624-1.106,2.849-1.106c1.172,0,2.1,0.377,2.783,1.133C-160.423,173.248-160.082,174.265-160.082,175.544z M-165.978,175.544
		c0,1.87,0.691,2.806,2.073,2.806c1.367,0,2.051-0.936,2.051-2.806c0-1.851-0.688-2.776-2.065-2.776
		c-0.723,0-1.247,0.24-1.571,0.719C-165.815,173.965-165.978,174.65-165.978,175.544z"/>
	<path fill="#FFFFFF" d="M-151.278,179.609h-1.729v-4.996c0-0.619-0.117-1.082-0.352-1.387c-0.234-0.306-0.601-0.459-1.099-0.459
		c-0.664,0-1.151,0.217-1.461,0.648c-0.311,0.432-0.465,1.151-0.465,2.157v4.036h-1.721v-8.102h1.348l0.242,1.063h0.088
		c0.225-0.386,0.55-0.684,0.978-0.894c0.427-0.21,0.897-0.315,1.41-0.315c1.245,0,2.07,0.426,2.476,1.275h0.117
		c0.239-0.4,0.576-0.713,1.011-0.938s0.933-0.338,1.494-0.338c0.967,0,1.671,0.244,2.113,0.732s0.663,1.233,0.663,2.234v5.281
		h-1.721v-4.996c0-0.619-0.119-1.082-0.355-1.387c-0.237-0.306-0.604-0.459-1.103-0.459c-0.669,0-1.159,0.209-1.469,0.627
		s-0.465,1.059-0.465,1.922V179.609z"/>
	<path fill="#FFFFFF" d="M-143.866,169.362c0-0.308,0.084-0.544,0.253-0.71c0.168-0.166,0.409-0.25,0.721-0.25
		c0.303,0,0.539,0.084,0.707,0.25c0.169,0.166,0.253,0.402,0.253,0.71c0,0.293-0.084,0.524-0.253,0.692
		c-0.168,0.168-0.404,0.252-0.707,0.252c-0.313,0-0.553-0.084-0.721-0.252C-143.782,169.887-143.866,169.655-143.866,169.362z
		 M-142.042,179.609h-1.721v-8.102h1.721V179.609z"/>
	<path fill="#FFFFFF" d="M-132.455,179.609h-1.729v-4.98c0-0.625-0.126-1.092-0.377-1.399s-0.65-0.462-1.197-0.462
		c-0.728,0-1.26,0.215-1.597,0.645s-0.505,1.15-0.505,2.161v4.036h-1.721v-8.102h1.348l0.242,1.063h0.088
		c0.244-0.386,0.591-0.684,1.04-0.894s0.947-0.315,1.494-0.315c1.943,0,2.915,0.989,2.915,2.967V179.609z"/>
	<path fill="#FFFFFF" d="M-123.219,171.508v0.945l-1.384,0.256c0.127,0.172,0.232,0.381,0.315,0.631
		c0.083,0.248,0.125,0.512,0.125,0.791c0,0.834-0.288,1.491-0.864,1.97s-1.37,0.718-2.38,0.718c-0.259,0-0.493-0.02-0.703-0.059
		c-0.371,0.229-0.557,0.498-0.557,0.806c0,0.186,0.086,0.325,0.26,0.417c0.173,0.094,0.492,0.14,0.956,0.14h1.414
		c0.894,0,1.572,0.19,2.036,0.571s0.696,0.93,0.696,1.648c0,0.918-0.378,1.625-1.135,2.123s-1.851,0.748-3.281,0.748
		c-1.104,0-1.946-0.195-2.527-0.586s-0.872-0.947-0.872-1.67c0-0.498,0.158-0.918,0.472-1.256c0.315-0.34,0.756-0.576,1.322-0.707
		c-0.229-0.098-0.419-0.256-0.567-0.473c-0.149-0.217-0.224-0.445-0.224-0.686c0-0.303,0.085-0.559,0.256-0.769
		s0.425-0.417,0.762-0.622c-0.42-0.182-0.761-0.475-1.022-0.883s-0.392-0.885-0.392-1.432c0-0.879,0.277-1.561,0.831-2.044
		s1.344-0.726,2.37-0.726c0.229,0,0.47,0.017,0.721,0.049c0.251,0.031,0.441,0.064,0.568,0.098H-123.219z M-129.583,180.869
		c0,0.371,0.167,0.656,0.501,0.856s0.805,0.3,1.41,0.3c0.938,0,1.636-0.134,2.095-0.402s0.688-0.625,0.688-1.069
		c0-0.352-0.126-0.603-0.377-0.751c-0.252-0.148-0.719-0.223-1.403-0.223h-1.304c-0.493,0-0.885,0.115-1.175,0.348
		C-129.438,180.159-129.583,180.473-129.583,180.869z M-128.844,174.131c0,0.508,0.13,0.898,0.392,1.172s0.636,0.41,1.125,0.41
		c0.996,0,1.494-0.533,1.494-1.598c0-0.527-0.124-0.934-0.37-1.219c-0.247-0.285-0.622-0.429-1.125-0.429
		c-0.498,0-0.875,0.142-1.131,0.425C-128.716,173.176-128.844,173.588-128.844,174.131z"/>
	<path fill="#FFFFFF" d="M-111.463,176.701c0,0.952-0.344,1.699-1.033,2.241s-1.638,0.813-2.849,0.813s-2.202-0.188-2.974-0.564
		v-1.655c0.488,0.229,1.007,0.41,1.557,0.542c0.549,0.132,1.061,0.197,1.534,0.197c0.693,0,1.205-0.131,1.534-0.395
		c0.33-0.264,0.495-0.618,0.495-1.063c0-0.4-0.151-0.74-0.454-1.018c-0.303-0.279-0.928-0.608-1.875-0.989
		c-0.977-0.396-1.665-0.847-2.065-1.354s-0.601-1.119-0.601-1.832c0-0.893,0.317-1.596,0.952-2.109
		c0.635-0.512,1.487-0.769,2.556-0.769c1.025,0,2.046,0.225,3.062,0.674l-0.557,1.429c-0.952-0.4-1.802-0.602-2.549-0.602
		c-0.566,0-0.996,0.124-1.289,0.371c-0.293,0.246-0.439,0.572-0.439,0.977c0,0.279,0.059,0.518,0.176,0.715s0.31,0.385,0.579,0.561
		s0.752,0.407,1.45,0.695c0.786,0.327,1.362,0.633,1.729,0.916s0.635,0.603,0.806,0.959S-111.463,176.218-111.463,176.701z"/>
	<path fill="#FFFFFF" d="M-102.389,175.544c0,1.323-0.339,2.356-1.018,3.099s-1.624,1.113-2.834,1.113
		c-0.757,0-1.426-0.172-2.007-0.514s-1.028-0.832-1.34-1.472s-0.469-1.382-0.469-2.227c0-1.313,0.337-2.339,1.011-3.076
		s1.624-1.106,2.849-1.106c1.172,0,2.1,0.377,2.783,1.133C-102.73,173.248-102.389,174.265-102.389,175.544z M-108.285,175.544
		c0,1.87,0.691,2.806,2.073,2.806c1.367,0,2.051-0.936,2.051-2.806c0-1.851-0.688-2.776-2.065-2.776
		c-0.723,0-1.247,0.24-1.571,0.719C-108.123,173.965-108.285,174.65-108.285,175.544z"/>
	<path fill="#FFFFFF" d="M-93.226,175.544c0,1.323-0.339,2.356-1.018,3.099s-1.624,1.113-2.834,1.113
		c-0.757,0-1.426-0.172-2.007-0.514s-1.028-0.832-1.34-1.472s-0.469-1.382-0.469-2.227c0-1.313,0.337-2.339,1.011-3.076
		s1.624-1.106,2.849-1.106c1.172,0,2.1,0.377,2.783,1.133C-93.568,173.248-93.226,174.265-93.226,175.544z M-99.122,175.544
		c0,1.87,0.691,2.806,2.073,2.806c1.367,0,2.051-0.936,2.051-2.806c0-1.851-0.688-2.776-2.065-2.776
		c-0.723,0-1.247,0.24-1.571,0.719C-98.96,173.965-99.122,174.65-99.122,175.544z"/>
	<path fill="#FFFFFF" d="M-84.122,179.609h-1.729v-4.98c0-0.625-0.126-1.092-0.377-1.399s-0.65-0.462-1.197-0.462
		c-0.728,0-1.26,0.215-1.597,0.645s-0.505,1.15-0.505,2.161v4.036h-1.721v-8.102h1.348l0.242,1.063h0.088
		c0.244-0.386,0.591-0.684,1.04-0.894s0.947-0.315,1.494-0.315c1.943,0,2.915,0.989,2.915,2.967V179.609z"/>
	<path fill="#FFFFFF" d="M-74.813,178.363c0.42,0,0.84-0.065,1.26-0.197v1.297c-0.19,0.082-0.436,0.152-0.736,0.209
		c-0.3,0.055-0.611,0.084-0.934,0.084c-1.631,0-2.446-0.859-2.446-2.578v-4.365h-1.106v-0.762l1.187-0.631l0.586-1.713h1.062v1.801
		h2.307v1.305h-2.307v4.336c0,0.414,0.104,0.721,0.312,0.918C-75.422,178.266-75.15,178.363-74.813,178.363z"/>
	<path fill="#FFFFFF" d="M-64.75,175.544c0,1.323-0.339,2.356-1.018,3.099s-1.624,1.113-2.834,1.113
		c-0.757,0-1.426-0.172-2.007-0.514s-1.028-0.832-1.34-1.472s-0.469-1.382-0.469-2.227c0-1.313,0.337-2.339,1.011-3.076
		s1.624-1.106,2.849-1.106c1.172,0,2.1,0.377,2.783,1.133C-65.091,173.248-64.75,174.265-64.75,175.544z M-70.646,175.544
		c0,1.87,0.691,2.806,2.073,2.806c1.367,0,2.051-0.936,2.051-2.806c0-1.851-0.688-2.776-2.065-2.776
		c-0.723,0-1.247,0.24-1.571,0.719C-70.483,173.965-70.646,174.65-70.646,175.544z"/>
</g>
</svg>
