<?xml version="1.0" encoding="utf-8"?>
<!-- Generator: Adobe Illustrator 16.0.0, SVG Export Plug-In . SVG Version: 6.00 Build 0)  -->
<!DOCTYPE svg PUBLIC "-//W3C//DTD SVG 1.1//EN" "http://www.w3.org/Graphics/SVG/1.1/DTD/svg11.dtd">
<svg version="1.1" id="Layer_1" xmlns="http://www.w3.org/2000/svg" xmlns:xlink="http://www.w3.org/1999/xlink" x="0px" y="0px"
	 width="196.278px" height="196.278px" viewBox="0 0 196.278 196.278" enable-background="new 0 0 196.278 196.278"
	 xml:space="preserve">
<g display="none">
	<path display="inline" fill="#A0404E" d="M-111.743,49.506c0,0,0.376-0.607,1.091-1.614c0.335-0.516,0.827-1.09,1.447-1.729
		c0.308-0.316,0.622-0.688,0.989-1.023c0.381-0.32,0.781-0.657,1.199-1.01c0.214-0.173,0.432-0.351,0.654-0.53
		c0.237-0.157,0.48-0.316,0.729-0.479c0.505-0.316,1.028-0.644,1.565-0.979c1.136-0.546,2.336-1.184,3.661-1.579
		c0.653-0.233,1.324-0.463,2.019-0.603c0.689-0.158,1.391-0.343,2.102-0.459c0.712-0.095,1.43-0.206,2.152-0.288l0.271-0.031
		l0.136-0.017l0.034-0.004l0.15-0.007l0.065-0.001l0.519-0.014l1.04-0.028l1.04-0.012l0.521-0.006
		c0.184,0.01,0.384,0.036,0.574,0.055c0.774,0.075,1.542,0.183,2.302,0.281c0.771,0.071,1.445,0.346,2.154,0.522
		c0.698,0.201,1.396,0.367,2.024,0.686c0.64,0.285,1.271,0.553,1.876,0.839c0.589,0.312,1.136,0.658,1.673,0.984
		c1.098,0.624,1.991,1.384,2.844,2.038c0.859,0.649,1.53,1.365,2.169,1.946c0.643,0.577,1.141,1.145,1.563,1.597
		c0.839,0.911,1.286,1.466,1.286,1.466s-0.661-0.278-1.763-0.827c-0.547-0.273-1.211-0.605-1.973-0.986
		c-0.766-0.356-1.594-0.832-2.529-1.24c-0.932-0.412-1.899-0.938-2.973-1.313c-0.533-0.197-1.059-0.447-1.616-0.637
		c-0.566-0.154-1.132-0.338-1.709-0.512c-0.567-0.206-1.173-0.293-1.774-0.411c-0.301-0.058-0.604-0.116-0.907-0.176
		c-0.303-0.073-0.605-0.132-0.903-0.137c-0.599-0.046-1.197-0.085-1.798-0.157c-0.153-0.015-0.295-0.039-0.457-0.046l-0.519,0.014
		l-1.04,0.027l-1.04,0.011l-0.52,0.005l-0.064,0.001h-0.018c-0.11,0.005,0.135-0.007,0.104-0.005l-0.03,0.004l-0.122,0.013
		l-0.244,0.025c-0.648,0.073-1.3,0.116-1.944,0.174c-1.265,0.201-2.535,0.323-3.711,0.629c-1.209,0.217-2.312,0.613-3.402,0.915
		c-0.525,0.203-1.036,0.401-1.53,0.595c-0.251,0.095-0.498,0.188-0.74,0.279c-0.23,0.113-0.458,0.227-0.681,0.335
		c-0.455,0.215-0.891,0.421-1.306,0.617c-0.416,0.198-0.771,0.434-1.132,0.632c-0.705,0.411-1.371,0.75-1.868,1.123
		C-111.125,49.146-111.743,49.506-111.743,49.506z"/>
</g>
<g>
	
		<rect x="-25" y="40.078" transform="matrix(-0.473 -0.881 0.881 -0.473 -47.4033 135.3604)" fill="#D14F51" width="83.556" height="83.556"/>
	<g>
		<path fill="#A0404E" d="M-13.258,76.552c0,0,0.714,0.043,1.938,0.196c0.613,0.052,1.351,0.214,2.208,0.458
			c0.425,0.12,0.901,0.222,1.37,0.385c0.463,0.186,0.949,0.378,1.456,0.58c0.253,0.105,0.515,0.215,0.778,0.325
			c0.25,0.136,0.505,0.272,0.767,0.414c0.517,0.296,1.053,0.602,1.603,0.917c1.018,0.742,2.146,1.498,3.123,2.479
			c0.513,0.466,1.035,0.947,1.484,1.493c0.465,0.534,0.961,1.063,1.399,1.636c0.421,0.582,0.857,1.162,1.271,1.76l0.157,0.225
			l0.078,0.11l0.021,0.028l0.077,0.129l0.033,0.057l0.259,0.451l0.516,0.902l0.502,0.911l0.251,0.455
			c0.079,0.167,0.149,0.356,0.224,0.533c0.299,0.716,0.568,1.445,0.84,2.16c0.302,0.714,0.379,1.438,0.561,2.146
			c0.152,0.709,0.336,1.403,0.352,2.106c0.052,0.699,0.116,1.382,0.148,2.05c0.003,0.667-0.043,1.313-0.076,1.939
			c-0.031,1.264-0.277,2.409-0.45,3.472c-0.166,1.062-0.479,1.992-0.688,2.831c-0.204,0.838-0.469,1.546-0.668,2.132
			c-0.405,1.169-0.683,1.826-0.683,1.826s-0.067-0.715-0.104-1.944c-0.018-0.61-0.04-1.353-0.064-2.205
			c-0.05-0.844-0.022-1.797-0.105-2.813c-0.078-1.017-0.071-2.117-0.25-3.241c-0.079-0.561-0.107-1.144-0.204-1.723
			c-0.132-0.573-0.238-1.158-0.357-1.748c-0.089-0.598-0.297-1.173-0.479-1.758c-0.089-0.293-0.182-0.587-0.273-0.882
			c-0.08-0.302-0.169-0.596-0.306-0.86c-0.243-0.55-0.492-1.096-0.713-1.66c-0.06-0.14-0.106-0.278-0.176-0.423l-0.258-0.45
			l-0.515-0.904l-0.5-0.911L1.036,89.68l-0.03-0.057L0.997,89.61c-0.057-0.096,0.07,0.114,0.053,0.089l-0.017-0.026l-0.069-0.101
			l-0.136-0.203c-0.372-0.537-0.718-1.091-1.074-1.631c-0.774-1.019-1.483-2.081-2.309-2.971c-0.763-0.964-1.633-1.746-2.417-2.565
			c-0.427-0.365-0.843-0.723-1.246-1.066c-0.202-0.176-0.4-0.35-0.596-0.519c-0.21-0.151-0.416-0.298-0.618-0.442
			c-0.405-0.299-0.792-0.586-1.162-0.859c-0.37-0.271-0.746-0.474-1.092-0.699c-0.696-0.426-1.309-0.852-1.873-1.113
			C-12.649,76.927-13.258,76.552-13.258,76.552z"/>
	</g>
	<g>
		<path fill="#343433" d="M28.022,39.044c0,0,0.501,2.045,0.949,5.163c0.219,1.562,0.452,3.389,0.598,5.358
			c0.183,1.973,0.228,4.082,0.244,6.205c-0.019,1.063,0.039,2.129,0.035,3.186c-0.005,1.056,0.018,2.1-0.147,3.096
			c-0.159,0.995-0.349,1.947-0.672,2.83c-0.304,0.885-0.589,1.711-0.959,2.453c-0.359,0.742-0.726,1.407-1.078,1.981
			c-0.355,0.574-0.731,1.051-1.042,1.436c-0.621,0.771-1.055,1.162-1.055,1.162l-0.47-0.169c0,0-0.116-0.593-0.181-1.546
			c-0.044-0.479-0.038-1.038-0.065-1.682c-0.036-0.647-0.044-1.36-0.014-2.121c0.028-0.761,0.02-1.595,0.098-2.448
			c0.074-0.854,0.116-1.766,0.286-2.684c0.18-0.916,0.378-1.872,0.644-2.836c0.259-0.967,0.445-1.966,0.63-2.965
			c0.147-1.008,0.293-2.018,0.438-3.009c0.104-0.999,0.271-1.981,0.369-2.938c0.223-1.91,0.401-3.707,0.531-5.252
			c0.267-3.092,0.363-5.171,0.363-5.171L28.022,39.044z"/>
	</g>
	<g>
		<path fill="#343433" d="M59.925,96.243c-0.001-0.001-1.843-0.97-4.648-2.3c-1.397-0.668-3.039-1.421-4.801-2.192
			c-0.876-0.4-1.808-0.753-2.722-1.166c-0.929-0.376-1.873-0.759-2.818-1.142c-0.955-0.345-1.913-0.691-2.878-0.954
			c-0.966-0.259-1.89-0.569-2.771-0.877c-0.878-0.318-1.688-0.741-2.463-1.108c-0.775-0.365-1.491-0.794-2.161-1.152
			c-0.672-0.357-1.284-0.725-1.825-1.082c-0.542-0.349-1.025-0.625-1.418-0.906c-0.791-0.537-1.243-0.936-1.243-0.936l0.091-0.492
			c0,0,0.557-0.177,1.537-0.325c0.489-0.072,1.089-0.156,1.766-0.172c0.674-0.016,1.432,0.006,2.256,0.07
			c0.825,0.054,1.685,0.225,2.601,0.411c0.925,0.166,1.843,0.483,2.781,0.849c0.942,0.36,1.834,0.906,2.746,1.435
			c0.913,0.532,1.808,1.119,2.73,1.64c1.823,1.086,3.622,2.192,5.232,3.344c1.628,1.121,3.087,2.246,4.323,3.222
			c2.466,1.961,3.979,3.427,3.978,3.426L59.925,96.243z"/>
	</g>
	<g>
		<path fill="#A0404E" d="M22.363,72.219c0,0,0.432,0.048,1.035,0.077c0.306,0.016,0.662,0.035,1.046,0.055
			c0.385,0.023,0.793-0.001,1.208,0c0.411-0.008,0.832-0.002,1.221-0.023c0.384-0.047,0.741-0.093,1.049-0.131
			c0.63-0.08,1.047-0.135,1.047-0.135s-0.383,0.174-0.957,0.435c-0.294,0.133-0.638,0.285-1.005,0.452
			c-0.377,0.137-0.785,0.256-1.193,0.391c-0.409,0.124-0.819,0.274-1.211,0.371c-0.396,0.098-0.764,0.191-1.079,0.27
			c-0.642,0.163-1.042,0.236-1.042,0.236L22.363,72.219z"/>
	</g>
	<g>
		<path fill="#A0404E" d="M26.825,82.273c0,0,0.063-0.081,0.174-0.224c0.095-0.138,0.331-0.374,0.563-0.627
			c0.12-0.126,0.252-0.263,0.389-0.408c0.135-0.146,0.299-0.246,0.456-0.377c0.317-0.244,0.653-0.508,0.99-0.77
			c0.319-0.277,0.709-0.455,1.042-0.658c0.338-0.194,0.653-0.375,0.924-0.528c0.532-0.304,0.889-0.505,0.889-0.505
			s-0.279,0.301-0.699,0.753c-0.206,0.224-0.446,0.485-0.704,0.764c-0.249,0.284-0.548,0.551-0.757,0.896
			c-0.224,0.325-0.448,0.647-0.657,0.95c-0.097,0.152-0.22,0.291-0.281,0.434c-0.066,0.136-0.129,0.266-0.188,0.386
			c-0.112,0.248-0.214,0.396-0.273,0.581c-0.063,0.168-0.096,0.265-0.096,0.265L26.825,82.273z"/>
	</g>
	<path fill="#FFFFFF" stroke="#A0404E" stroke-width="0.75" stroke-miterlimit="10" d="M18.513,50.962
		c-1.558-0.069-3.15,0.166-4.7,0.757c-6.057,2.31-9.094,9.091-6.785,15.146s9.091,9.094,15.146,6.783
		c0.197-0.076,0.384-0.166,0.576-0.252L18.513,50.962z"/>
	<path fill="#D6774F" d="M18.921,53.975c-0.187,0.057-0.375,0.08-0.561,0.15c-4.565,1.74-6.853,6.853-5.113,11.417
		c1.421,3.729,5.093,5.896,8.879,5.633L18.921,53.975z"/>
	<path fill="#343433" d="M19.868,58.643c-0.298,0.053-0.596,0.127-0.889,0.24c-2.53,0.965-3.8,3.799-2.833,6.33
		c0.856,2.25,3.19,3.493,5.477,3.066L19.868,58.643z"/>
	<path fill="#ECEFF0" stroke="#A0404E" stroke-miterlimit="10" d="M44.029,98.506c-0.807,1.333-1.885,2.53-3.237,3.492
		c-5.279,3.758-12.607,2.525-16.365-2.755s-2.524-12.606,2.757-16.365c0.173-0.123,0.352-0.226,0.528-0.34L44.029,98.506z"/>
	<path fill="#D6774F" d="M42.581,97.41c-0.151,0.122-0.277,0.265-0.438,0.377c-4.005,2.802-9.52,1.823-12.318-2.179
		c-2.287-3.271-2.019-7.525,0.326-10.509L42.581,97.41z"/>
	<path fill="#343433" d="M38.523,93.155c-0.208,0.219-0.436,0.424-0.691,0.606c-2.207,1.571-5.27,1.055-6.841-1.153
		c-1.396-1.962-1.136-4.592,0.488-6.259L38.523,93.155z"/>
</g>
<g>
	
		<rect x="88.25" y="125.49" transform="matrix(-0.9971 0.076 -0.076 -0.9971 272.3894 324.1735)" fill="#D14F51" width="83.556" height="83.557"/>
	<g>
		<path fill="#A0404E" d="M113.02,192.586c0,0,0.328-0.634,0.964-1.692c0.296-0.539,0.743-1.149,1.313-1.833
			c0.282-0.34,0.567-0.734,0.906-1.098c0.357-0.348,0.73-0.715,1.12-1.097c0.199-0.188,0.404-0.384,0.612-0.58
			c0.226-0.174,0.454-0.352,0.688-0.532c0.48-0.354,0.977-0.72,1.487-1.096c1.091-0.63,2.239-1.355,3.531-1.853
			c0.633-0.28,1.285-0.563,1.966-0.753c0.677-0.208,1.361-0.448,2.063-0.617c0.702-0.149,1.409-0.313,2.123-0.449l0.27-0.053
			l0.132-0.027l0.034-0.007l0.149-0.019l0.064-0.007l0.518-0.055l1.034-0.106l1.036-0.09l0.518-0.046
			c0.186-0.005,0.387,0.008,0.578,0.012c0.776,0.016,1.552,0.065,2.315,0.106c0.775,0.012,1.469,0.234,2.189,0.356
			c0.71,0.147,1.42,0.26,2.069,0.53c0.66,0.235,1.311,0.453,1.934,0.694c0.612,0.267,1.185,0.571,1.743,0.854
			c1.144,0.54,2.091,1.229,2.993,1.817c0.903,0.58,1.628,1.243,2.31,1.774c0.684,0.526,1.224,1.055,1.679,1.475
			c0.905,0.844,1.394,1.363,1.394,1.363s-0.68-0.229-1.819-0.692c-0.565-0.231-1.253-0.511-2.042-0.834
			c-0.793-0.295-1.652-0.706-2.616-1.042c-0.961-0.34-1.965-0.792-3.064-1.083c-0.544-0.156-1.089-0.366-1.657-0.512
			c-0.578-0.11-1.156-0.251-1.744-0.381c-0.582-0.161-1.192-0.203-1.801-0.273c-0.304-0.037-0.61-0.072-0.917-0.107
			c-0.308-0.05-0.612-0.087-0.91-0.069c-0.602,0.001-1.201,0.007-1.807-0.021c-0.152-0.001-0.297-0.015-0.458-0.009l-0.517,0.054
			l-1.035,0.104l-1.036,0.09l-0.518,0.046l-0.063,0.004l-0.017,0.004c-0.11,0.013,0.133-0.019,0.103-0.014l-0.03,0.005l-0.12,0.022
			l-0.241,0.042c-0.642,0.124-1.288,0.216-1.926,0.322c-1.245,0.297-2.504,0.515-3.651,0.909c-1.19,0.308-2.258,0.786-3.324,1.172
			c-0.507,0.242-1.002,0.479-1.479,0.708c-0.242,0.113-0.481,0.224-0.715,0.335c-0.224,0.131-0.441,0.26-0.655,0.386
			c-0.438,0.25-0.856,0.487-1.256,0.714c-0.398,0.229-0.734,0.491-1.081,0.717c-0.672,0.464-1.309,0.853-1.776,1.262
			C113.61,192.181,113.02,192.586,113.02,192.586z"/>
	</g>
	<g>
		<path fill="#343433" d="M95.43,139.658c0,0,2.072,0.369,5.105,1.222c1.517,0.432,3.281,0.958,5.142,1.622
			c1.878,0.632,3.825,1.444,5.772,2.288c0.965,0.447,1.963,0.826,2.928,1.258c0.963,0.432,1.927,0.833,2.771,1.388
			c0.845,0.548,1.639,1.106,2.315,1.76c0.687,0.636,1.326,1.23,1.855,1.87c0.533,0.629,0.993,1.232,1.375,1.787
			c0.382,0.558,0.665,1.095,0.892,1.534c0.453,0.88,0.635,1.435,0.635,1.435l-0.344,0.361c0,0-0.59-0.134-1.487-0.46
			c-0.456-0.154-0.965-0.386-1.563-0.621c-0.607-0.229-1.263-0.511-1.945-0.846c-0.685-0.334-1.451-0.664-2.199-1.081
			c-0.751-0.413-1.567-0.82-2.339-1.348c-0.765-0.535-1.559-1.104-2.332-1.736c-0.779-0.628-1.618-1.203-2.456-1.775
			c-0.862-0.543-1.727-1.085-2.574-1.618c-0.872-0.499-1.702-1.051-2.538-1.527c-1.656-0.977-3.228-1.867-4.588-2.611
			c-2.719-1.495-4.582-2.426-4.582-2.426L95.43,139.658z"/>
	</g>
	<g>
		<path fill="#343433" d="M160.647,133.636c-0.001,0.001-1.633,1.293-3.984,3.32c-1.177,1.008-2.529,2.204-3.948,3.502
			c-0.721,0.64-1.42,1.349-2.168,2.018c-0.72,0.697-1.451,1.405-2.185,2.115c-0.701,0.733-1.406,1.469-2.037,2.245
			c-0.627,0.778-1.285,1.497-1.924,2.18c-0.646,0.674-1.361,1.243-2.01,1.803c-0.648,0.562-1.33,1.043-1.929,1.51
			c-0.599,0.47-1.183,0.882-1.729,1.231c-0.538,0.354-0.986,0.685-1.402,0.93c-0.812,0.506-1.358,0.758-1.358,0.758l-0.414-0.281
			c0,0,0.064-0.581,0.325-1.538c0.132-0.477,0.298-1.059,0.558-1.684c0.259-0.623,0.585-1.307,0.978-2.034
			c0.383-0.733,0.887-1.45,1.429-2.212c0.525-0.778,1.188-1.489,1.901-2.2c0.711-0.716,1.571-1.31,2.423-1.93
			c0.856-0.62,1.756-1.2,2.604-1.834c1.731-1.228,3.472-2.424,5.176-3.431c1.685-1.035,3.304-1.914,4.696-2.649
			c2.791-1.461,4.743-2.251,4.742-2.251L160.647,133.636z"/>
	</g>
	<g>
		<path fill="#A0404E" d="M123.475,158.26c0,0,0.219-0.376,0.49-0.916c0.138-0.272,0.3-0.591,0.473-0.934
			c0.178-0.343,0.32-0.726,0.489-1.104c0.159-0.38,0.335-0.762,0.473-1.126c0.112-0.37,0.215-0.716,0.305-1.013
			c0.182-0.608,0.301-1.012,0.301-1.012s0.004,0.421,0.01,1.052c0.003,0.322,0.003,0.698,0.007,1.102
			c-0.027,0.4-0.084,0.821-0.126,1.249c-0.052,0.425-0.081,0.86-0.15,1.258c-0.071,0.401-0.135,0.775-0.19,1.096
			c-0.11,0.652-0.206,1.049-0.206,1.049L123.475,158.26z"/>
	</g>
	<g>
		<path fill="#A0404E" d="M134.476,158.25c0,0-0.049-0.09-0.135-0.25c-0.087-0.142-0.208-0.453-0.346-0.768
			c-0.066-0.161-0.138-0.337-0.216-0.521c-0.079-0.183-0.104-0.373-0.16-0.569c-0.095-0.39-0.2-0.804-0.303-1.218
			c-0.124-0.404-0.129-0.832-0.18-1.219c-0.041-0.388-0.079-0.749-0.109-1.059c-0.063-0.609-0.103-1.017-0.103-1.017
			s0.162,0.377,0.406,0.943c0.121,0.279,0.263,0.604,0.413,0.953c0.159,0.343,0.281,0.724,0.514,1.055
			c0.206,0.337,0.41,0.672,0.603,0.986c0.101,0.149,0.177,0.318,0.282,0.433c0.098,0.115,0.191,0.225,0.277,0.327
			c0.182,0.203,0.275,0.356,0.421,0.485c0.128,0.125,0.203,0.194,0.203,0.194L134.476,158.25z"/>
	</g>
	<path fill="#FFFFFF" stroke="#A0404E" stroke-width="0.75" stroke-miterlimit="10" d="M102.479,153.177
		c-0.693,1.396-1.123,2.948-1.21,4.604c-0.34,6.473,4.632,11.995,11.104,12.335c6.471,0.339,11.995-4.634,12.333-11.104
		c0.01-0.211,0.003-0.418,0.002-0.629L102.479,153.177z"/>
	<path fill="#D6774F" d="M105.4,154.024c-0.023,0.193-0.078,0.375-0.089,0.573c-0.257,4.879,3.492,9.041,8.37,9.297
		c3.985,0.209,7.452-2.271,8.745-5.84L105.4,154.024z"/>
	<path fill="#343433" d="M110.052,155.048c-0.072,0.293-0.125,0.596-0.141,0.909c-0.142,2.704,1.936,5.014,4.642,5.154
		c2.404,0.126,4.485-1.504,5.021-3.769L110.052,155.048z"/>
	<path fill="#ECEFF0" stroke="#A0404E" stroke-miterlimit="10" d="M156.283,149.088c0.892,1.277,1.551,2.748,1.883,4.374
		c1.3,6.349-2.794,12.551-9.144,13.85c-6.349,1.299-12.549-2.794-13.849-9.145c-0.042-0.208-0.063-0.413-0.097-0.621
		L156.283,149.088z"/>
	<path fill="#D6774F" d="M154.694,149.969c0.051,0.188,0.13,0.361,0.168,0.554c0.94,4.796-2.187,9.442-6.979,10.383
		c-3.916,0.768-7.698-1.2-9.478-4.552L154.694,149.969z"/>
	<path fill="#343433" d="M149.161,151.957c0.116,0.279,0.212,0.57,0.275,0.878c0.543,2.654-1.169,5.245-3.823,5.788
		c-2.359,0.483-4.659-0.819-5.526-2.979L149.161,151.957z"/>
</g>
</svg>
