<?xml version="1.0" encoding="utf-8"?>
<!-- Generator: Adobe Illustrator 16.0.0, SVG Export Plug-In . SVG Version: 6.00 Build 0)  -->
<!DOCTYPE svg PUBLIC "-//W3C//DTD SVG 1.1//EN" "http://www.w3.org/Graphics/SVG/1.1/DTD/svg11.dtd">
<svg version="1.1" id="Layer_1" xmlns="http://www.w3.org/2000/svg" xmlns:xlink="http://www.w3.org/1999/xlink" x="0px" y="0px"
	 width="352.055px" height="419px" viewBox="0 0 352.055 419" enable-background="new 0 0 352.055 419" xml:space="preserve">
<g>
	
		<rect x="-37.829" y="220.154" transform="matrix(0.3243 0.9459 -0.9459 0.3243 318.1941 161.9552)" fill="#F99B1F" width="167.116" height="167.116"/>
	<path fill="#BD6F2A" d="M36.131,314.558c-4.061-3.661-3.648-10.643-3.648-10.643s5.831,3.534,9.538,2.637
		C42.019,306.551,37.655,309.619,36.131,314.558z"/>
	<g>
		<path fill="#F8D38E" stroke="#DC8528" stroke-width="2" stroke-miterlimit="10" d="M27.946,263.665
			c-3.38-1.003-12.06-1.814-11.885,7.587c0,0,0.308,4.09,3.976,6.242c0,0,5.492,23.265,13.079,27.842
			c1.798,1.085,3.521,2.175,9.018,1.223C42.135,306.558,43.585,268.303,27.946,263.665z"/>
		<path fill="#F8D38E" stroke="#DC8528" stroke-width="2" stroke-miterlimit="10" d="M57.25,349.134
			c-2.055,2.863-8.41,8.831-14.039,1.3c0,0-2.269-3.418-0.691-7.366c0,0-9.88-21.925-6.699-30.193
			c0.754-1.963,1.389-3.696,6.314-6.316C42.135,306.558,66.751,335.875,57.25,349.134z"/>
	</g>
	<path fill="none" d="M25.978,295.365c0,0,2.591,5.876,4.945,7.529c0,0,5.104,5.018,10.789,3.81c0,0-4.136,1.472-5.916,8.35
		c0,0-0.975,5.452,0.447,10.253"/>
	<g>
		<circle fill="#30302F" cx="29.033" cy="269.893" r="1.036"/>
		<circle fill="#30302F" cx="25.566" cy="269.006" r="1.036"/>
		<circle fill="#30302F" cx="28.712" cy="273.354" r="1.037"/>
		<circle fill="#30302F" cx="22.185" cy="274.497" r="1.036"/>
		<circle fill="#30302F" cx="25.105" cy="272.333" r="1.036"/>
		<circle fill="#30302F" cx="25.288" cy="276.062" r="1.036"/>
		<circle fill="#30302F" cx="51.475" cy="338.371" r="1.037"/>
		<circle fill="#30302F" cx="54.6" cy="338.394" r="1.036"/>
		<circle fill="#30302F" cx="49.072" cy="341.528" r="1.036"/>
		<circle fill="#30302F" cx="48.433" cy="338.525" r="1.036"/>
		<circle fill="#30302F" cx="46.561" cy="341.356" r="1.036"/>
		<circle fill="#30302F" cx="54.858" cy="341.799" r="1.036"/>
	</g>
	<g>
		<path fill="none" stroke="#454546" stroke-width="2" stroke-miterlimit="10" d="M54.657,341.867c0,0,12.926,12.551,5.714,27.251"
			/>
		<path fill="none" stroke="#454546" stroke-width="2" stroke-miterlimit="10" d="M51.378,338.403c0,0,10.782,13.936,2.446,34.424"
			/>
		<path fill="none" stroke="#454546" stroke-width="2" stroke-miterlimit="10" d="M48.982,341.558c0,0,8.806,16.608-2.655,29.827"/>
		<path fill="none" stroke="#454546" stroke-width="2" stroke-miterlimit="10" d="M46.54,341.296c0,0,4.493,13.104-7.011,26.033"/>
		<path fill="none" stroke="#454546" stroke-width="2" stroke-miterlimit="10" d="M25.633,268.981c0,0,2.444-17.123-11.124-25.05"/>
		<path fill="none" stroke="#454546" stroke-width="2" stroke-miterlimit="10" d="M22.243,274.479c0,0-1.546-19.356-17.89-21.409"/>
		<path fill="none" stroke="#454546" stroke-width="2" stroke-miterlimit="10" d="M29.062,269.852c0,0,7.333-16.063-8.633-29.996"/>
	</g>
	<path fill="#EBF0F0" stroke="#DC8528" stroke-miterlimit="10" d="M90.799,305.445c-2.064-6.022-8.187-9.744-15.365-10.104
		c5.291-4.675,7.743-11.269,5.706-17.207c-2.912-8.492-13.886-12.421-24.514-8.777C46,273,39.743,282.838,42.653,291.328
		c1.283,3.741,4.132,6.594,7.825,8.308l-2.795,2.717l1.987,5.798l2.525,2.127c-0.802,2.759-0.82,5.631,0.116,8.363
		c2.912,8.491,13.888,12.419,24.517,8.773C87.455,323.772,93.71,313.936,90.799,305.445z"/>
	<circle fill="#2D2C2C" cx="63.671" cy="309.992" r="4.772"/>
	<circle fill="#2D2C2C" cx="60.115" cy="290.986" r="4.772"/>
	
		<ellipse transform="matrix(-0.3243 -0.9459 0.9459 -0.3243 -224.7649 448.6549)" fill="#E54244" cx="47.851" cy="304.601" rx="10.234" ry="7.401"/>
</g>
<g>
	
		<rect x="106.641" y="-36.812" transform="matrix(-0.974 0.2266 -0.2266 -0.974 386.0399 49.1748)" fill="#F99B1F" width="167.113" height="167.113"/>
	<path fill="#BD6F2A" d="M180.387,36.102c4.055-3.669,10.959-2.549,10.959-2.549s-4.109,5.443-3.593,9.221
		C187.753,42.773,185.145,38.12,180.387,36.102z"/>
	<g>
		<path fill="#F8D38E" stroke="#DC8528" stroke-width="2" stroke-miterlimit="10" d="M231.847,33.127
			c1.34-3.26,3.03-11.813-6.341-12.595c0,0-4.101-0.109-6.612,3.321c0,0-23.702,3.102-29.025,10.185
			c-1.263,1.679-2.522,3.282-2.134,8.847C187.735,42.887,225.645,48.214,231.847,33.127z"/>
		<path fill="#F8D38E" stroke="#DC8528" stroke-width="2" stroke-miterlimit="10" d="M143.846,53.601
			c-2.643-2.334-7.935-9.263,0.133-14.1c0,0,3.627-1.908,7.396,0.062c0,0,22.815-7.603,30.718-3.599
			c1.875,0.95,3.536,1.758,5.643,6.923C187.735,42.887,156.07,64.401,143.846,53.601z"/>
	</g>
	<path fill="none" d="M200.509,27.951c0,0-6.108,1.98-7.989,4.155c0,0-5.512,4.567-4.888,10.346c0,0-1.044-4.265-7.704-6.732
		c0,0-5.327-1.525-10.247-0.597"/>
	<g>
		<circle fill="#30302F" cx="225.542" cy="33.576" r="1.036"/>
		<circle fill="#30302F" cx="226.775" cy="30.217" r="1.036"/>
		<circle fill="#30302F" cx="222.131" cy="32.906" r="1.037"/>
		<circle fill="#30302F" cx="221.655" cy="26.297" r="1.036"/>
		<circle fill="#30302F" cx="223.511" cy="29.421" r="1.036"/>
		<circle fill="#30302F" cx="219.785" cy="29.224" r="1.036"/>
		<circle fill="#30302F" cx="155.137" cy="48.949" r="1.037"/>
		<circle fill="#30302F" cx="154.797" cy="52.056" r="1.036"/>
		<circle fill="#30302F" cx="152.24" cy="46.238" r="1.036"/>
		<circle fill="#30302F" cx="155.294" cy="45.907" r="1.036"/>
		<circle fill="#30302F" cx="152.667" cy="43.758" r="1.036"/>
		<circle fill="#30302F" cx="151.384" cy="51.968" r="1.036"/>
	</g>
	<g>
		<path fill="none" stroke="#454546" stroke-width="2" stroke-miterlimit="10" d="M151.334,51.76c0,0-13.796,11.583-27.688,2.916"/>
		<path fill="none" stroke="#454546" stroke-width="2" stroke-miterlimit="10" d="M155.115,48.849c0,0-14.959,9.312-34.495-1.06"/>
		<path fill="none" stroke="#454546" stroke-width="2" stroke-miterlimit="10" d="M152.221,46.146c0,0-17.418,7.075-29.402-5.671"/>
		<path fill="none" stroke="#454546" stroke-width="2" stroke-miterlimit="10" d="M152.729,43.742c0,0-13.492,3.139-25.186-9.619"/>
		<path fill="none" stroke="#454546" stroke-width="2" stroke-miterlimit="10" d="M226.792,30.287c0,0,16.788,4.169,26.051-8.523"/>
		<path fill="none" stroke="#454546" stroke-width="2" stroke-miterlimit="10" d="M221.668,26.355c0,0,19.413,0.429,23.116-15.623"
			/>
		<path fill="none" stroke="#454546" stroke-width="2" stroke-miterlimit="10" d="M225.58,33.609c0,0,15.233,8.927,30.717-5.542"/>
	</g>
	<path fill="#EBF0F0" stroke="#DC8528" stroke-miterlimit="10" d="M183.901,91.414c6.201-1.443,10.525-7.157,11.613-14.26
		c4.112,5.738,10.423,8.846,16.537,7.424c8.743-2.034,13.767-12.553,11.222-23.497c-2.548-10.942-11.697-18.166-20.438-16.132
		c-3.854,0.896-6.98,3.441-9.061,6.94l-2.42-3.057l-5.969,1.389l-2.373,2.296c-2.664-1.078-5.518-1.389-8.333-0.733
		c-8.742,2.034-13.766,12.555-11.219,23.498C166.007,86.225,175.159,93.447,183.901,91.414z"/>
	<circle fill="#2D2C2C" cx="182.133" cy="63.963" r="4.772"/>
	<circle fill="#2D2C2C" cx="201.401" cy="62.356" r="4.772"/>
	
		<ellipse transform="matrix(0.974 -0.2266 0.2266 0.974 -6.1315 44.1191)" fill="#E54244" cx="189.098" cy="48.766" rx="10.233" ry="7.401"/>
</g>
</svg>
