<?xml version="1.0" encoding="utf-8"?>
<!-- Generator: Adobe Illustrator 16.0.0, SVG Export Plug-In . SVG Version: 6.00 Build 0)  -->
<!DOCTYPE svg PUBLIC "-//W3C//DTD SVG 1.1//EN" "http://www.w3.org/Graphics/SVG/1.1/DTD/svg11.dtd">
<svg version="1.1" id="Layer_1" xmlns="http://www.w3.org/2000/svg" xmlns:xlink="http://www.w3.org/1999/xlink" x="0px" y="0px"
	 width="231.278px" height="287.835px" viewBox="0 0 231.278 287.835" enable-background="new 0 0 231.278 287.835"
	 xml:space="preserve">
<g>
	
		<rect x="131.538" y="100.292" transform="matrix(-0.9375 0.3479 -0.3479 -0.9375 414.3004 376.8644)" fill="#2A54A0" width="83.556" height="250.67"/>
	<path fill="none" stroke="#231F20" stroke-width="4" stroke-miterlimit="10" d="M150.047,162.747"/>
	<path fill="#1F4D83" d="M181.782,139.389c5.862,7.406,5.387,22.651-6.793,28.657c-13.288,6.551-19.563-1.209-22.85-10.066
		c-0.231-0.626-0.836-1.286-0.556-1.818c1.291-2.453,5.139-3.125,6.286-5.155c2.015-3.564,1.363-7.084,6.655-9.048
		C173.464,138.641,177.966,134.566,181.782,139.389z"/>
	<g>
		<g>
			<path id="XMLID_4_" fill="#F3F2EF" d="M153.891,159.667c3.63,4.539,10.913,6.18,17.983,3.557
				c8.406-3.119,13.22-11.045,10.75-17.701c-0.804-2.164-3.98-6.631-5.895-7.918l-11.845,6.023L153.891,159.667z"/>
		</g>
	</g>
	<polygon fill="#C03B2B" points="179.665,140.661 177.761,141.487 176.317,144.462 173.849,144.486 176.522,144.72 177.745,142.033 
		178.387,145.438 174.435,148.168 178.724,145.61 178.087,142.53 178.134,141.67 179.087,141.101 	"/>
	<polygon fill="#C03B2B" points="177.497,160.036 175.897,158.747 172.083,158.922 170.314,157.231 171.918,159.231 
		175.525,159.044 174.224,161.347 170.958,161.216 174.323,161.572 175.844,159.006 176.015,159.079 	"/>
	<polygon fill="#C03B2B" points="161.852,164.183 163.562,162.88 163.59,160.095 164.636,158.86 163.407,159.928 163.317,162.635 
		161.418,160.631 161.976,158.748 161.19,160.685 163.22,162.839 	"/>
	<polygon fill="#C03B2B" points="181.184,153.15 181.975,154.53 181.068,153.378 178.931,153.479 177.61,154.768 177.886,156.682 
		177.268,154.698 178.818,153.131 179.497,150.917 178.409,151.065 176.524,152.567 174.992,152.026 176.433,152.332 
		178.146,150.988 176.626,150.956 175.948,149.819 176.719,150.787 178.378,150.814 179.654,150.608 179.728,149.485 
		177.41,148.708 180.04,149.327 179.869,150.79 179.066,153.169 180.898,153.015 181.064,150.581 183.263,149.565 181.287,150.687 	
		"/>
	<path fill="#1F4D83" d="M111.546,165.452c0.388,9.438,10.989,20.744,24.139,17.35c14.346-3.701,13.741-13.738,10.455-22.596
		c-0.313-0.84-2.633-1.047-3.167-1.514c-2.45-2.143-5.033-1.318-8.577-1.497c-3.836-0.192-6.148-2.843-10.354-1.283
		C115.103,159.229,111.293,159.307,111.546,165.452z"/>
	<g>
		<path fill="#16385C" d="M174.492,254.006c0,0,0.285-0.043,0.783-0.118c0.242-0.049,0.532-0.115,0.853-0.164
			c0.331-0.068,0.708-0.154,1.112-0.219c0.406-0.084,0.845-0.185,1.308-0.256c0.46-0.098,0.945-0.199,1.444-0.288
			c0.494-0.103,1.012-0.209,1.509-0.333c0.496-0.101,1.03-0.268,1.391-0.385c0.51-0.22,1.019-0.442,1.527-0.644
			c0.449-0.231,0.891-0.46,1.319-0.68c0.433-0.204,0.849-0.454,1.241-0.702c0.389-0.245,0.778-0.459,1.139-0.659
			c0.352-0.21,0.648-0.441,0.937-0.62c0.277-0.19,0.536-0.346,0.747-0.476c0.427-0.257,0.688-0.396,0.688-0.396
			s-0.135,0.251-0.403,0.673c-0.136,0.211-0.3,0.47-0.507,0.752c-0.208,0.281-0.419,0.631-0.718,0.939
			c-0.298,0.311-0.626,0.646-0.991,0.982c-0.359,0.346-0.736,0.717-1.223,1.012c-0.466,0.305-0.945,0.67-1.45,0.949
			c-0.491,0.242-0.999,0.469-1.505,0.698c-0.69,0.237-1.232,0.371-1.814,0.452c-0.572,0.114-1.128,0.125-1.663,0.176
			c-1.071,0.063-2.07,0.03-2.923-0.058c-0.846-0.08-1.574-0.232-2.063-0.363C174.757,254.123,174.492,254.006,174.492,254.006z"/>
	</g>
	<g>
		<path fill="#16385C" d="M167.167,245.071c0,0,0.105-0.039,0.304-0.112c0.198-0.056,0.484-0.187,0.856-0.257
			c0.365-0.087,0.856-0.188,1.351-0.286c0.493-0.089,1.048-0.191,1.653-0.302c0.594-0.093,1.221-0.206,1.86-0.34
			c0.648-0.091,1.299-0.281,1.968-0.413c0.673-0.117,1.316-0.385,1.995-0.52c0.337-0.08,0.647-0.25,0.98-0.343l0.493-0.161
			l0.248-0.081l0.125-0.037l0.061-0.021c0.145-0.06-0.188,0.08-0.149,0.064l0.009-0.006l0.017-0.009l0.034-0.017l1.114-0.492
			c0.301-0.168,0.514-0.293,0.784-0.427c0.238-0.106,0.571-0.345,0.869-0.506c0.305-0.179,0.603-0.356,0.912-0.555
			c1.218-0.743,2.438-1.517,3.551-2.099c1.114-0.592,2.105-1.028,2.843-1.275c0.725-0.261,1.171-0.36,1.171-0.36
			s-0.167,0.437-0.516,1.108c-0.348,0.677-0.851,1.619-1.544,2.666c-0.7,1.054-1.553,2.238-2.714,3.407
			c-0.266,0.302-0.595,0.581-0.924,0.867c-0.343,0.291-0.615,0.569-1.079,0.859c-0.416,0.275-0.874,0.603-1.287,0.819l-1.097,0.531
			l-0.23,0.097l-0.083,0.023l-0.168,0.05l-0.336,0.101l-0.67,0.193c-0.446,0.124-0.895,0.254-1.344,0.321
			c-0.451,0.065-0.9,0.111-1.343,0.151c-0.443,0.048-0.878,0.086-1.306,0.048c-0.853-0.027-1.673-0.072-2.423-0.238
			c-0.377-0.078-0.742-0.14-1.09-0.229c-0.342-0.106-0.671-0.199-0.983-0.308c-0.629-0.197-1.172-0.444-1.654-0.668
			c-0.49-0.216-0.853-0.452-1.193-0.634C167.557,245.32,167.167,245.071,167.167,245.071z"/>
	</g>
	<path fill="#212120" d="M167.592,148.846"/>
	<path fill="#2A2B2A" d="M150.947,156.284l4.037,4.71c0,0,3.759-12.126,13.709-18.695c9.947-6.568,13.017-6.235,13.017-6.235
		l-1.303-0.93c0,0-13.836,2.871-19.226,7.49L150.947,156.284z"/>
	<g>
		<g>
			<path id="XMLID_3_" fill="#F3F2EF" d="M145.973,162.605c0.209,5.808-4.242,11.804-11.312,14.427
				c-8.407,3.119-17.224,0.252-19.693-6.404c-0.804-2.164-1.31-7.622-0.699-9.846l12.907-3.162L145.973,162.605z"/>
		</g>
	</g>
	<path fill="#2A2B2A" d="M145.998,158.12l0.013,6.203c0,0-10.759-6.738-22.586-5.227c-11.824,1.51-13.934,3.766-13.934,3.766
		l0.383-1.557c0,0,12.359-6.848,19.456-6.863L145.998,158.12z"/>
	
		<ellipse transform="matrix(-0.3479 -0.9375 0.9375 -0.3479 24.6895 346.411)" fill="#2A2B2A" cx="132.818" cy="164.619" rx="5.418" ry="7.489"/>
	
		<ellipse transform="matrix(-0.3479 -0.9375 0.9375 -0.3479 78.5364 360.2978)" fill="#2A2B2A" cx="164.571" cy="152.836" rx="5.418" ry="7.489"/>
	<polygon fill="#C03B2B" points="114.041,165.013 116.022,164.396 119.057,165.71 120.944,164.118 119.068,166.04 116.39,164.801 
		118.124,167.8 122.9,167.292 117.983,168.149 116.454,165.4 115.858,164.779 114.511,165.056 	"/>
	<polygon fill="#C03B2B" points="128.322,178.285 128.694,176.264 131.698,173.907 131.937,171.473 132.026,174.034 
		129.168,176.246 131.658,177.142 134.046,174.914 131.73,177.378 128.903,176.425 128.821,176.591 	"/>
	<polygon fill="#C03B2B" points="142.884,171.221 140.74,171.349 138.901,169.256 137.304,169.003 138.93,169.011 140.765,171.003 
		140.896,168.246 139.245,167.183 141.105,168.137 140.97,171.095 	"/>
	<polygon fill="#C03B2B" points="121.036,175.47 121.335,177.032 121.271,175.567 122.956,174.251 124.8,174.364 125.839,175.995 
		125.014,174.089 122.817,173.911 120.857,172.677 121.779,172.079 124.189,171.987 124.995,170.579 124.103,171.751 
		121.927,171.85 123.057,170.834 122.831,169.528 122.878,170.767 121.638,171.87 120.537,172.546 119.747,171.742 120.997,169.642 
		119.409,171.826 120.492,172.823 122.653,174.103 121.163,175.181 119.45,173.444 117.121,174.109 119.351,173.67 	"/>
	<g>
		<g>
			<path fill="#2A2B2A" d="M199.922,217.662c4.8,1.738,5.179,3.058,5.763,4.464c1.979,4.83-7.521,4.35-10.18,3.777
				c-16.521-3.593-17.414-2.836-21.639,0.552l-0.148,0.132l-0.192-0.006c-5.404,0.184-6.579,0.195-16.758,13.696
				c-1.639,2.167-8.538,8.732-10.181,3.778c-0.483-1.443-1.046-2.696,1.462-7.145c0,0-10.35,4.273-2.931,13.841
				c3.577,4.627,11.775,12.328,33.706-10.399c31.447,2.92,32.64-8.266,32.332-14.105
				C210.539,214.156,199.922,217.662,199.922,217.662L199.922,217.662z"/>
		</g>
	</g>
</g>
</svg>
