<?xml version="1.0" encoding="utf-8"?>
<!-- Generator: Adobe Illustrator 16.0.0, SVG Export Plug-In . SVG Version: 6.00 Build 0)  -->
<!DOCTYPE svg PUBLIC "-//W3C//DTD SVG 1.1//EN" "http://www.w3.org/Graphics/SVG/1.1/DTD/svg11.dtd">
<svg version="1.1" id="Layer_1" xmlns="http://www.w3.org/2000/svg" xmlns:xlink="http://www.w3.org/1999/xlink" x="0px" y="0px"
	 width="120px" height="120px" viewBox="0 0 120 120" enable-background="new 0 0 120 120" xml:space="preserve">
<g>
	<path fill="#01AB92" d="M118.764,97.655V48.348L82.49,12.074L14.135,80.429l38.123,38.122h45.61
		C109.409,118.551,118.764,109.195,118.764,97.655z"/>
	<path fill="#2D2C2C" d="M74.286,56.048c0,0-7.19,6.112-9.407,8.33c-2.217,2.215-8.329,9.405-8.329,9.405l-0.739-0.738
		c0,0,6.111-7.189,8.33-9.406c2.217-2.218,9.406-8.33,9.406-8.33L74.286,56.048z"/>
	<path fill="#2D2C2C" d="M66.969,42.693c0,0,8.092-15.989,26.629-10.834l-0.564-0.585c0,0-15.145-11.556-26.133,9.734L66.969,42.693
		z"/>
	<path fill="none" d="M94.111,98.725c0,0,13.447,3.252,17.367,1.354c4.117-1.996,8.004-11.946,3.446-17.98
		c-4.556-6.035-9.853-11.084-9.853-11.084S109.752,85.3,94.111,98.725z"/>
	<path id="XMLID_1_" fill="#068C70" d="M94.111,98.725c0,0,13.447,3.252,17.367,1.354c4.117-1.996,8.004-11.946,3.446-17.98
		c-4.556-6.035-9.853-11.084-9.853-11.084S109.752,85.3,94.111,98.725z"/>
	<path fill="#FFFFFF" d="M98.574,99.652c0,0,12.193-10.385,11.685-23.207l-5.186-5.434c0,0,3.448,15.271-10.962,27.713
		L98.574,99.652z"/>
	<path fill="#2D2C2C" d="M47.216,77.748c-5.896,5.896-9.96,13.918-4.245,19.632c5.713,5.714,16.368,8.265,22.263,2.369
		c1.966-1.965,3.457-5.083,4.367-8.576l-9.604-21.521C55.619,70.382,50.943,74.02,47.216,77.748z"/>
	<path fill="#434343" d="M67.09,71.884c-2.102-2.101-4.547-2.655-7.093-2.231l9.604,21.521C71.421,84.186,70.9,75.693,67.09,71.884z
		"/>
	<path fill="#2D2C2C" d="M78.825,46.14c-5.896,5.895-9.958,13.916-4.245,19.629c5.025,5.023,16.943,4.521,23.758,0.317L86.66,39.921
		C83.879,41.495,81.165,43.799,78.825,46.14z"/>
	<path fill="#434343" d="M98.699,40.275c-3.444-3.445-7.817-2.744-12.039-0.354l11.678,26.166c0.936-0.577,1.778-1.22,2.489-1.931
		C106.721,58.262,104.413,45.989,98.699,40.275z"/>
	<path fill="#EEF3F5" d="M82.49,12.074l36.273,36.274V21.901c0-11.54-9.354-20.896-20.896-20.896H22.113
		c-11.541,0-20.896,9.355-20.896,20.896v75.754c0,11.54,9.355,20.896,20.896,20.896h30.145L14.135,80.429L82.49,12.074z"/>
</g>
</svg>
