<?xml version="1.0" encoding="utf-8"?>
<!-- Generator: Adobe Illustrator 16.0.0, SVG Export Plug-In . SVG Version: 6.00 Build 0)  -->
<!DOCTYPE svg PUBLIC "-//W3C//DTD SVG 1.1//EN" "http://www.w3.org/Graphics/SVG/1.1/DTD/svg11.dtd">
<svg version="1.1" id="Layer_1" xmlns="http://www.w3.org/2000/svg" xmlns:xlink="http://www.w3.org/1999/xlink" x="0px" y="0px"
	 width="256.056px" height="351.834px" viewBox="0 0 256.056 351.834" enable-background="new 0 0 256.056 351.834"
	 xml:space="preserve">
<g>
	
		<rect x="-18.819" y="160.13" transform="matrix(-0.6165 -0.7874 0.7874 -0.6165 -120.1204 512.4183)" fill="#984C9D" width="167.111" height="250.667"/>
	<g>
		
			<ellipse transform="matrix(0.7301 -0.6833 0.6833 0.7301 -155.344 159.3695)" fill="#EBF0F0" cx="124.09" cy="276.351" rx="25.109" ry="25.428"/>
		
			<ellipse transform="matrix(0.7301 -0.6834 0.6834 0.7301 -156.4368 161.6194)" fill="#984C9D" cx="126.358" cy="278.826" rx="16.375" ry="16.582"/>
		
			<ellipse transform="matrix(0.7301 -0.6833 0.6833 0.7301 -155.5016 162.0146)" fill="#2D2C2C" cx="127.365" cy="277.877" rx="11.361" ry="11.504"/>
		<path fill="#652A6B" d="M103.582,260.038c33.789-30.388,63.744,16.078,33.766,39.551
			C138.03,292.966,121.336,276.543,103.582,260.038z"/>
	</g>
	<g>
		<circle fill="#EBF0F0" cx="83.54" cy="236.617" r="25.427"/>
		<circle fill="#984C9D" cx="86.007" cy="240.237" r="14.226"/>
		<circle fill="#2D2C2C" cx="86.889" cy="239.412" r="9.869"/>
		<path fill="#652A6B" d="M98.529,258.071c33.232-31.145-9.73-65.018-36.038-37.493C69.147,220.553,83.849,238.78,98.529,258.071z"
			/>
	</g>
	<path fill="#2D2C2C" d="M88.952,202.222c10.463,11.128,24.207,23.391,35.271,35.066c13.781,14.547,28.49,29.306,31.886,36.066
		c1.112,2.21,3.405,1.341,4.015-1.253c2.76-11.779-53.737-61.652-69.354-72.31C90.443,199.88,88.689,201.529,88.952,202.222z"/>
	<g>
		<path fill="#67296A" d="M10.921,301.052c0,0,1.014,0.085,2.753,0.436c0.87,0.175,1.924,0.402,3.117,0.729
			c1.192,0.326,2.54,0.701,3.974,1.216c1.444,0.489,2.993,1.07,4.601,1.761c1.605,0.697,3.283,1.477,4.971,2.381
			c1.693,0.891,3.406,1.891,5.097,2.989c1.689,1.098,3.366,2.281,4.974,3.559c1.609,1.273,3.154,2.631,4.614,4.033
			c0.728,0.703,1.42,1.431,2.109,2.145c0.658,0.741,1.319,1.465,1.94,2.201c0.598,0.759,1.203,1.486,1.762,2.226
			c0.536,0.757,1.06,1.496,1.57,2.216c0.468,0.747,0.924,1.474,1.364,2.177c0.429,0.708,0.787,1.43,1.16,2.1
			c0.755,1.332,1.283,2.643,1.791,3.771c0.456,1.158,0.839,2.168,1.114,3.012c0.516,1.704,0.761,2.68,0.761,2.68
			s-0.57-0.849-1.482-2.339c-0.481-0.727-1.066-1.609-1.738-2.622c-0.341-0.498-0.731-1.012-1.127-1.56
			c-0.392-0.55-0.79-1.133-1.255-1.708c-0.882-1.183-1.917-2.397-2.987-3.69c-0.557-0.627-1.129-1.27-1.714-1.929
			c-0.605-0.639-1.222-1.291-1.851-1.954c-0.647-0.642-1.305-1.295-1.973-1.955c-0.688-0.637-1.386-1.281-2.089-1.932
			c-1.442-1.262-2.906-2.542-4.449-3.732c-1.511-1.229-3.097-2.364-4.659-3.485c-0.794-0.545-1.58-1.085-2.356-1.62
			c-0.795-0.508-1.568-1.035-2.347-1.522c-3.105-1.968-6.1-3.683-8.712-5.104c-2.619-1.404-4.847-2.526-6.427-3.29
			C11.831,301.483,10.921,301.052,10.921,301.052z"/>
	</g>
</g>
</svg>
