<?xml version="1.0" encoding="utf-8"?>
<!-- Generator: Adobe Illustrator 16.0.0, SVG Export Plug-In . SVG Version: 6.00 Build 0)  -->
<!DOCTYPE svg PUBLIC "-//W3C//DTD SVG 1.1//EN" "http://www.w3.org/Graphics/SVG/1.1/DTD/svg11.dtd">
<svg version="1.1" xmlns="http://www.w3.org/2000/svg" xmlns:xlink="http://www.w3.org/1999/xlink" x="0px" y="0px" width="1920px"
	 height="1080px" viewBox="0 0 1920 1080" enable-background="new 0 0 1920 1080" xml:space="preserve">
<g id="Layer_1">
</g>
<g id="Layer_2">
	<rect x="-8.278" y="-15.236" fill="#8DC2E9" width="1943.195" height="1119.112"/>
	<rect x="-8.278" y="544.32" fill="#90C695" width="1938.278" height="550.68"/>
	<g>
		<polygon fill="#676767" points="1067.334,359.81 1063.615,358.106 1063.615,307.203 1065.743,307.203 		"/>
		<polygon fill="#4E4E4E" points="1060.516,285.914 1062.022,288.377 1022.547,327.854 1021.36,326.03 		"/>
		<polygon fill="#4E4E4E" points="1071.602,285.914 1073.518,288.377 1034.871,327.022 1032.854,326.03 		"/>
		<polygon fill="#4E4E4E" points="1082.781,286.871 1085.763,288.994 1046.916,326.508 1044.346,326.03 		"/>
		<polygon fill="#4E4E4E" points="1093.117,288.786 1096.504,288.994 1058.075,328.29 1057.116,325.413 		"/>
		<polygon fill="#4E4E4E" points="1094.178,306.763 1092.899,307.968 1032.728,308.538 1031.666,306.032 		"/>
		<polygon fill="#4E4E4E" points="1104.188,286.871 1107.01,289.367 1068.725,327.854 1067.334,326.03 		"/>
	</g>
	<g>
		<polygon fill="#BDC3C7" points="1256.339,347.245 1001.971,351.716 1007.787,533.736 1248.033,533.736 		"/>
		<rect x="1032.559" y="375.998" fill="#95A5A6" width="193.75" height="157.738"/>
		<polygon fill="#6C7A89" points="1228.227,388.718 1030.643,388.718 1032.559,376.941 1226.309,376.941 		"/>
		<polygon fill="#6C7A89" points="1228.227,401.966 1030.643,401.966 1032.559,390.189 1226.309,390.189 		"/>
		<polygon fill="#6C7A89" points="1228.227,415.213 1030.643,415.213 1032.559,403.438 1226.309,403.438 		"/>
		<polygon fill="#6C7A89" points="1228.227,428.46 1030.643,428.46 1032.559,416.686 1226.309,416.686 		"/>
		<polygon fill="#6C7A89" points="1228.227,441.709 1030.643,441.709 1032.559,429.935 1226.309,429.935 		"/>
		<polygon fill="#6C7A89" points="1228.227,454.955 1030.643,454.955 1032.559,443.182 1226.309,443.182 		"/>
		<polygon fill="#6C7A89" points="1228.227,468.203 1030.643,468.203 1032.559,456.429 1226.309,456.429 		"/>
		<polygon fill="#6C7A89" points="1228.227,481.452 1030.643,481.452 1032.559,469.676 1226.309,469.676 		"/>
		<polygon fill="#6C7A89" points="1228.227,494.7 1030.643,494.7 1032.559,482.924 1226.309,482.924 		"/>
		<polygon fill="#6C7A89" points="1228.227,507.776 1030.643,507.776 1032.559,496 1226.309,496 		"/>
		<polygon fill="#6C7A89" points="1228.227,521.023 1030.643,521.023 1032.559,509.248 1226.309,509.248 		"/>
		<polygon fill="#6C7A89" points="1228.227,531.819 1030.643,531.819 1032.559,522.495 1226.309,522.495 		"/>
	</g>
	<g>
		<polygon fill="#818181" points="1170.638,311.873 1152.01,334.186 1149.184,331.127 1169.84,311.571 		"/>
		<path fill="none" d="M1141.72,299.602c0,0-4.714,29.667,23.179,39.506l-0.863,5.475l-14.603-1.291l-2.823-2.113l-4.707-2.082
			l-7.578-2.395l-8.2-12.992l7.775-19.381l6.495-6.1h1.382L1141.72,299.602z"/>
		<polygon fill="#818181" points="1170.921,309.809 1140.09,309.44 1140.828,313.064 1170.104,310.626 		"/>
		<polygon fill="#676767" points="1141.352,350.545 1146.783,349.324 1146.609,341.178 1141.902,339.096 		"/>
		<path fill="#818181" d="M1164.898,339.107c-1.59-27.944-23.179-39.506-23.179-39.506S1137.006,329.268,1164.898,339.107z"/>
		<polygon fill="#B4B4B4" points="1171.596,312.315 1162.118,339.096 1158.39,337.234 1170.744,312.315 		"/>
		<polygon fill="#B4B4B4" points="1140.421,318.934 1169.596,310.811 1169.932,311.373 1142.441,323.938 		"/>
		<polygon fill="#B4B4B4" points="1170.638,308.802 1140.5,302.306 1140.5,306.003 1169.999,309.44 		"/>
		<path fill="#CDCCCC" d="M1164.898,339.107c-27.893-9.839-23.179-39.506-23.179-39.506c-10.915,6.393-14.57,20.429-8.165,31.342
			c0.188,0.311,0.441,0.561,0.629,0.863c1.298,2.083,2.977,3.677,2.977,3.677c1.43,1.429,3.022,2.625,4.742,3.613l4.707,2.082
			C1152.523,342.993,1164.898,339.107,1164.898,339.107z"/>
		<path fill="#CDCCCC" d="M1176.6,310.05c0,2.235-1.813,4.047-4.044,4.047c-2.234,0-4.049-1.812-4.049-4.047
			c0-2.234,1.814-4.047,4.049-4.047C1174.787,306.003,1176.6,307.816,1176.6,310.05z"/>
	</g>
	<rect x="-8.278" y="533.736" fill="#95A5A6" width="1943.196" height="40.428"/>
	<g>
		<g>
			<defs>
				<polygon id="XMLID_1_" points="720.177,181.544 716.35,88.087 767.301,88.087 763.201,147.466 				"/>
			</defs>
			<use xlink:href="#XMLID_1_"  overflow="visible" fill="#BDC3C7"/>
			<clipPath id="XMLID_3_">
				<use xlink:href="#XMLID_1_"  overflow="visible"/>
			</clipPath>
			<g clip-path="url(#XMLID_3_)">
				<path fill="#D2D7D4" d="M734.31,164.945l4.593-3.255c0.438-1.917,0.24-4.27,0.268-5.636c0.036-1.608,0.309-4.825-0.57-6.683
					c0.292-0.007,0.59-0.03,0.879-0.039c5.742-0.114,11.434-0.14,17.306-0.314l3.727-2.642c-3.19,0.11-6.181,0.315-9.363,0.537
					c-0.008-2.322-0.239-4.675-0.26-7.001c-0.013-1.673,0.058-3.408-0.391-5.02c5.204-0.002,10.409-0.016,15.616-0.102
					c0.395-0.013,0.794-0.009,1.186-0.009v-1.586c-2.763,0.061-5.536,0.101-8.309,0.107c0.034-2.175,0-4.354-0.056-6.527
					c-0.037-1.324,0.047-2.79-0.274-4.107c2.892,0.16,5.782,0.227,8.64,0.149v-2.414c-6.664-0.133-13.342-0.133-20.011-0.423
					c-0.053-3.89,0.016-7.835-0.201-11.714c-0.005-0.076-0.044-0.114-0.064-0.178c6.793,0.13,13.528,0.485,20.277,0.958v-1.926
					c-2.669-0.208-5.351-0.356-8.037-0.43c-0.039-1.928-0.196-3.854-0.354-5.772c-0.131-1.586-0.131-3.226-0.433-4.796
					c2.948,0.083,5.884,0.17,8.824,0.249v-1.757c-6.813-0.342-13.821,0.166-20.408,0.136c-0.386,0-0.772,0-1.158,0
					c0-0.006,0.005-0.006,0.005-0.018c-0.168-1.269-0.347-2.536-0.436-3.808c-0.019-0.202-0.019-0.41-0.026-0.614h-1.774
					c-0.019,1.514,0.171,3.073,0.42,4.437c-7.397-0.021-14.814,0-22.208,0.308c0.025-0.088,0.058-0.182,0.048-0.289
					c-0.056-1.237-0.228-2.463-0.376-3.686c-0.029-0.255-0.056-0.509-0.085-0.771h-1.634c0.044,1.504,0.393,3.109,0.453,4.457
					c0.005,0.146,0.048,0.261,0.101,0.366c-1.293,0.063-2.581,0.142-3.874,0.214v0.508c4.138,0.196,8.29,0.217,12.444,0.144
					c-0.386,3.299-0.221,6.847-0.221,10.183c-4.091-0.102-8.18-0.137-12.223-0.008v1.641c1.304-0.013,2.608-0.085,3.784-0.085
					c-0.109,1.764,0.075,3.579,0.058,5.34c-0.016,2.173-0.157,4.345-0.147,6.52c-1.238,0.078-2.466,0.182-3.694,0.286v0.979
					c1.446-0.061,2.902-0.096,4.352-0.117c0.045,0.009,0.084,0.009,0.133,0c5.725-0.055,11.453,0.17,17.179,0.505
					c-0.137,1.464,0.152,3.197,0.07,4.644c-0.124,2.384-0.405,4.76-0.509,7.146c-0.006,0.079,0.02,0.148,0.035,0.217
					c-7.094,0.019-14.19,0.167-21.259,0.667v1.246c3.047,0.041,6.094,0.046,9.145,0.017c-0.24,2.134,0.112,4.482,0.065,6.605
					c-0.045,2.22-0.366,4.519-0.146,6.737c-3.019,0.245-6.046,0.489-9.064,0.706v1.374c6.885-0.175,13.783-0.905,20.659-1.177
					c-0.019,0.706,0.139,1.439,0.184,2.13c0.101,1.494,0.108,2.994,0.077,4.5c-0.04,1.499-0.16,2.999-0.33,4.491
					c-0.089,0.785-0.375,1.585-0.337,2.36c-6.758,0.261-13.512,0.708-20.253,1.188v1.564c3.449-0.257,6.905-0.437,10.368-0.566
					C729.306,164.996,731.708,164.962,734.31,164.945z M757.042,122.585c-0.17,1.362,0.07,2.846,0.101,4.19
					c0.049,2.178,0.038,4.356,0.07,6.533c-5.965,0.004-11.935-0.066-17.902-0.066c0.023-0.066,0.05-0.133,0.053-0.21
					c0.109-2.583,0.455-5.14,0.51-7.726c0.02-0.828,0.136-2.774-0.359-3.98c1.604,0.101,3.206,0.198,4.809,0.303
					C748.445,121.903,752.729,122.306,757.042,122.585z M744.835,95.804c4.18,0.056,8.367,0.17,12.553,0.285
					c-0.592,3.33,0.082,7.171,0.217,10.56c-4.199-0.083-8.381-0.067-12.493-0.083c-4.985-0.013-10.065-0.206-15.142-0.348
					c0.076-3.28,0.643-7.041-0.14-10.23C734.841,95.895,739.846,95.747,744.835,95.804z M721.537,119.52
					c0.163-3.683,0.899-8.221-0.29-11.78c6.604,0.222,13.195,0.272,19.805,0.266c1.561-0.005,3.107,0.042,4.655,0.072l-0.005,0.004
					c-0.79,3.796-0.216,7.978-0.143,11.832c-0.414-0.023-0.826-0.023-1.236-0.042C736.707,119.417,729.116,119.155,721.537,119.52z
					 M727.147,148.393c0.283-2.169,0.228-4.437,0.291-6.608c0.06-2.02,0.281-4.603-0.447-6.613c6.816-0.089,13.641-0.27,20.446-0.26
					c0.587,0,1.166-0.01,1.741-0.01c-0.373,1.949-0.214,4.061-0.236,6.018c-0.024,2.016-0.08,4.132,0.342,6.126
					c-2.621,0.176-5.229,0.344-7.792,0.445C736.696,147.666,731.917,148.019,727.147,148.393z"/>
			</g>
		</g>
		<polygon fill="#D2D7D4" points="838.308,110.006 668.421,231.994 668.421,533.736 1008.193,533.736 1005.149,229.04 		"/>
		<polygon fill="#D24E58" points="668.421,229.308 651.469,228.367 843.145,80.778 1022.36,224.534 1008.193,229.308 
			838.308,110.006 		"/>
		<polygon fill="#D24E58" points="770.229,75.479 711.019,81.867 712.097,92.436 771.553,92.436 		"/>
		<polygon fill="#95A5A6" points="668.421,229.308 672.243,229.308 838.308,113.444 1003.608,229.308 1008.193,229.308 
			838.308,110.006 		"/>
		<g>
			<polygon fill="#72B8E5" points="859.27,229.703 817.348,229.703 815.381,172.174 860.108,170.682 			"/>
			<path fill="#E5F0FA" d="M813.464,169.297l2.557,63.575h44.087l3.088-64.961L813.464,169.297z M858.978,194.096h-20.079v-21.705
				l20.783-0.858L858.978,194.096z M836.07,172.391v21.705h-18.433l-0.658-21.604L836.07,172.391z M817.637,196.924h18.433v32.383
				l-17.334,0.209L817.637,196.924z M838.899,229.308v-32.383h20.079l-0.626,32.593L838.899,229.308z"/>
		</g>
		<g>
			<polygon fill="#ABB7B7" points="778.244,363.202 704.133,364.831 707.125,268.519 776.562,268.519 			"/>
			<polygon fill="#72B8E5" points="774.025,359.098 708.75,360.585 711.391,272.762 772.544,272.762 			"/>
			<path fill="#E5F0FA" d="M772.544,272.762h-61.153l-2.641,87.824l65.275-1.488L772.544,272.762z M716.35,277.727h21.135
				l0.094,24.138l-21.499-0.402L716.35,277.727z M713.829,353.349l2.063-43.662l21.653-0.129l-0.477,44.275L713.829,353.349z
				 M767.301,354.076l-21.493-0.197l-1.323-44.709l21.66,0.388L767.301,354.076z M765.842,301.865l-21.629,0.526l-0.266-24.665
				h21.365L765.842,301.865z"/>
		</g>
		<g>
			<polygon fill="#ABB7B7" points="971.844,361.306 897.015,364.666 898.611,268.715 966.795,267.291 			"/>
			<polygon fill="#72B8E5" points="967.877,363.347 900.715,360.585 902.146,272.762 963.348,271.458 			"/>
			<path fill="#E5F0FA" d="M963.348,271.458l-61.201,1.304l-1.431,87.824l67.162,2.761L963.348,271.458z M907.298,278.42
				l22.158-0.63l-0.077,25.575l-21.769-0.533L907.298,278.42z M905.79,353.411l1.466-44.384l22.255,0.59l-0.484,44.275
				L905.79,353.411z M959.261,354.14l-21.493-0.201l-1.322-44.706l21.655,0.389L959.261,354.14z M957.802,301.922l-21.623,0.535
				l-0.267-24.667h21.366L957.802,301.922z"/>
		</g>
		<g>
			<polygon fill="#ABB7B7" points="873.056,362.814 803.138,364.831 801.134,266.73 874.519,268.685 			"/>
			<polygon fill="#72B8E5" points="869.22,358.743 806.735,360.585 804.948,270.972 870.526,272.762 			"/>
			<path fill="#E5F0FA" d="M870.526,272.762l-65.578-1.79l1.787,89.613l62.485-1.843L870.526,272.762z M811.008,276.469
				l23.885,0.355l-0.354,25.835l-22.646-0.355L811.008,276.469z M812.251,353.383l-0.538-43.825h22.752l-0.482,44.275
				L812.251,353.383z M864.224,354.076h-22.96l0.146-44.906l23.565,0.743L864.224,354.076z M864.622,301.77l-23.486,0.622
				l-0.404-25.567l24.594,0.532L864.622,301.77z"/>
		</g>
		<g>
			<polygon fill="#ABB7B7" points="870.095,401.155 806.054,398.864 804.218,509.976 871.434,509.976 			"/>
			<polygon fill="#CDD8E2" points="866.581,405.78 809.349,403.685 807.712,505.451 867.776,503.419 			"/>
			<path fill="#E5F0FA" d="M866.581,405.78l-57.232-2.096l-1.636,106.292h60.064L866.581,405.78z M814.074,469.873l20.742-0.404
				l0.323,29.338l-21.876,0.404L814.074,469.873z M834.307,411.353l0.441,50.281h-20.839l0.494-49.769L834.307,411.353z
				 M862.692,461.23l-21.585,0.844l-0.132-50.997h21.031L862.692,461.23z M863.013,498.203l-22.524,0.605l0.368-29.035l21.511,0.706
				L863.013,498.203z"/>
			<polygon fill="#6C7A89" points="863.72,458.978 865.112,458.001 866.501,466.585 865.112,467.098 			"/>
		</g>
		<polygon fill="#ABB7B7" points="878.478,516.406 798.255,515.075 796.212,506.154 880.875,504.817 		"/>
		<polygon fill="#95A5A6" points="887.693,524.405 788.925,524.405 788.226,512.732 886.942,515.767 		"/>
		<polygon fill="#6C7A89" points="952.183,533.736 724.437,533.736 721.136,523.595 954.354,522.317 		"/>
		<polygon fill="#95A5A6" points="876.642,364.188 796.532,365.774 796.532,357.788 878.956,356.51 		"/>
		<polygon fill="#95A5A6" points="782.795,365.135 700.371,365.455 701.332,358.106 781.442,358.106 		"/>
		<polygon fill="#95A5A6" points="974.989,364.188 893.652,365.455 892.963,357.147 973.074,357.147 		"/>
		<polygon fill="#BDC3C7" points="957.537,411.824 928.275,411.596 929.068,423.059 956.955,422.823 		"/>
		<polygon fill="#BDC3C7" points="937.606,424.604 908.342,424.375 909.137,435.838 937.025,435.603 		"/>
		<polygon fill="#BDC3C7" points="764.534,218.822 735.27,218.592 736.067,230.055 763.951,229.819 		"/>
		<polygon fill="#BDC3C7" points="795.63,218.822 766.365,218.592 767.162,230.055 795.048,229.819 		"/>
		<polygon fill="#BDC3C7" points="775.61,231.6 746.344,231.371 747.142,242.834 775.026,242.598 		"/>
		<polygon fill="#BDC3C7" points="744.603,231.6 715.339,231.371 716.136,242.834 744.021,242.598 		"/>
		<g>
			<g>
				<path fill="#0DB06A" d="M728.957,510.521c-1.646-0.477-1.684-3.163-1.091-4.377c0.544-1.108,1.376-2.007,1.938-3.138
					c1.485-3.004,1.069-6.814-1.082-9.38c1.558,1.181,3.328,1.845,4.603,3.339c1.271,1.49,2.112,3.556,2.126,5.508
					c0.021,2.801-4.308,5.367-2.557,8.161c-1.359,0.169-2.736,0.471-4.063,0.718c-0.023-0.213-0.052-0.472-0.017-0.688
					L728.957,510.521z"/>
				<path fill="#17A186" d="M732.106,514.188c1.645-0.475,1.685-3.164,1.09-4.378c-0.543-1.11-1.379-2.007-1.938-3.137
					c-1.487-3.002-1.068-6.814,1.081-9.38c-1.558,1.181-3.328,1.843-4.604,3.34c-1.271,1.49-2.112,3.554-2.126,5.506
					c-0.021,2.799,4.31,5.368,2.558,8.162c1.36,0.168,2.735,0.471,4.062,0.716c0.024-0.213,0.054-0.473,0.019-0.688L732.106,514.188
					z"/>
				<path fill="#17A186" d="M732.924,512.851c-1.645-0.477-1.685-3.165-1.089-4.377c0.545-1.11,1.377-2.01,1.936-3.14
					c1.487-3.001,1.07-6.811-1.08-9.379c1.557,1.181,3.328,1.845,4.603,3.34c1.272,1.489,2.111,3.556,2.126,5.508
					c0.021,2.801-4.307,5.367-2.557,8.161c-1.36,0.168-2.736,0.471-4.061,0.717c-0.025-0.214-0.053-0.474-0.019-0.688
					L732.924,512.851z"/>
				<path fill="#0DB06A" d="M736.893,510.521c-1.644-0.477-1.684-3.163-1.09-4.377c0.544-1.108,1.378-2.007,1.937-3.138
					c1.486-3.004,1.069-6.814-1.079-9.38c1.556,1.181,3.326,1.845,4.601,3.339c1.272,1.49,2.112,3.556,2.128,5.508
					c0.021,2.801-4.308,5.367-2.557,8.161c-1.359,0.169-2.737,0.471-4.063,0.718c-0.023-0.213-0.052-0.472-0.019-0.688
					L736.893,510.521z"/>
				<path fill="#17A186" d="M739.226,514.188c-1.646-0.475-1.683-3.164-1.09-4.378c0.543-1.11,1.378-2.007,1.937-3.137
					c1.487-3.002,1.069-6.814-1.079-9.38c1.557,1.181,3.326,1.843,4.603,3.34c1.271,1.49,2.111,3.554,2.125,5.506
					c0.023,2.799-4.308,5.368-2.556,8.162c-1.36,0.168-2.737,0.471-4.061,0.716c-0.024-0.213-0.055-0.473-0.019-0.688
					L739.226,514.188z"/>
				<polygon fill="#F29D1F" points="726.247,513.051 729.926,524.011 742.889,524.25 746.568,513.291 				"/>
				<polygon fill="#F17936" points="747.493,513.452 723.691,513.611 724.437,509.41 747.596,508.85 				"/>
			</g>
		</g>
		<g>
			<g>
				<path fill="#17A186" d="M933.888,510.369c-1.644-0.477-1.681-3.165-1.088-4.377c0.543-1.11,1.378-2.007,1.938-3.14
					c1.484-3.002,1.07-6.813-1.082-9.378c1.559,1.181,3.331,1.844,4.603,3.338c1.274,1.489,2.113,3.555,2.129,5.508
					c0.021,2.8-4.31,5.368-2.558,8.162c-1.36,0.167-2.736,0.47-4.063,0.716c-0.023-0.214-0.05-0.472-0.018-0.689L933.888,510.369z"
					/>
				<path fill="#0DB06A" d="M937.039,514.035c1.645-0.476,1.684-3.164,1.092-4.376c-0.544-1.11-1.377-2.009-1.938-3.139
					c-1.487-3.002-1.067-6.814,1.081-9.38c-1.559,1.181-3.327,1.844-4.604,3.34c-1.271,1.491-2.11,3.556-2.124,5.508
					c-0.024,2.799,4.308,5.368,2.554,8.161c1.363,0.167,2.737,0.47,4.064,0.716c0.025-0.212,0.054-0.471,0.018-0.688
					L937.039,514.035z"/>
				<path fill="#0DB06A" d="M937.859,512.698c-1.645-0.476-1.684-3.164-1.091-4.376c0.543-1.11,1.379-2.01,1.938-3.139
					c1.486-3.003,1.07-6.814-1.079-9.38c1.557,1.181,3.326,1.844,4.604,3.339c1.27,1.49,2.11,3.553,2.124,5.507
					c0.025,2.8-4.307,5.369-2.555,8.162c-1.361,0.168-2.736,0.472-4.062,0.718c-0.027-0.215-0.056-0.474-0.019-0.691
					L937.859,512.698z"/>
				<path fill="#17A186" d="M941.828,510.369c-1.647-0.477-1.686-3.165-1.089-4.377c0.541-1.11,1.377-2.007,1.934-3.14
					c1.487-3.002,1.07-6.813-1.078-9.378c1.557,1.181,3.326,1.844,4.603,3.338c1.271,1.489,2.109,3.555,2.126,5.508
					c0.022,2.8-4.31,5.368-2.557,8.162c-1.359,0.167-2.737,0.47-4.064,0.716c-0.02-0.214-0.048-0.472-0.014-0.689L941.828,510.369z"
					/>
				<path fill="#0DB06A" d="M944.161,514.035c-1.646-0.476-1.687-3.164-1.093-4.376c0.545-1.11,1.38-2.009,1.939-3.139
					c1.486-3.002,1.068-6.814-1.081-9.38c1.556,1.181,3.326,1.844,4.604,3.34c1.268,1.491,2.108,3.556,2.125,5.508
					c0.022,2.799-4.309,5.368-2.556,8.161c-1.362,0.167-2.736,0.47-4.063,0.716c-0.024-0.212-0.053-0.471-0.017-0.688
					L944.161,514.035z"/>
				<polygon fill="#F29D1F" points="931.179,512.898 934.86,523.859 947.822,524.098 951.502,513.138 				"/>
				<polygon fill="#F17936" points="952.427,513.299 928.625,513.458 929.374,509.257 952.528,508.698 				"/>
			</g>
		</g>
		<g>
			<g>
				<path fill="#0DB06A" d="M901.654,510.369c-1.645-0.477-1.683-3.165-1.091-4.377c0.546-1.11,1.379-2.007,1.938-3.14
					c1.486-3.002,1.071-6.813-1.079-9.378c1.559,1.181,3.328,1.844,4.603,3.338c1.271,1.489,2.112,3.555,2.129,5.508
					c0.02,2.8-4.311,5.368-2.559,8.162c-1.361,0.167-2.737,0.47-4.065,0.716c-0.021-0.214-0.053-0.472-0.015-0.689L901.654,510.369z
					"/>
				<path fill="#17A186" d="M904.804,514.035c1.644-0.476,1.683-3.164,1.09-4.376c-0.543-1.11-1.378-2.009-1.94-3.139
					c-1.485-3.002-1.065-6.814,1.082-9.38c-1.557,1.181-3.327,1.844-4.604,3.34c-1.269,1.491-2.109,3.556-2.125,5.508
					c-0.021,2.799,4.308,5.368,2.559,8.161c1.357,0.167,2.734,0.47,4.06,0.716c0.025-0.212,0.055-0.471,0.02-0.688L904.804,514.035z
					"/>
				<path fill="#17A186" d="M905.622,512.698c-1.645-0.476-1.685-3.164-1.09-4.376c0.544-1.11,1.378-2.01,1.938-3.139
					c1.485-3.003,1.069-6.814-1.081-9.38c1.558,1.181,3.328,1.844,4.604,3.339c1.271,1.49,2.112,3.553,2.128,5.507
					c0.023,2.8-4.309,5.369-2.558,8.162c-1.361,0.168-2.736,0.472-4.062,0.718c-0.024-0.215-0.052-0.474-0.019-0.691
					L905.622,512.698z"/>
				<path fill="#0DB06A" d="M909.59,510.369c-1.644-0.477-1.683-3.165-1.088-4.377c0.542-1.11,1.376-2.007,1.936-3.14
					c1.488-3.002,1.071-6.813-1.079-9.378c1.557,1.181,3.327,1.844,4.602,3.338c1.272,1.489,2.112,3.555,2.128,5.508
					c0.02,2.8-4.309,5.368-2.556,8.162c-1.362,0.167-2.739,0.47-4.064,0.716c-0.023-0.214-0.053-0.472-0.019-0.689L909.59,510.369z"
					/>
				<path fill="#17A186" d="M911.925,514.035c-1.646-0.476-1.687-3.164-1.089-4.376c0.541-1.11,1.377-2.009,1.934-3.139
					c1.487-3.002,1.07-6.814-1.079-9.38c1.559,1.181,3.328,1.844,4.603,3.34c1.272,1.491,2.112,3.556,2.126,5.508
					c0.023,2.799-4.308,5.368-2.556,8.161c-1.359,0.167-2.736,0.47-4.06,0.716c-0.026-0.212-0.056-0.471-0.018-0.688
					L911.925,514.035z"/>
				<polygon fill="#F29D1F" points="898.943,512.898 902.624,523.859 915.585,524.098 919.264,513.138 				"/>
				<polygon fill="#F17936" points="920.19,513.299 896.39,513.458 897.135,509.257 920.294,508.698 				"/>
			</g>
		</g>
		<g>
			<g>
				<path fill="#17A186" d="M762.607,510.521c-1.646-0.477-1.685-3.163-1.091-4.377c0.544-1.108,1.376-2.007,1.938-3.138
					c1.486-3.004,1.069-6.814-1.081-9.38c1.557,1.181,3.327,1.845,4.602,3.339c1.272,1.49,2.112,3.556,2.127,5.508
					c0.021,2.801-4.308,5.367-2.558,8.161c-1.359,0.169-2.736,0.471-4.062,0.718c-0.022-0.213-0.053-0.472-0.019-0.688
					L762.607,510.521z"/>
				<path fill="#0DB06A" d="M765.757,514.188c1.644-0.475,1.684-3.164,1.09-4.378c-0.543-1.11-1.378-2.007-1.938-3.137
					c-1.487-3.002-1.068-6.814,1.081-9.38c-1.557,1.181-3.329,1.843-4.604,3.34c-1.271,1.49-2.111,3.554-2.126,5.506
					c-0.021,2.799,4.309,5.368,2.557,8.162c1.361,0.168,2.736,0.471,4.063,0.716c0.023-0.213,0.054-0.473,0.019-0.688
					L765.757,514.188z"/>
				<path fill="#0DB06A" d="M766.576,512.851c-1.646-0.477-1.686-3.165-1.09-4.377c0.544-1.11,1.377-2.01,1.937-3.14
					c1.485-3.001,1.069-6.811-1.081-9.379c1.556,1.181,3.327,1.845,4.603,3.34c1.271,1.489,2.111,3.556,2.127,5.508
					c0.021,2.801-4.308,5.367-2.558,8.161c-1.36,0.168-2.736,0.471-4.062,0.717c-0.024-0.214-0.053-0.474-0.018-0.688
					L766.576,512.851z"/>
				<path fill="#17A186" d="M770.544,510.521c-1.646-0.477-1.685-3.163-1.091-4.377c0.544-1.108,1.377-2.007,1.937-3.138
					c1.486-3.004,1.07-6.814-1.08-9.38c1.556,1.181,3.327,1.845,4.602,3.339c1.272,1.49,2.111,3.556,2.126,5.508
					c0.023,2.801-4.308,5.367-2.556,8.161c-1.358,0.169-2.736,0.471-4.062,0.718c-0.023-0.213-0.053-0.472-0.019-0.688
					L770.544,510.521z"/>
				<path fill="#0DB06A" d="M772.877,514.188c-1.646-0.475-1.683-3.164-1.091-4.378c0.544-1.11,1.379-2.007,1.936-3.137
					c1.488-3.002,1.069-6.814-1.08-9.38c1.559,1.181,3.327,1.843,4.604,3.34c1.271,1.49,2.11,3.554,2.125,5.506
					c0.023,2.799-4.308,5.368-2.556,8.162c-1.36,0.168-2.737,0.471-4.062,0.716c-0.024-0.213-0.054-0.473-0.019-0.688
					L772.877,514.188z"/>
				<polygon fill="#F29D1F" points="759.792,511.988 762.56,524.979 776.538,524.25 780.219,513.291 				"/>
				<polygon fill="#F17936" points="781.091,513.797 758.088,513.291 758.621,508.899 780.239,509.858 				"/>
			</g>
		</g>
		<polygon fill="#BDC3C7" points="968.612,424.604 939.346,424.375 940.144,435.838 968.031,435.603 		"/>
	</g>
	<g opacity="0.8">
		<path fill="#EDF0F1" d="M1547.844,156.108c6.978,0,13.056-3.8,16.318-9.434c3.422,3.018,7.904,4.862,12.827,4.862
			c10.731,0,19.431-8.699,19.431-19.431c0-2.61-0.522-5.099-1.457-7.372c-2.904-7.073-9.854-12.059-17.974-12.059
			c-1.575,0-3.101,0.208-4.569,0.562c-3.895-8.423-12.399-14.279-22.291-14.279c-5.247,0-10.101,1.659-14.091,4.461
			c-0.091,0.062-0.177,0.13-0.266,0.195c-0.229-0.558-0.492-1.095-0.753-1.639c-5.064-10.564-15.828-17.875-28.325-17.875
			c-5.097,0-9.896,1.239-14.15,3.392c-0.319,0.163-0.647,0.307-0.958,0.479c-0.391-1.547-0.907-3.04-1.556-4.463
			c-4.143-9.083-13.278-15.41-23.912-15.41c-11.564,0-21.365,7.479-24.882,17.856c-3.304-1.178-6.845-1.853-10.553-1.853
			c-12.041,0-22.49,6.776-27.768,16.721c-2.892-1.196-6.056-1.863-9.379-1.863c-9.738,0-18.128,5.678-22.106,13.891
			c-0.811-0.103-1.631-0.173-2.469-0.173c-10.731,0-19.431,8.698-19.431,19.431c0,4.715,1.681,9.036,4.475,12.4
			c3.563,4.295,8.938,7.03,14.956,7.03c3.889,0,7.505-1.156,10.543-3.123c3.434,4.66,8.942,7.695,15.175,7.695
			c5.895,0,11.152-2.703,14.611-6.938c4.648,3.618,10.475,5.795,16.821,5.795c7.899,0,14.997-3.357,20.002-8.7
			c5.007,5.343,12.103,8.7,20.002,8.7c8.358,0,15.829-3.75,20.86-9.644c5.029,5.894,12.501,9.644,20.858,9.644
			c9.168,0,17.267-4.514,22.246-11.424c0.678,1.905,1.645,3.67,2.86,5.24c0.147,0.188,0.287,0.382,0.442,0.568
			C1536.843,153.478,1542.035,156.108,1547.844,156.108z"/>
	</g>
	<g opacity="0.8">
		<path fill="#EDF0F1" d="M1677.442,301.648c4.064,0,7.794-1.419,10.735-3.777c3.611,4.815,9.348,7.944,15.827,7.944
			c5.636,0,10.708-2.366,14.313-6.143c4.012,3.797,9.416,6.142,15.378,6.142c7.791,0,14.647-3.984,18.66-10.02
			c5.617,4.937,12.978,7.937,21.043,7.937c6.605,0,12.741-2.008,17.829-5.446c2.853,2.103,6.365,3.361,10.182,3.361
			c9.493,0,17.189-7.695,17.189-17.188c0-2.279-0.454-4.452-1.261-6.441c-2.113-5.221-6.711-9.167-12.335-10.365
			c-2.052-15.629-15.414-27.699-31.604-27.699c-2.734,0-5.389,0.345-7.921,0.992c-3.968-12.198-15.424-21.017-28.945-21.017
			c-16.813,0-30.444,13.629-30.444,30.443c0,0.943,0.05,1.875,0.134,2.8c-0.49-0.046-0.986-0.076-1.491-0.076
			c-7.591,0-13.93,5.31-15.537,12.416c-0.257,1.136-0.403,2.313-0.403,3.526c0,0.945,0.098,1.866,0.255,2.767
			c-0.321-0.296-0.651-0.58-0.996-0.852c-2.923-2.299-6.6-3.682-10.607-3.682c-9.493,0-17.189,7.696-17.189,17.189
			c0,4.2,1.51,8.044,4.012,11.03C1667.418,299.252,1672.149,301.648,1677.442,301.648z"/>
	</g>
	<g opacity="0.8">
		<path fill="#EDF0F1" d="M247.25,297.675c5.518,0,10.325-3.006,12.906-7.462c2.706,2.387,6.251,3.846,10.145,3.846
			c8.487,0,15.367-6.879,15.367-15.367c0-2.065-0.413-4.032-1.153-5.83c-2.296-5.595-7.792-9.538-14.214-9.538
			c-1.246,0-2.452,0.165-3.613,0.444c-3.081-6.661-9.808-11.292-17.63-11.292c-4.149,0-7.988,1.313-11.143,3.528
			c-0.072,0.05-0.14,0.104-0.21,0.155c-0.182-0.442-0.389-0.867-0.596-1.296c-4.005-8.354-12.518-14.137-22.401-14.137
			c-4.031,0-7.826,0.979-11.191,2.682c-0.252,0.129-0.513,0.242-0.758,0.378c-0.308-1.223-0.718-2.404-1.23-3.53
			c-3.276-7.183-10.501-12.188-18.911-12.188c-9.146,0-16.896,5.916-19.678,14.122c-2.613-0.932-5.414-1.465-8.346-1.465
			c-9.523,0-17.786,5.359-21.96,13.224c-2.287-0.947-4.789-1.475-7.418-1.475c-7.701,0-14.336,4.493-17.482,10.986
			c-0.641-0.081-1.29-0.138-1.953-0.138c-8.487,0-15.367,6.879-15.367,15.368c0,3.729,1.329,7.146,3.539,9.807
			c2.817,3.396,7.069,5.56,11.828,5.56c3.076,0,5.935-0.914,8.338-2.471c2.716,3.687,7.072,6.087,12.001,6.087
			c4.661,0,8.819-2.139,11.555-5.487c3.676,2.862,8.284,4.583,13.303,4.583c6.248,0,11.861-2.656,15.819-6.88
			c3.96,4.224,9.572,6.88,15.819,6.88c6.61,0,12.519-2.966,16.497-7.626c3.979,4.66,9.887,7.626,16.496,7.626
			c7.25,0,13.656-3.571,17.594-9.035c0.536,1.507,1.3,2.903,2.262,4.144c0.116,0.149,0.227,0.302,0.35,0.45
			C238.549,295.595,242.656,297.675,247.25,297.675z"/>
	</g>
	<g opacity="0.8">
		<path fill="#EDF0F1" d="M476.633,138.134c5.664,0,10.599-3.086,13.248-7.66c2.779,2.45,6.417,3.947,10.414,3.947
			c8.712,0,15.775-7.062,15.775-15.774c0-2.119-0.424-4.139-1.183-5.985c-2.358-5.743-7.999-9.791-14.592-9.791
			c-1.279,0-2.517,0.169-3.709,0.456c-3.163-6.838-10.068-11.593-18.098-11.593c-4.259,0-8.201,1.348-11.439,3.622
			c-0.074,0.051-0.144,0.106-0.216,0.16c-0.186-0.454-0.399-0.89-0.611-1.331c-4.112-8.577-12.85-14.513-22.998-14.513
			c-4.137,0-8.032,1.006-11.487,2.754c-0.26,0.131-0.526,0.248-0.778,0.388c-0.316-1.256-0.736-2.468-1.262-3.624
			c-3.364-7.374-10.78-12.512-19.413-12.512c-9.389,0-17.345,6.073-20.201,14.498c-2.683-0.956-5.557-1.504-8.568-1.504
			c-9.776,0-18.258,5.502-22.543,13.575c-2.348-0.971-4.916-1.514-7.615-1.514c-7.905,0-14.717,4.611-17.947,11.278
			c-0.658-0.083-1.324-0.141-2.004-0.141c-8.712,0-15.775,7.062-15.775,15.776c0,3.828,1.364,7.336,3.633,10.067
			c2.892,3.486,7.256,5.707,12.142,5.707c3.158,0,6.093-0.938,8.559-2.536c2.788,3.783,7.261,6.249,12.32,6.249
			c4.785,0,9.054-2.196,11.862-5.633c3.774,2.937,8.504,4.705,13.657,4.705c6.414,0,12.176-2.727,16.239-7.064
			c4.065,4.337,9.827,7.064,16.239,7.064c6.785,0,12.851-3.044,16.935-7.83c4.084,4.785,10.15,7.83,16.935,7.83
			c7.444,0,14.019-3.666,18.061-9.275c0.55,1.547,1.335,2.979,2.322,4.254c0.12,0.152,0.233,0.31,0.36,0.461
			C467.702,135.998,471.917,138.134,476.633,138.134z"/>
	</g>
	<g>
		<circle fill="#F8BE3A" cx="1032.935" cy="121.316" r="30.909"/>
		<g opacity="0.8">
			<path fill="#EDF0F1" d="M939.298,135.825c2.696,0,5.17-0.941,7.122-2.506c2.395,3.194,6.2,5.27,10.499,5.27
				c3.738,0,7.103-1.569,9.494-4.074c2.662,2.519,6.247,4.074,10.202,4.074c5.169,0,9.718-2.643,12.378-6.647
				c3.727,3.275,8.608,5.265,13.959,5.265c4.381,0,8.451-1.332,11.827-3.612c1.892,1.395,4.222,2.229,6.754,2.229
				c6.297,0,11.403-5.105,11.403-11.402c0-1.512-0.303-2.952-0.837-4.272c-1.402-3.464-4.452-6.082-8.183-6.876
				c-1.361-10.368-10.225-18.375-20.965-18.375c-1.814,0-3.574,0.23-5.254,0.658c-2.633-8.092-10.232-13.941-19.201-13.941
				c-11.154,0-20.196,9.04-20.196,20.194c0,0.626,0.033,1.245,0.089,1.858c-0.326-0.031-0.655-0.05-0.989-0.05
				c-5.037,0-9.241,3.522-10.307,8.236c-0.17,0.753-0.268,1.534-0.268,2.339c0,0.626,0.065,1.238,0.169,1.835
				c-0.213-0.197-0.431-0.386-0.66-0.565c-1.939-1.525-4.378-2.442-7.037-2.442c-6.298,0-11.402,5.105-11.402,11.402
				c0,2.786,1.001,5.335,2.661,7.316C932.648,134.234,935.787,135.825,939.298,135.825z"/>
		</g>
	</g>
	<g opacity="0.8">
		<path fill="#EDF0F1" d="M567.458,193.634c2.696,0,5.17-0.94,7.122-2.506c2.395,3.194,6.2,5.27,10.499,5.27
			c3.738,0,7.103-1.568,9.494-4.074c2.662,2.52,6.247,4.074,10.202,4.074c5.169,0,9.718-2.643,12.378-6.646
			c3.727,3.275,8.608,5.265,13.959,5.265c4.381,0,8.451-1.332,11.827-3.612c1.892,1.395,4.222,2.229,6.754,2.229
			c6.297,0,11.403-5.104,11.403-11.402c0-1.512-0.303-2.952-0.837-4.272c-1.402-3.463-4.452-6.082-8.183-6.875
			c-1.361-10.369-10.225-18.375-20.965-18.375c-1.814,0-3.574,0.23-5.254,0.658c-2.633-8.092-10.232-13.941-19.201-13.941
			c-11.154,0-20.196,9.04-20.196,20.194c0,0.626,0.033,1.245,0.089,1.858c-0.326-0.031-0.655-0.051-0.989-0.051
			c-5.037,0-9.241,3.522-10.307,8.236c-0.17,0.753-0.268,1.533-0.268,2.339c0,0.626,0.065,1.237,0.169,1.835
			c-0.213-0.196-0.431-0.385-0.66-0.564c-1.939-1.525-4.378-2.442-7.037-2.442c-6.298,0-11.402,5.104-11.402,11.401
			c0,2.787,1.001,5.336,2.661,7.316C560.809,192.044,563.947,193.634,567.458,193.634z"/>
	</g>
	<g>
		<g>
			<path fill="#17A186" d="M756.808,642.148c-0.075-1.967-0.115-3.938-0.115-5.932c0-50.832,25.449-92.037,56.854-92.037
				c31.406,0,56.861,41.205,56.861,92.037c0,1.993-0.045,3.965-0.121,5.932H756.808z"/>
		</g>
		<g>
			<path fill="#0DB06A" d="M603.227,642.148c-0.13-1.967-0.199-3.938-0.199-5.932c0-50.832,44.216-92.037,98.776-92.037
				c54.566,0,98.793,41.205,98.793,92.037c0,1.993-0.079,3.965-0.21,5.932H603.227z"/>
		</g>
		<g>
			<path fill="#0DB06A" d="M442.185,642.148c-0.13-1.967-0.199-3.938-0.199-5.932c0-50.832,44.216-92.037,98.776-92.037
				c54.566,0,98.793,41.205,98.793,92.037c0,1.993-0.079,3.965-0.21,5.932H442.185z"/>
		</g>
		<g>
			<path fill="#17A186" d="M573.801,642.148c-0.075-1.967-0.115-3.938-0.115-5.932c0-50.832,25.45-92.037,56.853-92.037
				c31.406,0,56.862,41.205,56.862,92.037c0,1.993-0.046,3.965-0.121,5.932H573.801z"/>
		</g>
	</g>
	<g>
		<path fill="#EC974E" d="M1767.213,783.406c0.222-40.34,12.485-79.549,11.195-118.42c-1.336-40.262-29.66-56.803-57.191-68.047
			c14.283-6.997,40.875,4.029,49.721,19.197c2.766-20.316,3.81-50.219,13.58-66.601c18.636,54.051,7.816,129.519,11.059,187.64
			c17.979-24.525,25.063-92.889,64.667-89.395c6.792,27.532-29.829,54.654-38.722,80.352c11.777,0.541,22.852,4.105,31.391,13.168
			c-34.469,1.605-46.707,19.51-49.824,57.941c-2.512,31.002,0.013,62.715,1.448,93.809c1.465,31.617,6.828,59.326,18.203,88.215
			c5.798,14.732,9.815,31.441,17.257,45.605c6.367,12.111,17.494,22.811,22.162,34.654c-18.545,2.912-30.571-25.01-47.95-27.84
			c0.847,19.596,16.763,35.313,18.083,54.314c-32.453-5.287-46.964-62.527-64.833-87.455c-23.845,33.105-33.238,49.449-59.73,47.816
			c7.583-33.637,37.286-57.107,45.998-92.203c7.103-28.613,1.034-63.738,2.294-93.799c1.57-37.473-1.851-49.324-33.551-64.152
			c-25.046-11.715-49.437-22.615-76.279-17.334c0.218-21.607,34.973-16.219,48.234-15.012c20.832,1.893,33.625,13.6,50.012,28.287
			c0.412-28.184-38.007-49.896-47.953-74.016c37.193-9.947,44.338,56.883,68.864,67.658L1767.213,783.406z"/>
		<path fill="#17A186" d="M1769.494,619.12c23.73,0.085,76.443-15.275,58.693-49.107c26.667,25.101,84.319-42.251,47.463-62.708
			c36.227-9.711,25.75-75.721-12.256-76.107c22.549-53.218-30.629-91.631-76.281-60.447
			c-9.026-65.928-102.109-65.601-134.003-19.042c-34.013-52.577-128.589-49.198-145.277,18.267
			c-70.854-49.53-114.106,79.96-86.583,130.87c-25.982,21.86,6.143,68.775,27.506,79.321c32.884,16.229,88.393,28.275,118.549,4.866
			c2.069,42.024,70.055,45.293,99.041,34.088c11.402,30.666,64.1,29.622,83.92,10.038
			C1750.266,629.158,1767.596,632.605,1769.494,619.12z"/>
		<path fill="#0DB06A" d="M1708.623,780.484c-10.152,29.885-63.41,84.293-82.729,31.191
			c-19.375,37.063-73.766,31.967-106.234,17.775c-24.012-10.49-90.164-79.492-30.368-86.387
			c-51.42-43.867,12.447-140.227,72.102-99.276c-4.515-31.063,15.953-50.661,45.694-51.335c38.68-0.876,49.702,31.504,61.01,63.549
			c45.221-57.402,120.703,66.684,89.41,113.195L1708.623,780.484z"/>
		<path fill="#0DB06A" d="M1859.507,771c-15.779,5.799-52.706-11.105-32.196-26.738c-25.807-30.154-8.645-107.41,37.689-105.164
			c-9.115-21.785,17.844-39.453,36.293-42.584c31.346-5.323,46.383,14.196,57.826,38.923c30.98-16.685,93.738,2.64,82.963,45.03
			c38.525-2.918,64.018,55.479,24.963,73.992c10.52,23.027-8.104,44.125-27.453,54.244c-24.309,12.703-40.295,8.787-63.238-1.783
			c-3.652,32.574-52.471,26.014-66.547,5.736c-16.922,12.529-49.65-7.762-44.662-24.732L1859.507,771z"/>
	</g>
	<g>
		<path fill="#EC974E" d="M234.832,802.019c0.222-40.34,12.485-79.549,11.195-118.42c-1.336-40.262-29.66-56.803-57.191-68.047
			c14.283-6.997,40.875,4.029,49.721,19.197c2.766-20.316,3.81-50.219,13.58-66.601c18.636,54.051,7.816,129.519,11.059,187.64
			c17.979-24.525,25.063-92.889,64.667-89.395c6.792,27.532-29.829,54.654-38.722,80.352c11.777,0.541,22.852,4.105,31.391,13.168
			c-34.469,1.605-46.707,19.51-49.824,57.941c-2.512,31.002,0.013,62.715,1.448,93.809c1.465,31.617,6.828,59.326,18.203,88.215
			c5.798,14.732,9.815,31.441,17.257,45.605c6.367,12.111,17.494,22.811,22.162,34.654c-18.545,2.912-30.571-25.01-47.95-27.84
			c0.847,19.596,16.763,35.313,18.083,54.314c-32.453-5.287-46.964-62.527-64.833-87.455c-23.845,33.105-33.238,49.449-59.73,47.816
			c7.583-33.637,37.286-57.107,45.998-92.203c7.103-28.613,1.034-63.738,2.294-93.799c1.57-37.473-1.851-49.324-33.551-64.152
			c-25.046-11.715-49.437-22.615-76.279-17.334c0.218-21.607,34.973-16.219,48.234-15.012c20.832,1.893,33.625,13.6,50.012,28.287
			c0.412-28.184-38.007-49.896-47.953-74.016c37.193-9.947,44.338,56.883,68.864,67.658L234.832,802.019z"/>
		<path fill="#17A186" d="M237.113,637.732c23.73,0.085,76.443-15.275,58.693-49.107c26.667,25.101,84.319-42.252,47.463-62.708
			c36.227-9.711,25.75-75.721-12.256-76.107c22.549-53.218-30.629-91.631-76.281-60.447
			c-9.026-65.928-102.109-65.601-134.003-19.042C86.717,317.744-7.859,321.123-24.548,388.587
			c-70.854-49.53-114.106,79.96-86.583,130.87c-25.982,21.86,6.143,68.775,27.506,79.321c32.884,16.229,88.393,28.275,118.549,4.866
			c2.069,42.024,70.055,45.293,99.041,34.088c11.402,30.666,64.1,29.622,83.92,10.038
			C217.885,647.771,235.215,651.218,237.113,637.732z"/>
		<path fill="#0DB06A" d="M176.242,799.097c-10.152,29.885-63.41,84.293-82.729,31.191c-19.375,37.063-73.766,31.967-106.234,17.775
			c-24.012-10.49-90.164-79.492-30.368-86.387C-94.509,717.81-30.642,621.45,29.013,662.4
			c-4.515-31.063,15.953-50.661,45.694-51.335c38.68-0.876,49.702,31.504,61.01,63.549c45.221-57.402,120.703,66.684,89.41,113.195
			L176.242,799.097z"/>
		<path fill="#0DB06A" d="M327.126,789.612c-15.779,5.799-52.706-11.105-32.196-26.738c-25.807-30.154-8.645-107.41,37.689-105.164
			c-9.115-21.785,17.844-39.453,36.293-42.584c31.346-5.323,46.383,14.196,57.826,38.923c30.98-16.685,93.738,2.64,82.963,45.03
			c38.525-2.918,64.018,55.479,24.963,73.992c10.52,23.027-8.104,44.125-27.453,54.244c-24.309,12.703-40.295,8.787-63.238-1.783
			c-3.652,32.574-52.471,26.014-66.547,5.736c-16.922,12.529-49.65-7.762-44.662-24.732L327.126,789.612z"/>
	</g>
	<g>
		<g>
			<g>
				<polygon fill="#DADFE1" points="453.045,1100.899 404.566,1100.899 397.54,935.036 428.805,916.301 460.07,935.036 				"/>
				<polygon fill="#DADFE1" points="523.303,1100.899 474.823,1100.899 467.797,935.036 499.063,916.301 530.328,935.036 				"/>
				<polygon fill="#DADFE1" points="593.559,1100.899 545.08,1100.899 538.055,935.036 569.318,916.301 600.584,935.036 				"/>
				<polygon fill="#DADFE1" points="663.816,1100.899 615.336,1100.899 608.311,935.036 639.576,916.301 670.842,935.036 				"/>
				<polygon fill="#DADFE1" points="734.072,1100.899 685.594,1100.899 678.568,935.036 709.832,916.301 741.098,935.036 				"/>
				<polygon fill="#DADFE1" points="804.33,1100.899 755.85,1100.899 748.824,935.036 780.09,916.301 811.355,935.036 				"/>
				<polygon fill="#DADFE1" points="874.586,1100.899 826.107,1100.899 819.082,935.036 850.348,916.301 881.613,935.036 				"/>
			</g>
			<g>
				<polygon fill="#ECECEC" points="453.045,1100.899 428.805,1100.899 428.805,916.301 460.07,935.036 				"/>
				<polygon fill="#ECECEC" points="523.303,1100.899 499.063,1100.899 499.063,916.301 530.328,935.036 				"/>
				<polygon fill="#ECECEC" points="593.559,1100.899 569.318,1100.899 569.318,916.301 600.584,935.036 				"/>
				<polygon fill="#ECECEC" points="663.816,1100.899 639.576,1100.899 639.576,916.301 670.842,935.036 				"/>
				<polygon fill="#ECECEC" points="734.072,1100.899 709.832,1100.899 709.832,916.301 741.098,935.036 				"/>
				<polygon fill="#ECECEC" points="804.33,1100.899 780.09,1100.899 780.09,916.301 811.355,935.036 				"/>
				<polygon fill="#ECECEC" points="874.586,1100.899 850.348,1100.899 850.348,916.301 881.613,935.036 				"/>
			</g>
			<g>
				<rect x="300.184" y="1032.921" fill="#BDC3C7" width="562.055" height="21.613"/>
				<path fill="#ABB7B7" d="M510.954,1040.358c-2.496,0-4.52,2.023-4.52,4.52s2.023,4.521,4.52,4.521s4.521-2.025,4.521-4.521
					S513.45,1040.358,510.954,1040.358z M581.211,1040.358c-2.496,0-4.52,2.023-4.52,4.52s2.023,4.521,4.52,4.521
					s4.52-2.025,4.52-4.521S583.708,1040.358,581.211,1040.358z M370.44,1040.358c-2.498,0-4.52,2.023-4.52,4.52
					s2.022,4.521,4.52,4.521c2.496,0,4.52-2.025,4.52-4.521S372.937,1040.358,370.44,1040.358z M440.698,1040.358
					c-2.496,0-4.521,2.023-4.521,4.52s2.025,4.521,4.521,4.521c2.495,0,4.52-2.025,4.52-4.521S443.193,1040.358,440.698,1040.358z
					 M857.72,1044.878c0,2.496,2.023,4.521,4.519,4.521v-9.041C859.744,1040.358,857.72,1042.382,857.72,1044.878z
					 M651.467,1040.358c-2.494,0-4.52,2.023-4.52,4.52s2.025,4.521,4.52,4.521c2.498,0,4.521-2.025,4.521-4.521
					S653.965,1040.358,651.467,1040.358z M791.983,1040.358c-2.497,0-4.52,2.023-4.52,4.52s2.022,4.521,4.52,4.521
					c2.496,0,4.52-2.025,4.52-4.521S794.479,1040.358,791.983,1040.358z M721.725,1040.358c-2.496,0-4.52,2.023-4.52,4.52
					s2.023,4.521,4.52,4.521s4.52-2.025,4.52-4.521S724.221,1040.358,721.725,1040.358z"/>
			</g>
			<g>
				<rect x="300.184" y="960.395" fill="#BDC3C7" width="562.056" height="21.613"/>
				<path fill="#ABB7B7" d="M510.954,967.832c-2.496,0-4.52,2.023-4.52,4.52s2.023,4.521,4.52,4.521s4.521-2.025,4.521-4.521
					S513.45,967.832,510.954,967.832z M581.212,967.832c-2.496,0-4.52,2.023-4.52,4.52s2.023,4.521,4.52,4.521
					s4.52-2.025,4.52-4.521S583.708,967.832,581.212,967.832z M370.44,967.832c-2.498,0-4.52,2.023-4.52,4.52
					s2.022,4.521,4.52,4.521c2.496,0,4.52-2.025,4.52-4.521S372.937,967.832,370.44,967.832z M440.698,967.832
					c-2.496,0-4.521,2.023-4.521,4.52s2.025,4.521,4.521,4.521c2.495,0,4.52-2.025,4.52-4.521S443.193,967.832,440.698,967.832z
					 M857.72,972.352c0,2.496,2.023,4.521,4.52,4.521v-9.041C859.743,967.832,857.72,969.855,857.72,972.352z M651.468,967.832
					c-2.494,0-4.52,2.023-4.52,4.52s2.025,4.521,4.52,4.521c2.498,0,4.52-2.025,4.52-4.521S653.966,967.832,651.468,967.832z
					 M791.983,967.832c-2.498,0-4.52,2.023-4.52,4.52s2.021,4.521,4.52,4.521c2.496,0,4.52-2.025,4.52-4.521
					S794.479,967.832,791.983,967.832z M721.726,967.832c-2.496,0-4.52,2.023-4.52,4.52s2.023,4.521,4.52,4.521
					s4.52-2.025,4.52-4.521S724.222,967.832,721.726,967.832z"/>
			</g>
		</g>
		<g>
			<g>
				<polygon fill="#DADFE1" points="1512.764,1100.899 1464.285,1100.899 1457.258,935.036 1488.523,916.301 1519.789,935.036 				
					"/>
				<polygon fill="#DADFE1" points="1583.021,1100.899 1534.541,1100.899 1527.516,935.036 1558.781,916.301 1590.047,935.036 				
					"/>
				<polygon fill="#DADFE1" points="1653.277,1100.899 1604.799,1100.899 1597.773,935.036 1629.037,916.301 1660.303,935.036 				
					"/>
				<polygon fill="#DADFE1" points="1723.535,1100.899 1675.055,1100.899 1668.029,935.036 1699.295,916.301 1730.56,935.036 				
					"/>
				<polygon fill="#DADFE1" points="1793.791,1100.899 1745.313,1100.899 1738.287,935.036 1769.551,916.301 1800.816,935.036 				
					"/>
				<polygon fill="#DADFE1" points="1864.049,1100.899 1815.568,1100.899 1808.543,935.036 1839.808,916.301 1871.074,935.036 				
					"/>
				<polygon fill="#DADFE1" points="1934.305,1100.899 1885.826,1100.899 1878.801,935.036 1910.066,916.301 1941.332,935.036 				
					"/>
			</g>
			<g>
				<polygon fill="#ECECEC" points="1442.506,1100.899 1418.267,1100.899 1418.267,916.301 1449.533,935.036 				"/>
				<polygon fill="#ECECEC" points="1512.764,1100.899 1488.523,1100.899 1488.523,916.301 1519.789,935.036 				"/>
				<polygon fill="#ECECEC" points="1583.021,1100.899 1558.781,1100.899 1558.781,916.301 1590.047,935.036 				"/>
				<polygon fill="#ECECEC" points="1653.277,1100.899 1629.037,1100.899 1629.037,916.301 1660.303,935.036 				"/>
				<polygon fill="#ECECEC" points="1723.535,1100.899 1699.295,1100.899 1699.295,916.301 1730.56,935.036 				"/>
				<polygon fill="#ECECEC" points="1793.791,1100.899 1769.551,1100.899 1769.551,916.301 1800.816,935.036 				"/>
				<polygon fill="#ECECEC" points="1864.049,1100.899 1839.808,1100.899 1839.808,916.301 1871.074,935.036 				"/>
				<polygon fill="#ECECEC" points="1934.305,1100.899 1910.066,1100.899 1910.066,916.301 1941.332,935.036 				"/>
			</g>
			<rect x="1418.267" y="960.396" fill="#BDC3C7" width="541.644" height="21.613"/>
			<rect x="1418.267" y="1032.921" fill="#BDC3C7" width="541.644" height="21.613"/>
			<path fill="#ABB7B7" d="M1629.037,966.683c-2.496,0-4.52,2.023-4.52,4.519c0,2.497,2.023,4.521,4.52,4.521
				s4.521-2.023,4.521-4.521C1633.558,968.706,1631.533,966.683,1629.037,966.683z M1699.295,966.683
				c-2.496,0-4.52,2.023-4.52,4.519c0,2.497,2.023,4.521,4.52,4.521s4.52-2.023,4.52-4.521
				C1703.814,968.706,1701.791,966.683,1699.295,966.683z M1488.523,966.683c-2.496,0-4.52,2.023-4.52,4.519
				c0,2.497,2.023,4.521,4.52,4.521s4.52-2.023,4.52-4.521C1493.043,968.706,1491.02,966.683,1488.523,966.683z M1418.267,966.683
				v9.039c2.496,0,4.521-2.023,4.521-4.521C1422.787,968.706,1420.763,966.683,1418.267,966.683z M1558.781,966.683
				c-2.496,0-4.521,2.023-4.521,4.519c0,2.497,2.025,4.521,4.521,4.521s4.52-2.023,4.52-4.521
				C1563.301,968.706,1561.277,966.683,1558.781,966.683z M1769.551,966.683c-2.495,0-4.52,2.023-4.52,4.519
				c0,2.497,2.024,4.521,4.52,4.521c2.498,0,4.521-2.023,4.521-4.521C1774.072,968.706,1772.049,966.683,1769.551,966.683z
				 M1910.066,966.683c-2.496,0-4.52,2.023-4.52,4.519c0,2.497,2.023,4.521,4.52,4.521s4.52-2.023,4.52-4.521
				C1914.586,968.706,1912.563,966.683,1910.066,966.683z M1839.808,966.683c-2.495,0-4.519,2.023-4.519,4.519
				c0,2.497,2.023,4.521,4.519,4.521c2.497,0,4.521-2.023,4.521-4.521C1844.328,968.706,1842.305,966.683,1839.808,966.683z"/>
			<path fill="#ABB7B7" d="M1629.037,1040.358c-2.496,0-4.52,2.023-4.52,4.52s2.023,4.521,4.52,4.521s4.521-2.025,4.521-4.521
				S1631.533,1040.358,1629.037,1040.358z M1699.295,1040.358c-2.496,0-4.52,2.023-4.52,4.52s2.023,4.521,4.52,4.521
				s4.52-2.025,4.52-4.521S1701.791,1040.358,1699.295,1040.358z M1488.523,1040.358c-2.496,0-4.52,2.023-4.52,4.52
				s2.023,4.521,4.52,4.521s4.52-2.025,4.52-4.521S1491.02,1040.358,1488.523,1040.358z M1418.267,1040.358v9.041
				c2.496,0,4.521-2.025,4.521-4.521S1420.763,1040.358,1418.267,1040.358z M1558.781,1040.358c-2.496,0-4.521,2.023-4.521,4.52
				s2.025,4.521,4.521,4.521s4.52-2.025,4.52-4.521S1561.277,1040.358,1558.781,1040.358z M1769.551,1040.358
				c-2.495,0-4.52,2.023-4.52,4.52s2.024,4.521,4.52,4.521c2.498,0,4.521-2.025,4.521-4.521S1772.049,1040.358,1769.551,1040.358z
				 M1910.066,1040.358c-2.496,0-4.52,2.023-4.52,4.52s2.023,4.521,4.52,4.521s4.52-2.025,4.52-4.521
				S1912.563,1040.358,1910.066,1040.358z M1839.808,1040.358c-2.495,0-4.519,2.023-4.519,4.52s2.023,4.521,4.519,4.521
				c2.497,0,4.521-2.025,4.521-4.521S1842.305,1040.358,1839.808,1040.358z"/>
		</g>
		<g>
			<g>
				<polygon fill="#DADFE1" points="-43.419,1100.898 -91.899,1100.898 -98.925,935.035 -67.66,916.301 -36.395,935.035 				"/>
				<polygon fill="#DADFE1" points="26.838,1100.898 -21.642,1100.898 -28.667,935.035 2.598,916.301 33.863,935.035 				"/>
				<polygon fill="#DADFE1" points="97.094,1100.898 48.615,1100.898 41.59,935.035 72.854,916.301 104.119,935.035 				"/>
				<polygon fill="#DADFE1" points="167.352,1100.898 118.871,1100.898 111.846,935.035 143.111,916.301 174.377,935.035 				"/>
				<polygon fill="#DADFE1" points="237.607,1100.898 189.129,1100.898 182.104,935.035 213.367,916.301 244.633,935.035 				"/>
				<polygon fill="#DADFE1" points="307.865,1100.898 259.385,1100.898 252.359,935.035 283.625,916.301 314.891,935.035 				"/>
				<polygon fill="#DADFE1" points="378.121,1100.898 329.643,1100.898 322.617,935.035 353.883,916.301 385.148,935.035 				"/>
				<polygon display="none" fill="#DADFE1" points="399.9,1100.898 424.139,1100.898 424.139,916.301 392.873,935.035 				"/>
			</g>
			<g>
				<polygon fill="#ECECEC" points="-43.419,1100.898 -67.66,1100.898 -67.66,916.301 -36.395,935.035 				"/>
				<polygon fill="#ECECEC" points="26.838,1100.898 2.598,1100.898 2.598,916.301 33.863,935.035 				"/>
				<polygon fill="#ECECEC" points="97.094,1100.898 72.854,1100.898 72.854,916.301 104.119,935.035 				"/>
				<polygon fill="#ECECEC" points="167.352,1100.898 143.111,1100.898 143.111,916.301 174.377,935.035 				"/>
				<polygon fill="#ECECEC" points="237.607,1100.898 213.367,1100.898 213.367,916.301 244.633,935.035 				"/>
				<polygon fill="#ECECEC" points="307.865,1100.898 283.625,1100.898 283.625,916.301 314.891,935.035 				"/>
				<polygon fill="#ECECEC" points="378.121,1100.898 353.883,1100.898 353.883,916.301 385.148,935.035 				"/>
			</g>
			<rect x="-137.917" y="960.395" fill="#BDC3C7" width="562.055" height="21.613"/>
			<rect x="-137.917" y="1032.92" fill="#BDC3C7" width="562.055" height="21.613"/>
			<path fill="#ABB7B7" d="M72.854,966.682c-2.496,0-4.52,2.023-4.52,4.52s2.023,4.52,4.52,4.52s4.521-2.023,4.521-4.52
				S75.35,966.682,72.854,966.682z M143.111,966.682c-2.496,0-4.52,2.023-4.52,4.52s2.023,4.52,4.52,4.52s4.52-2.023,4.52-4.52
				S145.607,966.682,143.111,966.682z M-67.66,966.682c-2.498,0-4.52,2.023-4.52,4.52s2.022,4.52,4.52,4.52
				c2.496,0,4.52-2.023,4.52-4.52S-65.164,966.682-67.66,966.682z M2.598,966.682c-2.496,0-4.521,2.023-4.521,4.52
				s2.025,4.52,4.521,4.52c2.495,0,4.52-2.023,4.52-4.52S5.093,966.682,2.598,966.682z M419.62,971.201
				c0,2.496,2.023,4.52,4.519,4.52v-9.039C421.644,966.682,419.62,968.705,419.62,971.201z M213.367,966.682
				c-2.494,0-4.52,2.023-4.52,4.52s2.025,4.52,4.52,4.52c2.498,0,4.521-2.023,4.521-4.52S215.865,966.682,213.367,966.682z
				 M353.883,966.682c-2.497,0-4.52,2.023-4.52,4.52s2.022,4.52,4.52,4.52c2.496,0,4.52-2.023,4.52-4.52
				S356.379,966.682,353.883,966.682z M283.625,966.682c-2.496,0-4.52,2.023-4.52,4.52s2.023,4.52,4.52,4.52s4.52-2.023,4.52-4.52
				S286.121,966.682,283.625,966.682z"/>
			<path fill="#ABB7B7" d="M72.854,1040.357c-2.496,0-4.52,2.023-4.52,4.52s2.023,4.521,4.52,4.521s4.521-2.025,4.521-4.521
				S75.35,1040.357,72.854,1040.357z M143.111,1040.357c-2.496,0-4.52,2.023-4.52,4.52s2.023,4.521,4.52,4.521
				s4.52-2.025,4.52-4.521S145.607,1040.357,143.111,1040.357z M-67.66,1040.357c-2.498,0-4.52,2.023-4.52,4.52
				s2.022,4.521,4.52,4.521c2.496,0,4.52-2.025,4.52-4.521S-65.164,1040.357-67.66,1040.357z M2.598,1040.357
				c-2.496,0-4.521,2.023-4.521,4.52s2.025,4.521,4.521,4.521c2.495,0,4.52-2.025,4.52-4.521S5.093,1040.357,2.598,1040.357z
				 M419.62,1044.877c0,2.496,2.023,4.521,4.519,4.521v-9.041C421.644,1040.357,419.62,1042.381,419.62,1044.877z M213.367,1040.357
				c-2.494,0-4.52,2.023-4.52,4.52s2.025,4.521,4.52,4.521c2.498,0,4.521-2.025,4.521-4.521S215.865,1040.357,213.367,1040.357z
				 M353.883,1040.357c-2.497,0-4.52,2.023-4.52,4.52s2.022,4.521,4.52,4.521c2.496,0,4.52-2.025,4.52-4.521
				S356.379,1040.357,353.883,1040.357z M283.625,1040.357c-2.496,0-4.52,2.023-4.52,4.52s2.023,4.521,4.52,4.521
				s4.52-2.025,4.52-4.521S286.121,1040.357,283.625,1040.357z"/>
		</g>
		<g>
			<g>
				<polygon fill="#DADFE1" points="950.708,1100.899 902.229,1100.899 895.203,935.036 926.468,916.301 957.733,935.036 				"/>
				<polygon fill="#DADFE1" points="1020.966,1100.899 972.486,1100.899 965.461,935.036 996.726,916.301 1027.991,935.036 				"/>
				<polygon fill="#DADFE1" points="1091.222,1100.899 1042.743,1100.899 1035.718,935.036 1066.981,916.301 1098.247,935.036 				
					"/>
				<polygon fill="#DADFE1" points="1161.479,1100.899 1112.999,1100.899 1105.974,935.036 1137.239,916.301 1168.505,935.036 				
					"/>
				<polygon fill="#DADFE1" points="1231.735,1100.899 1183.257,1100.899 1176.231,935.036 1207.495,916.301 1238.761,935.036 				
					"/>
				<polygon fill="#DADFE1" points="1301.993,1100.899 1253.513,1100.899 1246.487,935.036 1277.753,916.301 1309.019,935.036 				
					"/>
				<polygon fill="#DADFE1" points="1372.249,1100.899 1323.771,1100.899 1316.745,935.036 1348.011,916.301 1379.276,935.036 				
					"/>
				<polygon fill="#DADFE1" points="1394.028,1100.899 1418.267,1100.899 1418.267,916.301 1387.001,935.036 				"/>
			</g>
			<g>
				<polygon fill="#ECECEC" points="950.708,1100.899 926.468,1100.899 926.468,916.301 957.733,935.036 				"/>
				<polygon fill="#ECECEC" points="1020.966,1100.899 996.726,1100.899 996.726,916.301 1027.991,935.036 				"/>
				<polygon fill="#ECECEC" points="1091.222,1100.899 1066.981,1100.899 1066.981,916.301 1098.247,935.036 				"/>
				<polygon fill="#ECECEC" points="1161.479,1100.899 1137.239,1100.899 1137.239,916.301 1168.505,935.036 				"/>
				<polygon fill="#ECECEC" points="1231.735,1100.899 1207.495,1100.899 1207.495,916.301 1238.761,935.036 				"/>
				<polygon fill="#ECECEC" points="1301.993,1100.899 1277.753,1100.899 1277.753,916.301 1309.019,935.036 				"/>
				<polygon fill="#ECECEC" points="1372.249,1100.899 1348.011,1100.899 1348.011,916.301 1379.276,935.036 				"/>
			</g>
			<rect x="856.211" y="960.396" fill="#BDC3C7" width="562.055" height="21.613"/>
			<rect x="856.211" y="1032.921" fill="#BDC3C7" width="562.055" height="21.613"/>
			<path fill="#ABB7B7" d="M1066.981,966.683c-2.496,0-4.52,2.023-4.52,4.519c0,2.497,2.023,4.521,4.52,4.521
				s4.521-2.023,4.521-4.521C1071.503,968.706,1069.478,966.683,1066.981,966.683z M1137.239,966.683
				c-2.496,0-4.52,2.023-4.52,4.519c0,2.497,2.023,4.521,4.52,4.521s4.52-2.023,4.52-4.521
				C1141.759,968.706,1139.735,966.683,1137.239,966.683z M926.468,966.683c-2.498,0-4.52,2.023-4.52,4.519
				c0,2.497,2.022,4.521,4.52,4.521c2.496,0,4.52-2.023,4.52-4.521C930.988,968.706,928.964,966.683,926.468,966.683z
				 M996.726,966.683c-2.496,0-4.521,2.023-4.521,4.519c0,2.497,2.025,4.521,4.521,4.521c2.495,0,4.52-2.023,4.52-4.521
				C1001.245,968.706,999.221,966.683,996.726,966.683z M1413.748,971.201c0,2.497,2.023,4.521,4.519,4.521v-9.039
				C1415.771,966.683,1413.748,968.706,1413.748,971.201z M1207.495,966.683c-2.494,0-4.52,2.023-4.52,4.519
				c0,2.497,2.025,4.521,4.52,4.521c2.498,0,4.521-2.023,4.521-4.521C1212.016,968.706,1209.993,966.683,1207.495,966.683z
				 M1348.011,966.683c-2.497,0-4.52,2.023-4.52,4.519c0,2.497,2.022,4.521,4.52,4.521c2.496,0,4.52-2.023,4.52-4.521
				C1352.53,968.706,1350.507,966.683,1348.011,966.683z M1277.753,966.683c-2.496,0-4.52,2.023-4.52,4.519
				c0,2.497,2.023,4.521,4.52,4.521s4.52-2.023,4.52-4.521C1282.272,968.706,1280.249,966.683,1277.753,966.683z"/>
			<path fill="#ABB7B7" d="M1066.981,1040.358c-2.496,0-4.52,2.023-4.52,4.52s2.023,4.521,4.52,4.521s4.521-2.025,4.521-4.521
				S1069.478,1040.358,1066.981,1040.358z M1137.239,1040.358c-2.496,0-4.52,2.023-4.52,4.52s2.023,4.521,4.52,4.521
				s4.52-2.025,4.52-4.521S1139.735,1040.358,1137.239,1040.358z M926.468,1040.358c-2.498,0-4.52,2.023-4.52,4.52
				s2.022,4.521,4.52,4.521c2.496,0,4.52-2.025,4.52-4.521S928.964,1040.358,926.468,1040.358z M996.726,1040.358
				c-2.496,0-4.521,2.023-4.521,4.52s2.025,4.521,4.521,4.521c2.495,0,4.52-2.025,4.52-4.521S999.221,1040.358,996.726,1040.358z
				 M1413.748,1044.878c0,2.496,2.023,4.521,4.519,4.521v-9.041C1415.771,1040.358,1413.748,1042.382,1413.748,1044.878z
				 M1207.495,1040.358c-2.494,0-4.52,2.023-4.52,4.52s2.025,4.521,4.52,4.521c2.498,0,4.521-2.025,4.521-4.521
				S1209.993,1040.358,1207.495,1040.358z M1348.011,1040.358c-2.497,0-4.52,2.023-4.52,4.52s2.022,4.521,4.52,4.521
				c2.496,0,4.52-2.025,4.52-4.521S1350.507,1040.358,1348.011,1040.358z M1277.753,1040.358c-2.496,0-4.52,2.023-4.52,4.52
				s2.023,4.521,4.52,4.521s4.52-2.025,4.52-4.521S1280.249,1040.358,1277.753,1040.358z"/>
		</g>
	</g>
</g>
</svg>
