<?xml version="1.0" encoding="utf-8"?>
<!-- Generator: Adobe Illustrator 16.0.0, SVG Export Plug-In . SVG Version: 6.00 Build 0)  -->
<!DOCTYPE svg PUBLIC "-//W3C//DTD SVG 1.1//EN" "http://www.w3.org/Graphics/SVG/1.1/DTD/svg11.dtd">
<svg version="1.1" xmlns="http://www.w3.org/2000/svg" xmlns:xlink="http://www.w3.org/1999/xlink" x="0px" y="0px"
	 width="1415.887px" height="676.831px" viewBox="0 0 1415.887 676.831" enable-background="new 0 0 1415.887 676.831"
	 xml:space="preserve">
<g id="Layer_1">
</g>
<g id="Layer_2">
	<rect x="-3.975" y="-2.137" fill="#8DC2E9" width="1428.188" height="822.513"/>
	<rect x="-3.975" y="409.12" fill="#90C695" width="1424.573" height="404.731"/>
	<g>
		<polygon fill="#676767" points="786.568,273.51 783.834,272.258 783.834,234.846 785.397,234.846 		"/>
		<polygon fill="#4E4E4E" points="781.557,219.199 782.664,221.009 753.649,250.024 752.777,248.683 		"/>
		<polygon fill="#4E4E4E" points="789.704,219.199 791.111,221.009 762.707,249.412 761.225,248.683 		"/>
		<polygon fill="#4E4E4E" points="797.92,219.902 800.111,221.462 771.561,249.034 769.671,248.683 		"/>
		<polygon fill="#4E4E4E" points="805.517,221.31 808.006,221.462 779.763,250.343 779.058,248.229 		"/>
		<polygon fill="#4E4E4E" points="806.296,234.522 805.357,235.408 761.133,235.827 760.352,233.985 		"/>
		<polygon fill="#4E4E4E" points="813.653,219.902 815.728,221.736 787.589,250.024 786.568,248.683 		"/>
	</g>
	<g>
		<polygon fill="#BDC3C7" points="925.479,264.274 738.526,267.562 742.801,401.341 919.375,401.341 		"/>
		<rect x="761.009" y="285.407" fill="#95A5A6" width="142.399" height="115.934"/>
		<polygon fill="#6C7A89" points="904.817,294.757 759.6,294.757 761.009,286.101 903.408,286.101 		"/>
		<polygon fill="#6C7A89" points="904.817,304.493 759.6,304.493 761.009,295.838 903.408,295.838 		"/>
		<polygon fill="#6C7A89" points="904.817,314.229 759.6,314.229 761.009,305.575 903.408,305.575 		"/>
		<polygon fill="#6C7A89" points="904.817,323.966 759.6,323.966 761.009,315.312 903.408,315.312 		"/>
		<polygon fill="#6C7A89" points="904.817,333.703 759.6,333.703 761.009,325.05 903.408,325.05 		"/>
		<polygon fill="#6C7A89" points="904.817,343.439 759.6,343.439 761.009,334.786 903.408,334.786 		"/>
		<polygon fill="#6C7A89" points="904.817,353.176 759.6,353.176 761.009,344.522 903.408,344.522 		"/>
		<polygon fill="#6C7A89" points="904.817,362.913 759.6,362.913 761.009,354.259 903.408,354.259 		"/>
		<polygon fill="#6C7A89" points="904.817,372.649 759.6,372.649 761.009,363.995 903.408,363.995 		"/>
		<polygon fill="#6C7A89" points="904.817,382.26 759.6,382.26 761.009,373.605 903.408,373.605 		"/>
		<polygon fill="#6C7A89" points="904.817,391.997 759.6,391.997 761.009,383.343 903.408,383.343 		"/>
		<polygon fill="#6C7A89" points="904.817,399.931 759.6,399.931 761.009,393.077 903.408,393.077 		"/>
	</g>
	<g>
		<polygon fill="#818181" points="862.492,238.278 848.801,254.678 846.725,252.429 861.906,238.056 		"/>
		<path fill="none" d="M841.238,229.259c0,0-3.465,21.804,17.035,29.035l-0.634,4.023l-10.733-0.948l-2.074-1.553l-3.459-1.53
			l-5.571-1.76l-6.026-9.549l5.715-14.245l4.774-4.483h1.015L841.238,229.259z"/>
		<polygon fill="#818181" points="862.7,236.761 840.04,236.49 840.583,239.153 862.1,237.362 		"/>
		<polygon fill="#676767" points="840.968,266.7 844.959,265.804 844.832,259.816 841.373,258.286 		"/>
		<path fill="#818181" d="M858.273,258.294c-1.168-20.538-17.035-29.035-17.035-29.035S837.773,251.063,858.273,258.294z"/>
		<polygon fill="#B4B4B4" points="863.196,238.604 856.23,258.286 853.49,256.918 862.57,238.604 		"/>
		<polygon fill="#B4B4B4" points="840.283,243.467 861.727,237.497 861.973,237.911 841.769,247.146 		"/>
		<polygon fill="#B4B4B4" points="862.492,236.021 840.342,231.247 840.342,233.964 862.022,236.49 		"/>
		<path fill="#CDCCCC" d="M858.273,258.294c-20.5-7.231-17.035-29.035-17.035-29.035c-8.021,4.698-10.709,15.015-6.002,23.035
			c0.139,0.229,0.325,0.413,0.464,0.634c0.952,1.531,2.187,2.703,2.187,2.703c1.051,1.049,2.222,1.929,3.486,2.655l3.459,1.53
			C849.179,261.15,858.273,258.294,858.273,258.294z"/>
		<path fill="#CDCCCC" d="M866.874,236.938c0,1.643-1.333,2.974-2.972,2.974c-1.643,0-2.977-1.331-2.977-2.974
			c0-1.642,1.334-2.975,2.977-2.975C865.541,233.964,866.874,235.296,866.874,236.938z"/>
	</g>
	<rect x="-3.975" y="401.341" fill="#95A5A6" width="1428.188" height="29.713"/>
	<g>
		<g>
			<defs>
				<polygon id="XMLID_1_" points="531.417,142.49 528.604,73.802 566.052,73.802 563.039,117.444 				"/>
			</defs>
			<use xlink:href="#XMLID_1_"  overflow="visible" fill="#BDC3C7"/>
			<clipPath id="XMLID_3_">
				<use xlink:href="#XMLID_1_"  overflow="visible"/>
			</clipPath>
			<g clip-path="url(#XMLID_3_)">
				<path fill="#D2D7D4" d="M541.805,130.291l3.376-2.392c0.321-1.41,0.176-3.139,0.196-4.143c0.027-1.182,0.228-3.546-0.418-4.911
					c0.214-0.006,0.434-0.022,0.646-0.029c4.221-0.084,8.403-0.103,12.721-0.23l2.738-1.942c-2.345,0.081-4.544,0.231-6.882,0.394
					c-0.006-1.706-0.176-3.436-0.19-5.146c-0.011-1.229,0.041-2.504-0.287-3.689c3.824-0.001,7.649-0.012,11.476-0.075
					c0.291-0.009,0.584-0.007,0.872-0.007v-1.166c-2.03,0.045-4.069,0.074-6.106,0.079c0.025-1.599,0-3.2-0.042-4.797
					c-0.026-0.973,0.034-2.051-0.201-3.019c2.125,0.118,4.251,0.167,6.35,0.11v-1.774c-4.897-0.098-9.806-0.098-14.708-0.311
					c-0.038-2.859,0.012-5.759-0.148-8.609c-0.003-0.056-0.031-0.084-0.047-0.131c4.994,0.096,9.943,0.357,14.903,0.704v-1.416
					c-1.961-0.153-3.933-0.262-5.906-0.315c-0.029-1.417-0.145-2.833-0.261-4.243c-0.096-1.165-0.096-2.37-0.318-3.524
					c2.167,0.061,4.325,0.125,6.485,0.183v-1.291c-5.008-0.252-10.158,0.121-14.999,0.1c-0.284,0-0.568,0-0.852,0
					c0-0.005,0.005-0.005,0.005-0.013c-0.124-0.933-0.256-1.863-0.32-2.799c-0.015-0.147-0.015-0.301-0.02-0.451h-1.305
					c-0.013,1.113,0.126,2.259,0.31,3.262c-5.438-0.016-10.888,0-16.322,0.226c0.018-0.064,0.042-0.134,0.035-0.212
					c-0.041-0.909-0.167-1.81-0.276-2.709c-0.021-0.188-0.041-0.374-0.063-0.567h-1.2c0.032,1.105,0.288,2.286,0.332,3.276
					c0.004,0.107,0.036,0.191,0.074,0.269c-0.95,0.046-1.896,0.104-2.847,0.157v0.374c3.041,0.144,6.092,0.16,9.146,0.105
					c-0.283,2.425-0.162,5.032-0.162,7.484c-3.007-0.074-6.012-0.1-8.983-0.005v1.206c0.958-0.009,1.917-0.063,2.781-0.063
					c-0.081,1.296,0.056,2.63,0.042,3.925c-0.012,1.597-0.115,3.194-0.109,4.792c-0.908,0.057-1.812,0.133-2.714,0.209v0.72
					c1.063-0.044,2.134-0.07,3.198-0.086c0.033,0.007,0.062,0.007,0.098,0c4.207-0.04,8.418,0.125,12.626,0.372
					c-0.101,1.076,0.11,2.35,0.052,3.413c-0.092,1.752-0.299,3.498-0.374,5.251c-0.005,0.059,0.015,0.109,0.025,0.16
					c-5.214,0.014-10.431,0.122-15.625,0.49v0.916c2.239,0.029,4.479,0.034,6.722,0.012c-0.177,1.568,0.081,3.294,0.048,4.854
					c-0.033,1.632-0.27,3.321-0.108,4.952c-2.217,0.18-4.442,0.359-6.661,0.519v1.01c5.061-0.128,10.13-0.665,15.183-0.865
					c-0.013,0.519,0.102,1.058,0.136,1.565c0.074,1.098,0.081,2.2,0.057,3.307c-0.028,1.102-0.117,2.204-0.243,3.301
					c-0.064,0.577-0.273,1.165-0.246,1.734c-4.968,0.192-9.932,0.52-14.886,0.873v1.149c2.534-0.188,5.074-0.321,7.62-0.416
					C538.127,130.328,539.892,130.303,541.805,130.291z M558.512,99.158c-0.125,1,0.051,2.091,0.075,3.08
					c0.034,1.601,0.028,3.201,0.051,4.802c-4.385,0.003-8.771-0.049-13.157-0.049c0.018-0.049,0.036-0.097,0.037-0.155
					c0.082-1.897,0.336-3.777,0.376-5.678c0.015-0.608,0.101-2.039-0.264-2.926c1.178,0.074,2.356,0.146,3.534,0.223
					C552.194,98.656,555.342,98.952,558.512,99.158z M549.541,79.474c3.071,0.041,6.148,0.125,9.227,0.209
					c-0.436,2.447,0.059,5.271,0.159,7.761c-3.087-0.061-6.161-0.05-9.183-0.061c-3.663-0.009-7.397-0.152-11.129-0.256
					c0.057-2.411,0.473-5.175-0.103-7.52C542.194,79.541,545.873,79.432,549.541,79.474z M532.417,96.904
					c0.119-2.707,0.661-6.042-0.214-8.658c4.854,0.163,9.698,0.201,14.556,0.195c1.149-0.004,2.284,0.03,3.422,0.053l-0.004,0.002
					c-0.58,2.791-0.157,5.863-0.104,8.696c-0.304-0.017-0.608-0.017-0.909-0.031C543.565,96.829,537.987,96.636,532.417,96.904z
					 M536.541,118.125c0.207-1.594,0.167-3.26,0.213-4.856c0.043-1.484,0.207-3.383-0.328-4.86
					c5.01-0.066,10.025-0.199,15.027-0.191c0.432,0,0.856-0.007,1.28-0.007c-0.275,1.433-0.157,2.984-0.174,4.423
					c-0.019,1.481-0.059,3.038,0.25,4.502c-1.926,0.129-3.842,0.253-5.726,0.327C543.557,117.59,540.046,117.851,536.541,118.125z"
					/>
			</g>
		</g>
		<polygon fill="#D2D7D4" points="618.239,89.913 493.379,179.569 493.379,401.341 743.102,401.341 740.863,177.398 		"/>
		<polygon fill="#D24E58" points="493.379,177.595 480.919,176.904 621.795,68.43 753.513,174.086 743.102,177.595 618.239,89.913 
					"/>
		<polygon fill="#D24E58" points="568.203,64.535 524.687,69.23 525.479,76.999 569.177,76.999 		"/>
		<polygon fill="#95A5A6" points="493.379,177.595 496.188,177.595 618.239,92.439 739.73,177.595 743.102,177.595 618.239,89.913 
					"/>
		<g>
			<polygon fill="#72B8E5" points="633.646,177.885 602.835,177.885 601.389,135.604 634.262,134.507 			"/>
			<path fill="#E5F0FA" d="M599.979,133.489l1.88,46.726h32.402l2.27-47.745L599.979,133.489z M633.433,151.715h-14.758v-15.953
				l15.274-0.631L633.433,151.715z M616.596,135.763v15.953h-13.549l-0.483-15.878L616.596,135.763z M603.047,153.794h13.549v23.801
				l-12.74,0.154L603.047,153.794z M618.675,177.595v-23.801h14.758l-0.461,23.955L618.675,177.595z"/>
		</g>
		<g>
			<polygon fill="#ABB7B7" points="574.095,276.003 519.625,277.2 521.824,206.414 572.859,206.414 			"/>
			<polygon fill="#72B8E5" points="570.995,272.986 523.019,274.08 524.96,209.532 569.906,209.532 			"/>
			<path fill="#E5F0FA" d="M569.906,209.532H524.96l-1.941,64.548l47.977-1.094L569.906,209.532z M528.604,213.181h15.532
				l0.071,17.741l-15.802-0.295L528.604,213.181z M526.752,268.762l1.516-32.09l15.914-0.095l-0.35,32.542L526.752,268.762z
				 M566.052,269.296l-15.796-0.145l-0.973-32.86l15.918,0.285L566.052,269.296z M564.98,230.922l-15.897,0.387l-0.196-18.127
				h15.704L564.98,230.922z"/>
		</g>
		<g>
			<polygon fill="#ABB7B7" points="716.385,274.609 661.388,277.079 662.561,206.559 712.674,205.511 			"/>
			<polygon fill="#72B8E5" points="713.47,276.109 664.107,274.08 665.159,209.532 710.14,208.574 			"/>
			<path fill="#E5F0FA" d="M710.14,208.574l-44.98,0.958l-1.052,64.548l49.362,2.029L710.14,208.574z M668.945,213.691l16.285-0.463
				l-0.057,18.796l-16-0.392L668.945,213.691z M667.838,268.808l1.077-32.622l16.356,0.434l-0.355,32.541L667.838,268.808z
				 M707.136,269.343l-15.796-0.147l-0.971-32.857l15.916,0.286L707.136,269.343z M706.064,230.964l-15.892,0.393l-0.197-18.129
				h15.704L706.064,230.964z"/>
		</g>
		<g>
			<polygon fill="#ABB7B7" points="643.779,275.718 592.391,277.2 590.918,205.099 644.854,206.536 			"/>
			<polygon fill="#72B8E5" points="640.959,272.726 595.034,274.08 593.721,208.217 641.919,209.532 			"/>
			<path fill="#E5F0FA" d="M641.919,209.532l-48.198-1.315l1.313,65.863l45.925-1.354L641.919,209.532z M598.176,212.257
				l17.554,0.261l-0.26,18.988l-16.644-0.262L598.176,212.257z M599.09,268.786l-0.396-32.209h16.722l-0.354,32.542L599.09,268.786z
				 M637.287,269.296h-16.875l0.107-33.004l17.319,0.546L637.287,269.296z M637.579,230.852l-17.262,0.457l-0.296-18.791
				l18.076,0.391L637.579,230.852z"/>
		</g>
		<g>
			<polygon fill="#ABB7B7" points="641.604,303.897 594.534,302.214 593.187,383.878 642.586,383.878 			"/>
			<polygon fill="#CDD8E2" points="639.02,307.297 596.956,305.757 595.754,380.552 639.897,379.058 			"/>
			<path fill="#E5F0FA" d="M639.02,307.297l-42.063-1.54l-1.202,78.121h44.144L639.02,307.297z M600.429,354.402l15.245-0.297
				l0.236,21.563l-16.078,0.297L600.429,354.402z M615.299,311.393l0.325,36.955h-15.317l0.363-36.579L615.299,311.393z
				 M636.161,348.051l-15.864,0.62l-0.098-37.48h15.458L636.161,348.051z M636.397,375.226l-16.555,0.443l0.271-21.34l15.81,0.519
				L636.397,375.226z"/>
			<polygon fill="#6C7A89" points="636.918,346.396 637.939,345.677 638.961,351.986 637.939,352.363 			"/>
		</g>
		<polygon fill="#ABB7B7" points="647.764,388.603 588.803,387.625 587.302,381.068 649.524,380.085 		"/>
		<polygon fill="#95A5A6" points="654.536,394.481 581.945,394.481 581.433,385.903 653.985,388.134 		"/>
		<polygon fill="#6C7A89" points="701.935,401.341 534.549,401.341 532.122,393.887 703.53,392.947 		"/>
		<polygon fill="#95A5A6" points="646.414,276.728 587.535,277.894 587.535,272.024 648.114,271.085 		"/>
		<polygon fill="#95A5A6" points="577.439,277.424 516.861,277.659 517.567,272.258 576.445,272.258 		"/>
		<polygon fill="#95A5A6" points="718.696,276.728 658.917,277.659 658.409,271.553 717.289,271.553 		"/>
		<polygon fill="#BDC3C7" points="705.869,311.739 684.363,311.571 684.946,319.996 705.442,319.822 		"/>
		<polygon fill="#BDC3C7" points="691.221,321.131 669.712,320.964 670.297,329.388 690.795,329.216 		"/>
		<polygon fill="#BDC3C7" points="564.018,169.888 542.51,169.719 543.096,178.144 563.59,177.971 		"/>
		<polygon fill="#BDC3C7" points="586.873,169.888 565.365,169.719 565.95,178.144 586.445,177.971 		"/>
		<polygon fill="#BDC3C7" points="572.158,179.28 550.65,179.111 551.236,187.537 571.73,187.363 		"/>
		<polygon fill="#BDC3C7" points="549.369,179.28 527.861,179.111 528.447,187.537 548.941,187.363 		"/>
		<g>
			<g>
				<path fill="#0DB06A" d="M537.871,384.278c-1.21-0.351-1.238-2.325-0.802-3.219c0.399-0.813,1.011-1.475,1.425-2.306
					c1.091-2.208,0.785-5.008-0.796-6.894c1.146,0.867,2.446,1.354,3.383,2.453c0.935,1.096,1.553,2.613,1.563,4.049
					c0.016,2.059-3.168,3.945-1.881,5.998c-0.997,0.125-2.01,0.346-2.984,0.527c-0.018-0.157-0.038-0.347-0.013-0.507
					L537.871,384.278z"/>
				<path fill="#17A186" d="M540.186,386.973c1.208-0.349,1.237-2.325,0.801-3.217c-0.398-0.817-1.014-1.476-1.424-2.307
					c-1.094-2.207-0.786-5.008,0.794-6.894c-1.146,0.867-2.446,1.354-3.383,2.455c-0.936,1.096-1.553,2.612-1.564,4.046
					c-0.015,2.058,3.169,3.945,1.881,5.999c0.999,0.123,2.009,0.346,2.985,0.526c0.018-0.156,0.039-0.348,0.013-0.505
					L540.186,386.973z"/>
				<path fill="#17A186" d="M540.786,385.99c-1.209-0.351-1.238-2.325-0.8-3.217c0.399-0.816,1.012-1.478,1.423-2.308
					c1.092-2.207,0.785-5.007-0.794-6.895c1.145,0.868,2.446,1.356,3.383,2.456c0.936,1.094,1.551,2.612,1.563,4.048
					c0.016,2.059-3.165,3.944-1.879,5.998c-1,0.123-2.012,0.346-2.984,0.526c-0.02-0.157-0.039-0.348-0.015-0.505L540.786,385.99z"
					/>
				<path fill="#0DB06A" d="M543.703,384.278c-1.209-0.351-1.237-2.325-0.802-3.219c0.4-0.813,1.013-1.475,1.424-2.306
					c1.093-2.208,0.786-5.008-0.793-6.894c1.144,0.867,2.444,1.354,3.382,2.453c0.935,1.096,1.552,2.613,1.563,4.049
					c0.016,2.059-3.167,3.945-1.88,5.998c-0.998,0.125-2.011,0.346-2.985,0.527c-0.018-0.157-0.038-0.347-0.014-0.507
					L543.703,384.278z"/>
				<path fill="#17A186" d="M545.419,386.973c-1.211-0.349-1.237-2.325-0.802-3.217c0.399-0.817,1.014-1.476,1.424-2.307
					c1.092-2.207,0.785-5.008-0.793-6.894c1.145,0.867,2.443,1.354,3.382,2.455c0.935,1.096,1.551,2.612,1.563,4.046
					c0.018,2.058-3.167,3.945-1.879,5.999c-1.001,0.123-2.012,0.346-2.985,0.526c-0.018-0.156-0.039-0.348-0.014-0.505
					L545.419,386.973z"/>
				<polygon fill="#F29D1F" points="535.879,386.138 538.582,394.192 548.11,394.368 550.814,386.313 				"/>
				<polygon fill="#F17936" points="551.494,386.433 534,386.55 534.549,383.461 551.569,383.05 				"/>
			</g>
		</g>
		<g>
			<g>
				<path fill="#17A186" d="M688.488,384.166c-1.208-0.351-1.235-2.325-0.8-3.216c0.4-0.817,1.013-1.477,1.425-2.309
					c1.09-2.206,0.785-5.007-0.796-6.894c1.146,0.868,2.448,1.356,3.382,2.454c0.937,1.094,1.554,2.613,1.564,4.049
					c0.017,2.057-3.166,3.944-1.879,5.998c-1,0.123-2.012,0.347-2.986,0.526c-0.017-0.157-0.036-0.347-0.014-0.506L688.488,384.166z
					"/>
				<path fill="#0DB06A" d="M690.805,386.86c1.208-0.35,1.237-2.325,0.803-3.217c-0.401-0.815-1.014-1.477-1.425-2.307
					c-1.095-2.206-0.786-5.008,0.794-6.895c-1.146,0.868-2.445,1.355-3.385,2.455c-0.933,1.096-1.551,2.614-1.561,4.049
					c-0.018,2.057,3.166,3.944,1.878,5.998c1,0.123,2.011,0.345,2.987,0.526c0.017-0.156,0.039-0.346,0.012-0.506L690.805,386.86z"
					/>
				<path fill="#0DB06A" d="M691.407,385.879c-1.209-0.35-1.238-2.326-0.802-3.217c0.398-0.817,1.013-1.478,1.424-2.307
					c1.091-2.208,0.786-5.009-0.794-6.895c1.144,0.868,2.444,1.355,3.384,2.454c0.934,1.096,1.551,2.61,1.561,4.047
					c0.02,2.059-3.164,3.946-1.877,5.999c-1.001,0.124-2.012,0.347-2.986,0.528c-0.02-0.158-0.04-0.349-0.013-0.509L691.407,385.879
					z"/>
				<path fill="#17A186" d="M694.324,384.166c-1.212-0.351-1.24-2.325-0.802-3.216c0.397-0.817,1.013-1.477,1.422-2.309
					c1.094-2.206,0.786-5.007-0.792-6.894c1.144,0.868,2.444,1.356,3.383,2.454c0.934,1.094,1.55,2.613,1.563,4.049
					c0.016,2.057-3.168,3.944-1.88,5.998c-0.999,0.123-2.012,0.347-2.987,0.526c-0.014-0.157-0.036-0.347-0.01-0.506
					L694.324,384.166z"/>
				<path fill="#0DB06A" d="M696.039,386.86c-1.21-0.35-1.24-2.325-0.804-3.217c0.401-0.815,1.015-1.477,1.426-2.307
					c1.092-2.206,0.785-5.008-0.794-6.895c1.143,0.868,2.443,1.355,3.384,2.455c0.931,1.096,1.549,2.614,1.562,4.049
					c0.017,2.057-3.167,3.944-1.879,5.998c-1.001,0.123-2.01,0.345-2.986,0.526c-0.018-0.156-0.039-0.346-0.012-0.506
					L696.039,386.86z"/>
				<polygon fill="#F29D1F" points="686.498,386.025 689.202,394.081 698.729,394.257 701.434,386.201 				"/>
				<polygon fill="#F17936" points="702.114,386.319 684.62,386.438 685.17,383.35 702.188,382.938 				"/>
			</g>
		</g>
		<g>
			<g>
				<path fill="#0DB06A" d="M664.798,384.166c-1.209-0.351-1.237-2.325-0.804-3.216c0.402-0.817,1.015-1.477,1.426-2.309
					c1.091-2.206,0.787-5.007-0.793-6.894c1.145,0.868,2.445,1.356,3.382,2.454c0.935,1.094,1.553,2.613,1.565,4.049
					c0.015,2.057-3.168,3.944-1.881,5.998c-1.001,0.123-2.012,0.347-2.988,0.526c-0.016-0.157-0.038-0.347-0.01-0.506
					L664.798,384.166z"/>
				<path fill="#17A186" d="M667.113,386.86c1.207-0.35,1.235-2.325,0.801-3.217c-0.398-0.815-1.014-1.477-1.426-2.307
					c-1.092-2.206-0.783-5.008,0.795-6.895c-1.145,0.868-2.445,1.355-3.384,2.455c-0.933,1.096-1.55,2.614-1.562,4.049
					c-0.015,2.057,3.166,3.944,1.88,5.998c0.998,0.123,2.011,0.345,2.984,0.526c0.018-0.156,0.04-0.346,0.015-0.506L667.113,386.86z
					"/>
				<path fill="#17A186" d="M667.713,385.879c-1.209-0.35-1.238-2.326-0.802-3.217c0.401-0.817,1.015-1.478,1.425-2.307
					c1.093-2.208,0.787-5.009-0.793-6.895c1.143,0.868,2.444,1.355,3.383,2.454c0.934,1.096,1.552,2.61,1.564,4.047
					c0.016,2.059-3.168,3.946-1.881,5.999c-1,0.124-2.012,0.347-2.985,0.528c-0.017-0.158-0.038-0.349-0.014-0.509L667.713,385.879z
					"/>
				<path fill="#0DB06A" d="M670.629,384.166c-1.206-0.351-1.236-2.325-0.799-3.216c0.398-0.817,1.012-1.477,1.423-2.309
					c1.094-2.206,0.787-5.007-0.794-6.894c1.145,0.868,2.445,1.356,3.382,2.454c0.936,1.094,1.553,2.613,1.565,4.049
					c0.014,2.057-3.167,3.944-1.88,5.998c-1,0.123-2.013,0.347-2.985,0.526c-0.017-0.157-0.04-0.347-0.014-0.506L670.629,384.166z"
					/>
				<path fill="#17A186" d="M672.347,386.86c-1.21-0.35-1.24-2.325-0.801-3.217c0.397-0.815,1.012-1.477,1.421-2.307
					c1.094-2.206,0.787-5.008-0.793-6.895c1.146,0.868,2.445,1.355,3.382,2.455c0.935,1.096,1.553,2.614,1.563,4.049
					c0.017,2.057-3.166,3.944-1.879,5.998c-0.999,0.123-2.01,0.345-2.983,0.526c-0.02-0.156-0.041-0.346-0.014-0.506L672.347,386.86
					z"/>
				<polygon fill="#F29D1F" points="662.805,386.025 665.511,394.081 675.036,394.257 677.739,386.201 				"/>
				<polygon fill="#F17936" points="678.421,386.319 660.929,386.438 661.477,383.35 678.497,382.938 				"/>
			</g>
		</g>
		<g>
			<g>
				<path fill="#17A186" d="M562.603,384.278c-1.21-0.351-1.238-2.325-0.803-3.219c0.4-0.813,1.013-1.475,1.425-2.306
					c1.092-2.208,0.785-5.008-0.794-6.894c1.145,0.867,2.445,1.354,3.383,2.453c0.936,1.096,1.552,2.613,1.563,4.049
					c0.016,2.059-3.167,3.945-1.88,5.998c-1.001,0.125-2.013,0.346-2.985,0.527c-0.017-0.157-0.04-0.347-0.014-0.507
					L562.603,384.278z"/>
				<path fill="#0DB06A" d="M564.917,386.973c1.208-0.349,1.238-2.325,0.802-3.217c-0.399-0.817-1.014-1.476-1.426-2.307
					c-1.091-2.207-0.783-5.008,0.796-6.894c-1.146,0.867-2.447,1.354-3.385,2.455c-0.935,1.096-1.551,2.612-1.562,4.046
					c-0.017,2.058,3.166,3.945,1.878,5.999c1.002,0.123,2.012,0.346,2.987,0.526c0.017-0.156,0.039-0.348,0.013-0.505
					L564.917,386.973z"/>
				<path fill="#0DB06A" d="M565.52,385.99c-1.209-0.351-1.239-2.325-0.801-3.217c0.398-0.816,1.012-1.478,1.422-2.308
					c1.093-2.207,0.787-5.007-0.793-6.895c1.143,0.868,2.444,1.356,3.383,2.456c0.934,1.094,1.551,2.612,1.563,4.048
					c0.015,2.059-3.167,3.944-1.881,5.998c-0.999,0.123-2.011,0.346-2.985,0.526c-0.018-0.157-0.04-0.348-0.014-0.505L565.52,385.99
					z"/>
				<path fill="#17A186" d="M568.436,384.278c-1.209-0.351-1.238-2.325-0.801-3.219c0.398-0.813,1.011-1.475,1.424-2.306
					c1.092-2.208,0.785-5.008-0.795-6.894c1.145,0.867,2.444,1.354,3.382,2.453c0.935,1.096,1.552,2.613,1.563,4.049
					c0.018,2.059-3.166,3.945-1.878,5.998c-0.998,0.125-2.011,0.346-2.985,0.527c-0.018-0.157-0.039-0.347-0.014-0.507
					L568.436,384.278z"/>
				<path fill="#0DB06A" d="M570.15,386.973c-1.21-0.349-1.238-2.325-0.802-3.217c0.399-0.817,1.013-1.476,1.423-2.307
					c1.094-2.207,0.786-5.008-0.793-6.894c1.145,0.867,2.444,1.354,3.383,2.455c0.934,1.096,1.553,2.612,1.563,4.046
					c0.018,2.058-3.166,3.945-1.878,5.999c-1,0.123-2.011,0.346-2.985,0.526c-0.019-0.156-0.04-0.348-0.015-0.505L570.15,386.973z"
					/>
				<polygon fill="#F29D1F" points="560.533,385.356 562.567,394.904 572.84,394.368 575.546,386.313 				"/>
				<polygon fill="#F17936" points="576.188,386.685 559.281,386.313 559.673,383.086 575.562,383.79 				"/>
			</g>
		</g>
		<polygon fill="#BDC3C7" points="714.01,321.131 692.499,320.964 693.086,329.388 713.582,329.216 		"/>
	</g>
	<g opacity="0.8">
		<path fill="#EDF0F1" d="M1139.727,123.795c5.128,0,9.596-2.792,11.993-6.934c2.516,2.218,5.81,3.574,9.428,3.574
			c7.888,0,14.281-6.394,14.281-14.281c0-1.917-0.384-3.748-1.07-5.418c-2.135-5.198-7.243-8.862-13.211-8.862
			c-1.157,0-2.279,0.153-3.357,0.413c-2.863-6.191-9.114-10.495-16.384-10.495c-3.856,0-7.425,1.219-10.355,3.279
			c-0.068,0.045-0.131,0.096-0.196,0.143c-0.167-0.41-0.361-0.804-0.554-1.204c-3.722-7.764-11.632-13.138-20.818-13.138
			c-3.746,0-7.272,0.911-10.399,2.493c-0.235,0.119-0.476,0.225-0.704,0.352c-0.287-1.137-0.667-2.234-1.144-3.281
			c-3.046-6.676-9.76-11.326-17.575-11.326c-8.499,0-15.702,5.498-18.287,13.124c-2.428-0.866-5.03-1.362-7.756-1.362
			c-8.85,0-16.529,4.981-20.408,12.289c-2.126-0.878-4.45-1.369-6.893-1.369c-7.158,0-13.324,4.173-16.248,10.209
			c-0.596-0.076-1.199-0.127-1.814-0.127c-7.888,0-14.281,6.393-14.281,14.281c0,3.466,1.234,6.642,3.289,9.114
			c2.618,3.157,6.57,5.167,10.992,5.167c2.858,0,5.517-0.85,7.748-2.295c2.523,3.425,6.573,5.656,11.153,5.656
			c4.333,0,8.197-1.987,10.739-5.099c3.417,2.659,7.698,4.259,12.363,4.259c5.806,0,11.021-2.468,14.701-6.395
			c3.679,3.927,8.895,6.395,14.7,6.395c6.144,0,11.635-2.756,15.331-7.088c3.697,4.332,9.188,7.088,15.331,7.088
			c6.738,0,12.69-3.318,16.35-8.396c0.499,1.4,1.21,2.698,2.104,3.852c0.107,0.138,0.21,0.281,0.325,0.418
			C1131.641,121.863,1135.457,123.795,1139.727,123.795z"/>
	</g>
	<g opacity="0.8">
		<path fill="#EDF0F1" d="M1234.978,230.763c2.987,0,5.729-1.043,7.89-2.776c2.654,3.54,6.87,5.839,11.633,5.839
			c4.142,0,7.87-1.739,10.521-4.515c2.947,2.791,6.92,4.514,11.302,4.514c5.726,0,10.765-2.928,13.714-7.364
			c4.129,3.628,9.539,5.833,15.467,5.833c4.855,0,9.363-1.476,13.104-4.003c2.097,1.546,4.679,2.47,7.483,2.47
			c6.978,0,12.634-5.656,12.634-12.632c0-1.675-0.333-3.272-0.927-4.734c-1.553-3.837-4.933-6.737-9.066-7.618
			c-1.508-11.487-11.328-20.358-23.228-20.358c-2.01,0-3.961,0.254-5.822,0.729c-2.915-8.966-11.336-15.447-21.273-15.447
			c-12.356,0-22.376,10.017-22.376,22.375c0,0.693,0.037,1.378,0.099,2.058c-0.36-0.034-0.724-0.056-1.096-0.056
			c-5.579,0-10.238,3.902-11.419,9.125c-0.189,0.835-0.297,1.7-0.297,2.591c0,0.695,0.072,1.372,0.188,2.034
			c-0.236-0.217-0.479-0.427-0.732-0.626c-2.148-1.689-4.851-2.707-7.796-2.707c-6.978,0-12.634,5.657-12.634,12.634
			c0,3.087,1.109,5.912,2.948,8.106C1227.609,229.002,1231.088,230.763,1234.978,230.763z"/>
	</g>
	<g opacity="0.8">
		<path fill="#EDF0F1" d="M183.83,227.843c4.056,0,7.589-2.209,9.486-5.485c1.989,1.754,4.595,2.827,7.456,2.827
			c6.238,0,11.294-5.056,11.294-11.294c0-1.518-0.303-2.962-0.847-4.285c-1.688-4.112-5.727-7.01-10.447-7.01
			c-0.916,0-1.802,0.121-2.656,0.326c-2.263-4.896-7.208-8.299-12.957-8.299c-3.05,0-5.872,0.965-8.19,2.593
			c-0.053,0.037-0.103,0.077-0.155,0.114c-0.133-0.325-0.286-0.638-0.438-0.952c-2.943-6.14-9.2-10.39-16.464-10.39
			c-2.963,0-5.752,0.72-8.225,1.971c-0.186,0.095-0.377,0.178-0.558,0.278c-0.226-0.899-0.527-1.767-0.904-2.594
			c-2.408-5.28-7.718-8.958-13.898-8.958c-6.722,0-12.418,4.348-14.463,10.379c-1.92-0.685-3.979-1.077-6.134-1.077
			c-6.999,0-13.072,3.939-16.14,9.719c-1.681-0.696-3.52-1.083-5.452-1.083c-5.661,0-10.538,3.302-12.849,8.075
			c-0.471-0.06-0.949-0.102-1.435-0.102c-6.238,0-11.294,5.056-11.294,11.294c0,2.74,0.977,5.252,2.601,7.208
			c2.07,2.496,5.195,4.086,8.693,4.086c2.26,0,4.362-0.671,6.128-1.815c1.996,2.709,5.198,4.474,8.82,4.474
			c3.427,0,6.482-1.572,8.492-4.033c2.702,2.103,6.089,3.368,9.778,3.368c4.592,0,8.717-1.952,11.627-5.057
			c2.91,3.104,7.035,5.057,11.626,5.057c4.858,0,9.201-2.18,12.125-5.605c2.924,3.425,7.266,5.605,12.124,5.605
			c5.329,0,10.037-2.625,12.931-6.641c0.393,1.107,0.956,2.133,1.662,3.045c0.085,0.109,0.167,0.222,0.257,0.33
			C177.436,226.314,180.455,227.843,183.83,227.843z"/>
	</g>
	<g opacity="0.8">
		<path fill="#EDF0F1" d="M352.42,110.585c4.163,0,7.79-2.268,9.737-5.63c2.042,1.8,4.717,2.9,7.654,2.9
			c6.403,0,11.594-5.19,11.594-11.593c0-1.558-0.312-3.042-0.87-4.398c-1.733-4.221-5.878-7.197-10.724-7.197
			c-0.94,0-1.85,0.125-2.726,0.335c-2.324-5.025-7.399-8.52-13.302-8.52c-3.13,0-6.028,0.99-8.408,2.662
			c-0.055,0.037-0.105,0.079-0.158,0.117c-0.137-0.333-0.294-0.654-0.449-0.978c-3.022-6.304-9.445-10.666-16.902-10.666
			c-3.04,0-5.903,0.739-8.443,2.024c-0.191,0.096-0.386,0.182-0.572,0.285c-0.232-0.924-0.542-1.813-0.927-2.664
			c-2.473-5.419-7.923-9.195-14.268-9.195c-6.901,0-12.749,4.463-14.847,10.655c-1.971-0.703-4.084-1.105-6.297-1.105
			c-7.185,0-13.419,4.044-16.569,9.977c-1.726-0.713-3.613-1.112-5.597-1.112c-5.811,0-10.816,3.388-13.19,8.289
			c-0.483-0.061-0.973-0.104-1.473-0.104c-6.403,0-11.594,5.191-11.594,11.595c0,2.813,1.002,5.392,2.67,7.399
			c2.125,2.562,5.333,4.194,8.923,4.194c2.321,0,4.479-0.688,6.291-1.863c2.049,2.781,5.336,4.593,9.055,4.593
			c3.517,0,6.654-1.614,8.718-4.14c2.773,2.159,6.25,3.458,10.038,3.458c4.713,0,8.948-2.004,11.935-5.192
			c2.988,3.188,7.223,5.192,11.936,5.192c4.986,0,9.444-2.238,12.446-5.754c3.002,3.517,7.46,5.754,12.447,5.754
			c5.471,0,10.303-2.694,13.274-6.817c0.404,1.137,0.981,2.19,1.707,3.126c0.088,0.112,0.171,0.228,0.265,0.339
			C345.856,109.015,348.954,110.585,352.42,110.585z"/>
	</g>
	<g>
		<circle fill="#F8BE3A" cx="761.284" cy="98.224" r="22.717"/>
		<g opacity="0.8">
			<path fill="#EDF0F1" d="M692.464,108.888c1.981,0,3.8-0.691,5.235-1.841c1.76,2.347,4.556,3.873,7.715,3.873
				c2.748,0,5.223-1.153,6.979-2.994c1.957,1.851,4.591,2.994,7.498,2.994c3.799,0,7.143-1.942,9.098-4.885
				c2.739,2.407,6.326,3.87,10.259,3.87c3.221,0,6.211-0.979,8.692-2.655c1.391,1.025,3.104,1.638,4.965,1.638
				c4.628,0,8.381-3.751,8.381-8.38c0-1.111-0.223-2.17-0.615-3.14c-1.03-2.546-3.272-4.47-6.014-5.054
				c-1-7.62-7.516-13.505-15.409-13.505c-1.333,0-2.626,0.169-3.861,0.484c-1.935-5.947-7.521-10.246-14.111-10.246
				c-8.198,0-14.844,6.644-14.844,14.842c0,0.46,0.024,0.916,0.065,1.366c-0.239-0.023-0.48-0.038-0.728-0.038
				c-3.7,0-6.791,2.589-7.574,6.053c-0.125,0.554-0.197,1.128-0.197,1.719c0,0.46,0.048,0.91,0.124,1.349
				c-0.157-0.145-0.316-0.284-0.484-0.415c-1.426-1.121-3.218-1.795-5.173-1.795c-4.628,0-8.381,3.752-8.381,8.38
				c0,2.047,0.737,3.921,1.956,5.377C687.577,107.719,689.884,108.888,692.464,108.888z"/>
		</g>
	</g>
	<g opacity="0.8">
		<path fill="#EDF0F1" d="M419.174,151.376c1.982,0,3.8-0.691,5.234-1.841c1.76,2.348,4.557,3.873,7.716,3.873
			c2.748,0,5.221-1.153,6.978-2.995c1.957,1.852,4.592,2.995,7.498,2.995c3.799,0,7.142-1.942,9.098-4.885
			c2.739,2.407,6.327,3.869,10.259,3.869c3.22,0,6.212-0.979,8.692-2.654c1.391,1.024,3.104,1.638,4.965,1.638
			c4.628,0,8.381-3.752,8.381-8.38c0-1.111-0.223-2.17-0.615-3.141c-1.031-2.545-3.271-4.469-6.014-5.053
			c-1.001-7.621-7.516-13.505-15.409-13.505c-1.333,0-2.627,0.169-3.861,0.484c-1.936-5.948-7.521-10.247-14.112-10.247
			c-8.198,0-14.843,6.644-14.843,14.842c0,0.46,0.024,0.915,0.066,1.366c-0.239-0.023-0.481-0.038-0.727-0.038
			c-3.702,0-6.792,2.589-7.575,6.054c-0.126,0.554-0.197,1.127-0.197,1.719c0,0.46,0.047,0.91,0.124,1.349
			c-0.157-0.144-0.317-0.283-0.485-0.414c-1.425-1.122-3.218-1.795-5.172-1.795c-4.628,0-8.38,3.752-8.38,8.38
			c0,2.048,0.735,3.921,1.956,5.377C414.287,150.208,416.593,151.376,419.174,151.376z"/>
	</g>
	<g>
		<g>
			<path fill="#17A186" d="M558.34,481.021c-0.057-1.445-0.084-2.895-0.084-4.36c0-37.359,18.704-67.645,41.785-67.645
				c23.084,0,41.791,30.285,41.791,67.645c0,1.466-0.031,2.915-0.088,4.36H558.34z"/>
		</g>
		<g>
			<path fill="#0DB06A" d="M445.463,481.021c-0.096-1.445-0.147-2.895-0.147-4.36c0-37.359,32.498-67.645,72.599-67.645
				c40.104,0,72.609,30.285,72.609,67.645c0,1.466-0.058,2.915-0.153,4.36H445.463z"/>
		</g>
		<g>
			<path fill="#0DB06A" d="M327.102,481.021c-0.096-1.445-0.146-2.895-0.146-4.36c0-37.359,32.497-67.645,72.597-67.645
				c40.104,0,72.61,30.285,72.61,67.645c0,1.466-0.058,2.915-0.154,4.36H327.102z"/>
		</g>
		<g>
			<path fill="#17A186" d="M423.836,481.021c-0.056-1.445-0.085-2.895-0.085-4.36c0-37.359,18.705-67.645,41.785-67.645
				c23.082,0,41.792,30.285,41.792,67.645c0,1.466-0.033,2.915-0.089,4.36H423.836z"/>
		</g>
	</g>
	<g>
		<path fill="#EC974E" d="M1300.956,514.84c0.163-29.648,9.176-58.466,8.229-87.034c-0.982-29.592-21.799-41.749-42.033-50.013
			c10.496-5.142,30.04,2.961,36.543,14.109c2.031-14.933,2.8-36.909,9.979-48.95c13.697,39.727,5.745,95.193,8.128,137.91
			c13.215-18.026,18.421-68.27,47.529-65.702c4.991,20.235-21.925,40.169-28.46,59.056c8.656,0.398,16.795,3.018,23.07,9.678
			c-25.332,1.181-34.328,14.34-36.619,42.586c-1.845,22.785,0.01,46.093,1.064,68.946c1.077,23.237,5.019,43.603,13.379,64.834
			c4.262,10.828,7.215,23.109,12.684,33.519c4.68,8.902,12.858,16.766,16.289,25.471c-13.631,2.141-22.47-18.383-35.242-20.462
			c0.622,14.403,12.32,25.954,13.29,39.919c-23.852-3.885-34.517-45.955-47.649-64.275c-17.525,24.331-24.43,36.344-43.901,35.143
			c5.574-24.721,27.405-41.973,33.808-67.767c5.22-21.029,0.761-46.845,1.686-68.938c1.155-27.542-1.359-36.252-24.658-47.15
			c-18.408-8.609-36.335-16.621-56.063-12.739c0.161-15.881,25.705-11.921,35.451-11.033c15.312,1.391,24.714,9.995,36.757,20.79
			c0.304-20.714-27.933-36.673-35.243-54.399c27.335-7.312,32.586,41.808,50.612,49.727L1300.956,514.84z"/>
		<path fill="#17A186" d="M1302.634,394.095c17.44,0.063,56.183-11.228,43.136-36.093c19.6,18.448,61.973-31.053,34.885-46.088
			c26.625-7.138,18.926-55.652-9.007-55.936c16.571-39.114-22.513-67.347-56.064-44.427c-6.636-48.456-75.049-48.215-98.489-13.996
			c-24.998-38.643-94.509-36.159-106.773,13.426c-52.076-36.404-83.865,58.769-63.637,96.185
			c-19.096,16.066,4.516,50.548,20.216,58.299c24.169,11.929,64.966,20.781,87.13,3.576c1.521,30.888,51.488,33.288,72.792,25.054
			c8.381,22.539,47.111,21.771,61.679,7.378C1288.5,401.473,1301.236,404.007,1302.634,394.095z"/>
		<path fill="#0DB06A" d="M1257.895,512.692c-7.461,21.964-46.605,61.952-60.803,22.925c-14.24,27.239-54.216,23.495-78.079,13.064
			c-17.648-7.71-66.269-58.424-22.32-63.492c-37.792-32.24,9.149-103.062,52.993-72.964c-3.319-22.831,11.726-37.234,33.583-37.73
			c28.429-0.643,36.53,23.155,44.841,46.707c33.236-42.189,88.714,49.011,65.713,83.194L1257.895,512.692z"/>
		<path fill="#0DB06A" d="M1368.789,505.722c-11.597,4.262-38.736-8.162-23.663-19.652c-18.968-22.162-6.354-78.943,27.7-77.292
			c-6.699-16.012,13.115-28.997,26.675-31.298c23.038-3.912,34.089,10.436,42.501,28.607c22.769-12.264,68.894,1.939,60.975,33.097
			c28.313-2.145,47.051,40.774,18.347,54.381c7.731,16.925-5.957,32.431-20.178,39.868c-17.865,9.337-29.615,6.458-46.479-1.311
			c-2.684,23.94-38.563,19.119-48.909,4.216c-12.438,9.208-36.492-5.704-32.825-18.178L1368.789,505.722z"/>
	</g>
	<g>
		<path fill="#EC974E" d="M174.704,528.52c0.163-29.648,9.177-58.466,8.229-87.034c-0.981-29.592-21.799-41.749-42.034-50.013
			c10.498-5.143,30.042,2.962,36.543,14.108c2.032-14.932,2.799-36.909,9.981-48.948c13.697,39.725,5.744,95.191,8.127,137.909
			c13.214-18.025,18.42-68.271,47.529-65.702c4.992,20.235-21.923,40.169-28.46,59.055c8.657,0.398,16.796,3.018,23.072,9.679
			c-25.333,1.18-34.328,14.34-36.62,42.585c-1.846,22.786,0.01,46.095,1.064,68.946c1.077,23.238,5.019,43.604,13.379,64.836
			c4.261,10.827,7.214,23.107,12.683,33.518c4.68,8.901,12.858,16.766,16.289,25.471c-13.63,2.14-22.469-18.382-35.242-20.462
			c0.622,14.402,12.32,25.954,13.29,39.92c-23.852-3.886-34.517-45.956-47.65-64.277c-17.525,24.331-24.429,36.345-43.9,35.144
			c5.573-24.722,27.404-41.972,33.807-67.766c5.221-21.03,0.76-46.847,1.686-68.939c1.154-27.542-1.36-36.253-24.659-47.15
			c-18.408-8.61-36.334-16.621-56.063-12.739c0.16-15.882,25.704-11.921,35.451-11.033c15.312,1.391,24.714,9.995,36.757,20.79
			c0.303-20.715-27.934-36.673-35.244-54.399c27.336-7.311,32.587,41.808,50.613,49.728L174.704,528.52z"/>
		<path fill="#17A186" d="M176.381,407.774c17.441,0.062,56.184-11.227,43.137-36.092c19.6,18.448,61.972-31.055,34.884-46.089
			c26.625-7.138,18.925-55.653-9.008-55.937c16.573-39.113-22.511-67.346-56.064-44.427c-6.634-48.455-75.047-48.214-98.488-13.995
			c-24.998-38.643-94.509-36.159-106.774,13.426c-52.075-36.404-83.865,58.768-63.636,96.186
			c-19.097,16.065,4.515,50.547,20.216,58.297c24.168,11.929,64.966,20.782,87.13,3.578c1.521,30.886,51.487,33.288,72.792,25.053
			c8.38,22.539,47.111,21.771,61.679,7.377C162.249,415.151,174.985,417.686,176.381,407.774z"/>
		<path fill="#0DB06A" d="M131.643,526.372c-7.462,21.965-46.604,61.953-60.803,22.925C56.6,576.536,16.624,572.792-7.239,562.36
			c-17.648-7.709-66.268-58.423-22.32-63.49c-37.792-32.241,9.148-103.063,52.993-72.965c-3.318-22.831,11.725-37.235,33.583-37.73
			c28.429-0.644,36.53,23.155,44.84,46.707c33.236-42.188,88.713,49.01,65.714,83.194L131.643,526.372z"/>
		<path fill="#0DB06A" d="M242.537,519.401c-11.597,4.262-38.737-8.163-23.663-19.652c-18.967-22.162-6.353-78.942,27.701-77.291
			c-6.699-16.012,13.115-28.998,26.674-31.3c23.039-3.911,34.09,10.435,42.5,28.607c22.77-12.262,68.895,1.941,60.975,33.097
			c28.315-2.145,47.051,40.775,18.347,54.382c7.731,16.925-5.956,32.431-20.177,39.867c-17.866,9.338-29.616,6.458-46.478-1.31
			c-2.684,23.941-38.564,19.119-48.91,4.216c-12.437,9.209-36.491-5.705-32.825-18.179L242.537,519.401z"/>
	</g>
	<g>
		<g>
			<g>
				<polygon fill="#DADFE1" points="335.084,748.188 299.453,748.188 294.289,626.283 317.268,612.515 340.247,626.283 				"/>
				<polygon fill="#DADFE1" points="386.721,748.188 351.09,748.188 345.926,626.283 368.905,612.515 391.885,626.283 				"/>
				<polygon fill="#DADFE1" points="438.357,748.188 402.727,748.188 397.563,626.283 420.541,612.515 443.521,626.283 				"/>
				<polygon fill="#DADFE1" points="489.993,748.188 454.362,748.188 449.199,626.283 472.179,612.515 495.157,626.283 				"/>
				<polygon fill="#DADFE1" points="541.63,748.188 505.999,748.188 500.836,626.283 523.814,612.515 546.794,626.283 				"/>
				<polygon fill="#DADFE1" points="593.268,748.188 557.636,748.188 552.473,626.283 575.451,612.515 598.431,626.283 				"/>
				<polygon fill="#DADFE1" points="644.902,748.188 609.273,748.188 604.109,626.283 627.088,612.515 650.068,626.283 				"/>
			</g>
			<g>
				<polygon fill="#ECECEC" points="335.084,748.188 317.268,748.188 317.268,612.515 340.247,626.283 				"/>
				<polygon fill="#ECECEC" points="386.721,748.188 368.905,748.188 368.905,612.515 391.885,626.283 				"/>
				<polygon fill="#ECECEC" points="438.357,748.188 420.541,748.188 420.541,612.515 443.521,626.283 				"/>
				<polygon fill="#ECECEC" points="489.993,748.188 472.179,748.188 472.179,612.515 495.157,626.283 				"/>
				<polygon fill="#ECECEC" points="541.63,748.188 523.814,748.188 523.814,612.515 546.794,626.283 				"/>
				<polygon fill="#ECECEC" points="593.268,748.188 575.451,748.188 575.451,612.515 598.431,626.283 				"/>
				<polygon fill="#ECECEC" points="644.902,748.188 627.088,748.188 627.088,612.515 650.068,626.283 				"/>
			</g>
			<g>
				<rect x="222.735" y="644.921" fill="#BDC3C7" width="413.093" height="15.885"/>
				<path fill="#ABB7B7" d="M377.645,650.388c-1.834,0-3.321,1.487-3.321,3.321s1.487,3.324,3.321,3.324
					c1.835,0,3.324-1.49,3.324-3.324S379.479,650.388,377.645,650.388z M429.282,650.388c-1.834,0-3.321,1.487-3.321,3.321
					s1.487,3.324,3.321,3.324c1.835,0,3.322-1.49,3.322-3.324S431.117,650.388,429.282,650.388z M274.372,650.388
					c-1.836,0-3.322,1.487-3.322,3.321s1.486,3.324,3.322,3.324c1.834,0,3.321-1.49,3.321-3.324S276.207,650.388,274.372,650.388z
					 M326.009,650.388c-1.835,0-3.324,1.487-3.324,3.321s1.489,3.324,3.324,3.324c1.833,0,3.321-1.49,3.321-3.324
					S327.843,650.388,326.009,650.388z M632.507,653.709c0,1.834,1.487,3.324,3.321,3.324v-6.646
					C633.994,650.388,632.507,651.875,632.507,653.709z M480.918,650.388c-1.833,0-3.321,1.487-3.321,3.321s1.488,3.324,3.321,3.324
					c1.836,0,3.322-1.49,3.322-3.324S482.754,650.388,480.918,650.388z M584.192,650.388c-1.835,0-3.321,1.487-3.321,3.321
					s1.486,3.324,3.321,3.324s3.323-1.49,3.323-3.324S586.027,650.388,584.192,650.388z M532.556,650.388
					c-1.834,0-3.321,1.487-3.321,3.321s1.487,3.324,3.321,3.324s3.322-1.49,3.322-3.324S534.39,650.388,532.556,650.388z"/>
			</g>
		</g>
		<g>
			<g>
				<polygon fill="#DADFE1" points="1113.943,748.188 1078.314,748.188 1073.148,626.283 1096.129,612.515 1119.107,626.283 				"/>
				<polygon fill="#DADFE1" points="1165.581,748.188 1129.949,748.188 1124.786,626.283 1147.765,612.515 1170.744,626.283 				"/>
				<polygon fill="#DADFE1" points="1217.217,748.188 1181.587,748.188 1176.424,626.283 1199.4,612.515 1222.38,626.283 				"/>
				<polygon fill="#DADFE1" points="1268.854,748.188 1233.223,748.188 1228.059,626.283 1251.038,612.515 1274.017,626.283 				"/>
				<polygon fill="#DADFE1" points="1320.49,748.188 1284.859,748.188 1279.696,626.283 1302.674,612.515 1325.654,626.283 				"/>
				<polygon fill="#DADFE1" points="1372.128,748.188 1336.496,748.188 1331.333,626.283 1354.311,612.515 1377.291,626.283 				"/>
				<polygon fill="#DADFE1" points="1423.764,748.188 1388.134,748.188 1382.971,626.283 1405.948,612.515 1428.929,626.283 				"/>
			</g>
			<g>
				<polygon fill="#ECECEC" points="1062.306,748.188 1044.491,748.188 1044.491,612.515 1067.472,626.283 				"/>
				<polygon fill="#ECECEC" points="1113.943,748.188 1096.129,748.188 1096.129,612.515 1119.107,626.283 				"/>
				<polygon fill="#ECECEC" points="1165.581,748.188 1147.765,748.188 1147.765,612.515 1170.744,626.283 				"/>
				<polygon fill="#ECECEC" points="1217.217,748.188 1199.4,748.188 1199.4,612.515 1222.38,626.283 				"/>
				<polygon fill="#ECECEC" points="1268.854,748.188 1251.038,748.188 1251.038,612.515 1274.017,626.283 				"/>
				<polygon fill="#ECECEC" points="1320.49,748.188 1302.674,748.188 1302.674,612.515 1325.654,626.283 				"/>
				<polygon fill="#ECECEC" points="1372.128,748.188 1354.311,748.188 1354.311,612.515 1377.291,626.283 				"/>
				<polygon fill="#ECECEC" points="1423.764,748.188 1405.948,748.188 1405.948,612.515 1428.929,626.283 				"/>
			</g>
			<rect x="1044.491" y="644.922" fill="#BDC3C7" width="398.091" height="15.885"/>
			<path fill="#ABB7B7" d="M1199.4,649.543c-1.833,0-3.321,1.486-3.321,3.32c0,1.835,1.488,3.322,3.321,3.322
				c1.835,0,3.324-1.487,3.324-3.322C1202.725,651.029,1201.235,649.543,1199.4,649.543z M1251.038,649.543
				c-1.835,0-3.321,1.486-3.321,3.32c0,1.835,1.486,3.322,3.321,3.322s3.322-1.487,3.322-3.322
				C1254.36,651.029,1252.873,649.543,1251.038,649.543z M1096.129,649.543c-1.836,0-3.322,1.486-3.322,3.32
				c0,1.835,1.486,3.322,3.322,3.322c1.834,0,3.321-1.487,3.321-3.322C1099.45,651.029,1097.963,649.543,1096.129,649.543z
				 M1044.491,649.543v6.643c1.835,0,3.322-1.487,3.322-3.322C1047.813,651.029,1046.326,649.543,1044.491,649.543z
				 M1147.765,649.543c-1.834,0-3.323,1.486-3.323,3.32c0,1.835,1.489,3.322,3.323,3.322c1.835,0,3.323-1.487,3.323-3.322
				C1151.088,651.029,1149.6,649.543,1147.765,649.543z M1302.674,649.543c-1.833,0-3.321,1.486-3.321,3.32
				c0,1.835,1.488,3.322,3.321,3.322c1.836,0,3.323-1.487,3.323-3.322C1305.997,651.029,1304.51,649.543,1302.674,649.543z
				 M1405.948,649.543c-1.834,0-3.321,1.486-3.321,3.32c0,1.835,1.487,3.322,3.321,3.322c1.835,0,3.321-1.487,3.321-3.322
				C1409.27,651.029,1407.783,649.543,1405.948,649.543z M1354.311,649.543c-1.833,0-3.32,1.486-3.32,3.32
				c0,1.835,1.487,3.322,3.32,3.322c1.836,0,3.323-1.487,3.323-3.322C1357.634,651.029,1356.146,649.543,1354.311,649.543z"/>
		</g>
		<g>
			<g>
				<polygon fill="#DADFE1" points="21.835,748.187 -13.797,748.187 -18.96,626.282 4.02,612.515 26.999,626.282 				"/>
				<polygon fill="#DADFE1" points="73.471,748.187 37.84,748.187 32.677,626.282 55.654,612.515 78.634,626.282 				"/>
				<polygon fill="#DADFE1" points="125.108,748.187 89.476,748.187 84.313,626.282 107.292,612.515 130.271,626.282 				"/>
				<polygon fill="#DADFE1" points="176.744,748.187 141.114,748.187 135.95,626.282 158.928,612.515 181.907,626.282 				"/>
				<polygon fill="#DADFE1" points="228.381,748.187 192.75,748.187 187.586,626.282 210.565,612.515 233.545,626.282 				"/>
				<polygon fill="#DADFE1" points="280.017,748.187 244.387,748.187 239.224,626.282 262.203,612.515 285.182,626.282 				"/>
				<polygon display="none" fill="#DADFE1" points="296.024,748.187 313.838,748.187 313.838,612.515 290.859,626.282 				"/>
			</g>
			<g>
				<polygon fill="#ECECEC" points="21.835,748.187 4.02,748.187 4.02,612.515 26.999,626.282 				"/>
				<polygon fill="#ECECEC" points="73.471,748.187 55.654,748.187 55.654,612.515 78.634,626.282 				"/>
				<polygon fill="#ECECEC" points="125.108,748.187 107.292,748.187 107.292,612.515 130.271,626.282 				"/>
				<polygon fill="#ECECEC" points="176.744,748.187 158.928,748.187 158.928,612.515 181.907,626.282 				"/>
				<polygon fill="#ECECEC" points="228.381,748.187 210.565,748.187 210.565,612.515 233.545,626.282 				"/>
				<polygon fill="#ECECEC" points="280.017,748.187 262.203,748.187 262.203,612.515 285.182,626.282 				"/>
			</g>
			<rect x="-99.254" y="644.921" fill="#BDC3C7" width="413.093" height="15.885"/>
			<path fill="#ABB7B7" d="M55.654,649.542c-1.834,0-3.321,1.486-3.321,3.321s1.487,3.321,3.321,3.321
				c1.835,0,3.324-1.486,3.324-3.321S57.49,649.542,55.654,649.542z M107.292,649.542c-1.834,0-3.321,1.486-3.321,3.321
				s1.487,3.321,3.321,3.321c1.835,0,3.322-1.486,3.322-3.321S109.127,649.542,107.292,649.542z M-47.618,649.542
				c-1.835,0-3.322,1.486-3.322,3.321s1.486,3.321,3.322,3.321c1.835,0,3.322-1.486,3.322-3.321S-45.783,649.542-47.618,649.542z
				 M4.02,649.542c-1.835,0-3.324,1.486-3.324,3.321s1.489,3.321,3.324,3.321c1.833,0,3.321-1.486,3.321-3.321
				S5.853,649.542,4.02,649.542z M310.518,652.863c0,1.835,1.487,3.321,3.321,3.321v-6.643
				C312.005,649.542,310.518,651.028,310.518,652.863z M158.928,649.542c-1.833,0-3.321,1.486-3.321,3.321s1.488,3.321,3.321,3.321
				c1.836,0,3.323-1.486,3.323-3.321S160.764,649.542,158.928,649.542z M262.203,649.542c-1.835,0-3.322,1.486-3.322,3.321
				s1.487,3.321,3.322,3.321c1.834,0,3.321-1.486,3.321-3.321S264.037,649.542,262.203,649.542z M210.565,649.542
				c-1.834,0-3.322,1.486-3.322,3.321s1.487,3.321,3.322,3.321c1.834,0,3.322-1.486,3.322-3.321S212.399,649.542,210.565,649.542z"
				/>
		</g>
		<g>
			<g>
				<polygon fill="#DADFE1" points="700.852,748.188 665.221,748.188 660.057,626.283 683.035,612.515 706.014,626.283 				"/>
				<polygon fill="#DADFE1" points="752.488,748.188 716.857,748.188 711.694,626.283 734.672,612.515 757.651,626.283 				"/>
				<polygon fill="#DADFE1" points="804.124,748.188 768.494,748.188 763.33,626.283 786.308,612.515 809.287,626.283 				"/>
				<polygon fill="#DADFE1" points="855.76,748.188 820.129,748.188 814.965,626.283 837.945,612.515 860.924,626.283 				"/>
				<polygon fill="#DADFE1" points="907.396,748.188 871.766,748.188 866.603,626.283 889.581,612.515 912.561,626.283 				"/>
				<polygon fill="#DADFE1" points="959.034,748.188 923.402,748.188 918.239,626.283 941.219,612.515 964.197,626.283 				"/>
				<polygon fill="#DADFE1" points="1010.67,748.188 975.04,748.188 969.876,626.283 992.855,612.515 1015.834,626.283 				"/>
				<polygon fill="#DADFE1" points="1026.677,748.188 1044.491,748.188 1044.491,612.515 1021.512,626.283 				"/>
			</g>
			<g>
				<polygon fill="#ECECEC" points="700.852,748.188 683.035,748.188 683.035,612.515 706.014,626.283 				"/>
				<polygon fill="#ECECEC" points="752.488,748.188 734.672,748.188 734.672,612.515 757.651,626.283 				"/>
				<polygon fill="#ECECEC" points="804.124,748.188 786.308,748.188 786.308,612.515 809.287,626.283 				"/>
				<polygon fill="#ECECEC" points="855.76,748.188 837.945,748.188 837.945,612.515 860.924,626.283 				"/>
				<polygon fill="#ECECEC" points="907.396,748.188 889.581,748.188 889.581,612.515 912.561,626.283 				"/>
				<polygon fill="#ECECEC" points="959.034,748.188 941.219,748.188 941.219,612.515 964.197,626.283 				"/>
				<polygon fill="#ECECEC" points="1010.67,748.188 992.855,748.188 992.855,612.515 1015.834,626.283 				"/>
			</g>
			<rect x="631.397" y="644.922" fill="#BDC3C7" width="413.094" height="15.885"/>
			<path fill="#ABB7B7" d="M786.308,649.543c-1.835,0-3.321,1.486-3.321,3.32c0,1.835,1.486,3.322,3.321,3.322
				s3.322-1.487,3.322-3.322C789.63,651.029,788.143,649.543,786.308,649.543z M837.945,649.543c-1.836,0-3.321,1.486-3.321,3.32
				c0,1.835,1.485,3.322,3.321,3.322c1.835,0,3.321-1.487,3.321-3.322C841.267,651.029,839.78,649.543,837.945,649.543z
				 M683.035,649.543c-1.836,0-3.321,1.486-3.321,3.32c0,1.835,1.485,3.322,3.321,3.322c1.835,0,3.322-1.487,3.322-3.322
				C686.357,651.029,684.87,649.543,683.035,649.543z M734.672,649.543c-1.834,0-3.322,1.486-3.322,3.32
				c0,1.835,1.488,3.322,3.322,3.322s3.322-1.487,3.322-3.322C737.994,651.029,736.506,649.543,734.672,649.543z M1041.17,652.863
				c0,1.835,1.487,3.322,3.321,3.322v-6.643C1042.657,649.543,1041.17,651.029,1041.17,652.863z M889.581,649.543
				c-1.834,0-3.321,1.486-3.321,3.32c0,1.835,1.487,3.322,3.321,3.322c1.835,0,3.322-1.487,3.322-3.322
				C892.903,651.029,891.416,649.543,889.581,649.543z M992.855,649.543c-1.835,0-3.322,1.486-3.322,3.32
				c0,1.835,1.487,3.322,3.322,3.322c1.834,0,3.321-1.487,3.321-3.322C996.177,651.029,994.689,649.543,992.855,649.543z
				 M941.219,649.543c-1.835,0-3.322,1.486-3.322,3.32c0,1.835,1.487,3.322,3.322,3.322c1.834,0,3.321-1.487,3.321-3.322
				C944.54,651.029,943.053,649.543,941.219,649.543z"/>
		</g>
	</g>
</g>
</svg>
